<ttFont>
    <TTGlyph name=".notdef" xMin="32" yMin="0" xMax="440" yMax="780">
      <contour>
        <pt x="32" y="0" on="1"/>
        <pt x="32" y="780" on="1"/>
        <pt x="440" y="780" on="1"/>
        <pt x="440" y="0" on="1"/>
      </contour>
      <contour>
        <pt x="109" y="77" on="1"/>
        <pt x="363" y="77" on="1"/>
        <pt x="363" y="703" on="1"/>
        <pt x="109" y="703" on="1"/>
      </contour>
    </TTGlyph>
    <TTGlyph name="A" xMin="-30" yMin="0" xMax="565" yMax="698">
      <contour>
        <pt x="455" y="0" on="1"/>
        <pt x="433" y="189" on="1"/>
        <pt x="183" y="189" on="1"/>
        <pt x="86" y="0" on="1"/>
        <pt x="-30" y="0" on="1"/>
        <pt x="337" y="698" on="1"/>
        <pt x="477" y="698" on="1"/>
        <pt x="565" y="0" on="1"/>
      </contour>
      <contour>
        <pt x="391" y="598" on="1"/>
        <pt x="384" y="598" on="1"/>
        <pt x="228" y="283" on="1"/>
        <pt x="424" y="283" on="1"/>
      </contour>
    </TTGlyph>
    <TTGlyph name="AE" xMin="-48" yMin="0" xMax="928" yMax="698">
      <contour>
        <pt x="400" y="189" on="1"/>
        <pt x="194" y="189" on="1"/>
        <pt x="71" y="0" on="1"/>
        <pt x="-48" y="0" on="1"/>
        <pt x="418" y="698" on="1"/>
        <pt x="928" y="698" on="1"/>
        <pt x="909" y="602" on="1"/>
        <pt x="591" y="602" on="1"/>
        <pt x="551" y="400" on="1"/>
        <pt x="835" y="400" on="1"/>
        <pt x="816" y="304" on="1"/>
        <pt x="532" y="304" on="1"/>
        <pt x="490" y="96" on="1"/>
        <pt x="822" y="96" on="1"/>
        <pt x="803" y="0" on="1"/>
        <pt x="362" y="0" on="1"/>
      </contour>
      <contour>
        <pt x="465" y="605" on="1"/>
        <pt x="256" y="283" on="1"/>
        <pt x="419" y="283" on="1"/>
        <pt x="483" y="605" on="1"/>
      </contour>
    </TTGlyph>
    <TTGlyph name="AEacute" xMin="-48" yMin="0" xMax="928" yMax="962">
      <component glyphName="AE" x="0" y="0" flags="0x204"/>
      <component glyphName="acute.case" x="359" y="0" flags="0x4"/>
    </TTGlyph>
    <TTGlyph name="Aacute" xMin="-30" yMin="0" xMax="565" yMax="962">
      <component glyphName="A" x="0" y="0" flags="0x204"/>
      <component glyphName="acute.case" x="111" y="0" flags="0x4"/>
    </TTGlyph>
    <TTGlyph name="Abreve" xMin="-30" yMin="0" xMax="607" yMax="934">
      <component glyphName="A" x="0" y="0" flags="0x204"/>
      <component glyphName="breve.case" x="111" y="0" flags="0x4"/>
    </TTGlyph>
    <TTGlyph name="Acircumflex" xMin="-30" yMin="0" xMax="588" yMax="944">
      <component glyphName="A" x="0" y="0" flags="0x204"/>
      <component glyphName="circumflex.case" x="111" y="0" flags="0x4"/>
    </TTGlyph>
    <TTGlyph name="Adieresis" xMin="-30" yMin="0" xMax="585" yMax="902">
      <component glyphName="A" x="0" y="0" flags="0x204"/>
      <component glyphName="dieresis.case" x="111" y="0" flags="0x4"/>
    </TTGlyph>
    <TTGlyph name="Agrave" xMin="-30" yMin="0" xMax="565" yMax="961">
      <component glyphName="A" x="0" y="0" flags="0x204"/>
      <component glyphName="grave.case" x="111" y="0" flags="0x4"/>
    </TTGlyph>
    <TTGlyph name="Alpha" xMin="-30" yMin="0" xMax="565" yMax="698">
      <component glyphName="A" x="0" y="0" flags="0x204"/>
    </TTGlyph>
    <TTGlyph name="Alphatonos" xMin="-30" yMin="0" xMax="565" yMax="795">
      <component glyphName="A" x="0" y="0" flags="0x204"/>
      <component glyphName="tonos.case" x="-197" y="0" flags="0x4"/>
    </TTGlyph>
    <TTGlyph name="Amacron" xMin="-30" yMin="0" xMax="575" yMax="881">
      <component glyphName="A" x="0" y="0" flags="0x204"/>
      <component glyphName="macron.case" x="111" y="0" flags="0x4"/>
    </TTGlyph>
    <TTGlyph name="Aogonek" xMin="-30" yMin="-209" xMax="578" yMax="698">
      <contour>
        <pt x="337" y="698" on="1"/>
        <pt x="477" y="698" on="1"/>
        <pt x="565" y="0" on="1"/>
        <pt x="525" y="-26" on="0"/>
        <pt x="478" y="-63" on="0"/>
        <pt x="454" y="-90" on="0"/>
        <pt x="447" y="-110" on="0"/>
        <pt x="447" y="-117" on="1"/>
        <pt x="447" y="-147" on="0"/>
        <pt x="480" y="-147" on="1"/>
        <pt x="494" y="-147" on="0"/>
        <pt x="523" y="-135" on="0"/>
        <pt x="534" y="-120" on="1"/>
        <pt x="578" y="-167" on="1"/>
        <pt x="562" y="-184" on="0"/>
        <pt x="510" y="-209" on="0"/>
        <pt x="470" y="-209" on="1"/>
        <pt x="449" y="-209" on="0"/>
        <pt x="410" y="-200" on="0"/>
        <pt x="381" y="-181" on="0"/>
        <pt x="364" y="-151" on="0"/>
        <pt x="364" y="-131" on="1"/>
        <pt x="364" y="-51" on="0"/>
        <pt x="494" y="-5" on="1"/>
        <pt x="493" y="0" on="1"/>
        <pt x="455" y="0" on="1"/>
        <pt x="433" y="189" on="1"/>
        <pt x="183" y="189" on="1"/>
        <pt x="86" y="0" on="1"/>
        <pt x="-30" y="0" on="1"/>
      </contour>
      <contour>
        <pt x="391" y="598" on="1"/>
        <pt x="384" y="598" on="1"/>
        <pt x="228" y="283" on="1"/>
        <pt x="424" y="283" on="1"/>
      </contour>
    </TTGlyph>
    <TTGlyph name="Aring" xMin="-30" yMin="0" xMax="565" yMax="988">
      <component glyphName="A" x="0" y="0" flags="0x204"/>
      <component glyphName="ring.case" x="110" y="0" flags="0x4"/>
    </TTGlyph>
    <TTGlyph name="Aringacute" xMin="-30" yMin="0" xMax="587" yMax="1137">
      <component glyphName="A" x="0" y="0" flags="0x204"/>
      <component glyphName="ringacute.case" x="111" y="0" flags="0x4"/>
    </TTGlyph>
    <TTGlyph name="Atilde" xMin="-30" yMin="0" xMax="601" yMax="904">
      <component glyphName="A" x="0" y="0" flags="0x204"/>
      <component glyphName="tilde.case" x="110" y="0" flags="0x4"/>
    </TTGlyph>
    <TTGlyph name="B" xMin="32" yMin="0" xMax="616" yMax="698">
      <contour>
        <pt x="172" y="698" on="1"/>
        <pt x="446" y="698" on="1"/>
        <pt x="525" y="698" on="0"/>
        <pt x="616" y="622" on="0"/>
        <pt x="616" y="552" on="1"/>
        <pt x="616" y="519" on="0"/>
        <pt x="598" y="459" on="0"/>
        <pt x="563" y="409" on="0"/>
        <pt x="511" y="374" on="0"/>
        <pt x="477" y="365" on="1"/>
        <pt x="476" y="360" on="1"/>
        <pt x="578" y="334" on="0"/>
        <pt x="578" y="231" on="1"/>
        <pt x="578" y="182" on="0"/>
        <pt x="545" y="97" on="0"/>
        <pt x="484" y="35" on="0"/>
        <pt x="398" y="0" on="0"/>
        <pt x="345" y="0" on="1"/>
        <pt x="32" y="0" on="1"/>
      </contour>
      <contour>
        <pt x="344" y="95" on="1"/>
        <pt x="389" y="95" on="0"/>
        <pt x="447" y="139" on="0"/>
        <pt x="457" y="186" on="1"/>
        <pt x="462" y="212" on="0"/>
        <pt x="466" y="237" on="0"/>
        <pt x="466" y="244" on="1"/>
        <pt x="466" y="275" on="0"/>
        <pt x="425" y="311" on="0"/>
        <pt x="384" y="311" on="1"/>
        <pt x="202" y="311" on="1"/>
        <pt x="159" y="95" on="1"/>
      </contour>
      <contour>
        <pt x="377" y="401" on="1"/>
        <pt x="424" y="401" on="0"/>
        <pt x="484" y="440" on="0"/>
        <pt x="493" y="485" on="1"/>
        <pt x="498" y="509" on="0"/>
        <pt x="501" y="533" on="0"/>
        <pt x="501" y="540" on="1"/>
        <pt x="501" y="569" on="0"/>
        <pt x="464" y="603" on="0"/>
        <pt x="427" y="603" on="1"/>
        <pt x="261" y="603" on="1"/>
        <pt x="220" y="401" on="1"/>
      </contour>
    </TTGlyph>
    <TTGlyph name="Beta" xMin="32" yMin="0" xMax="616" yMax="698">
      <component glyphName="B" x="0" y="0" flags="0x204"/>
    </TTGlyph>
    <TTGlyph name="C" xMin="56" yMin="-12" xMax="630" yMax="710">
      <contour>
        <pt x="297" y="-12" on="1"/>
        <pt x="244" y="-12" on="0"/>
        <pt x="156" y="24" on="0"/>
        <pt x="92" y="95" on="0"/>
        <pt x="56" y="200" on="0"/>
        <pt x="56" y="269" on="1"/>
        <pt x="56" y="360" on="0"/>
        <pt x="107" y="521" on="0"/>
        <pt x="198" y="641" on="0"/>
        <pt x="325" y="710" on="0"/>
        <pt x="401" y="710" on="1"/>
        <pt x="580" y="710" on="0"/>
        <pt x="630" y="546" on="1"/>
        <pt x="533" y="504" on="1"/>
        <pt x="518" y="555" on="0"/>
        <pt x="453" y="613" on="0"/>
        <pt x="392" y="613" on="1"/>
        <pt x="316" y="613" on="0"/>
        <pt x="211" y="507" on="0"/>
        <pt x="193" y="418" on="1"/>
        <pt x="170" y="305" on="1"/>
        <pt x="166" y="288" on="0"/>
        <pt x="164" y="259" on="0"/>
        <pt x="164" y="246" on="1"/>
        <pt x="164" y="171" on="0"/>
        <pt x="237" y="85" on="0"/>
        <pt x="305" y="85" on="1"/>
        <pt x="338" y="85" on="0"/>
        <pt x="390" y="102" on="0"/>
        <pt x="432" y="133" on="0"/>
        <pt x="466" y="177" on="0"/>
        <pt x="481" y="204" on="1"/>
        <pt x="571" y="161" on="1"/>
        <pt x="525" y="72" on="0"/>
        <pt x="390" y="-12" on="0"/>
      </contour>
    </TTGlyph>
    <TTGlyph name="Cacute" xMin="56" yMin="-12" xMax="630" yMax="962">
      <component glyphName="C" x="0" y="0" flags="0x204"/>
      <component glyphName="acute.case" x="113" y="0" flags="0x4"/>
    </TTGlyph>
    <TTGlyph name="Ccaron" xMin="56" yMin="-12" xMax="630" yMax="953">
      <component glyphName="C" x="0" y="0" flags="0x204"/>
      <component glyphName="caron.case" x="112" y="0" flags="0x4"/>
    </TTGlyph>
    <TTGlyph name="Ccedilla" xMin="56" yMin="-209" xMax="630" yMax="710">
      <contour>
        <pt x="392" y="613" on="1"/>
        <pt x="316" y="613" on="0"/>
        <pt x="211" y="506" on="0"/>
        <pt x="193" y="418" on="1"/>
        <pt x="170" y="305" on="1"/>
        <pt x="166" y="288" on="0"/>
        <pt x="164" y="259" on="0"/>
        <pt x="164" y="246" on="1"/>
        <pt x="164" y="171" on="0"/>
        <pt x="237" y="85" on="0"/>
        <pt x="306" y="85" on="1"/>
        <pt x="372" y="85" on="0"/>
        <pt x="451" y="149" on="0"/>
        <pt x="481" y="204" on="1"/>
        <pt x="571" y="161" on="1"/>
        <pt x="526" y="75" on="0"/>
        <pt x="398" y="-9" on="0"/>
        <pt x="310" y="-12" on="1"/>
        <pt x="294" y="-59" on="1"/>
        <pt x="296" y="-62" on="1"/>
        <pt x="313" y="-57" on="0"/>
        <pt x="332" y="-57" on="1"/>
        <pt x="358" y="-57" on="0"/>
        <pt x="392" y="-84" on="0"/>
        <pt x="392" y="-113" on="1"/>
        <pt x="392" y="-159" on="0"/>
        <pt x="322" y="-209" on="0"/>
        <pt x="269" y="-209" on="1"/>
        <pt x="229" y="-209" on="0"/>
        <pt x="175" y="-185" on="0"/>
        <pt x="163" y="-168" on="1"/>
        <pt x="208" y="-123" on="1"/>
        <pt x="215" y="-132" on="0"/>
        <pt x="245" y="-149" on="0"/>
        <pt x="267" y="-149" on="1"/>
        <pt x="289" y="-149" on="0"/>
        <pt x="315" y="-130" on="0"/>
        <pt x="315" y="-115" on="1"/>
        <pt x="315" y="-101" on="0"/>
        <pt x="289" y="-80" on="0"/>
        <pt x="255" y="-77" on="1"/>
        <pt x="231" y="-75" on="1"/>
        <pt x="254" y="-9" on="1"/>
        <pt x="210" y="-2" on="0"/>
        <pt x="137" y="40" on="0"/>
        <pt x="85" y="110" on="0"/>
        <pt x="56" y="207" on="0"/>
        <pt x="56" y="269" on="1"/>
        <pt x="56" y="360" on="0"/>
        <pt x="107" y="521" on="0"/>
        <pt x="199" y="641" on="0"/>
        <pt x="326" y="710" on="0"/>
        <pt x="402" y="710" on="1"/>
        <pt x="578" y="710" on="0"/>
        <pt x="630" y="546" on="1"/>
        <pt x="533" y="504" on="1"/>
        <pt x="517" y="555" on="0"/>
        <pt x="454" y="613" on="0"/>
      </contour>
    </TTGlyph>
    <TTGlyph name="Ccircumflex" xMin="56" yMin="-12" xMax="630" yMax="944">
      <component glyphName="C" x="0" y="0" flags="0x204"/>
      <component glyphName="circumflex.case" x="113" y="0" flags="0x4"/>
    </TTGlyph>
    <TTGlyph name="Cdotaccent" xMin="56" yMin="-12" xMax="630" yMax="904">
      <component glyphName="C" x="0" y="0" flags="0x204"/>
      <component glyphName="dotaccent.case" x="112" y="0" flags="0x4"/>
    </TTGlyph>
    <TTGlyph name="Chi" xMin="-31" yMin="0" xMax="676" yMax="698">
      <component glyphName="X" x="0" y="0" flags="0x204"/>
    </TTGlyph>
    <TTGlyph name="D" xMin="32" yMin="0" xMax="636" yMax="698">
      <contour>
        <pt x="172" y="698" on="1"/>
        <pt x="385" y="698" on="1"/>
        <pt x="502" y="698" on="0"/>
        <pt x="636" y="563" on="0"/>
        <pt x="636" y="431" on="1"/>
        <pt x="636" y="345" on="0"/>
        <pt x="589" y="189" on="0"/>
        <pt x="499" y="70" on="0"/>
        <pt x="366" y="0" on="0"/>
        <pt x="281" y="0" on="1"/>
        <pt x="32" y="0" on="1"/>
      </contour>
      <contour>
        <pt x="287" y="97" on="1"/>
        <pt x="368" y="97" on="0"/>
        <pt x="479" y="195" on="0"/>
        <pt x="499" y="292" on="1"/>
        <pt x="519" y="392" on="1"/>
        <pt x="522" y="409" on="0"/>
        <pt x="525" y="442" on="0"/>
        <pt x="525" y="454" on="1"/>
        <pt x="525" y="529" on="0"/>
        <pt x="450" y="601" on="0"/>
        <pt x="387" y="601" on="1"/>
        <pt x="261" y="601" on="1"/>
        <pt x="160" y="97" on="1"/>
      </contour>
    </TTGlyph>
    <TTGlyph name="Dcaron" xMin="32" yMin="0" xMax="636" yMax="953">
      <component glyphName="D" x="0" y="0" flags="0x204"/>
      <component glyphName="caron.case" x="92" y="0" flags="0x4"/>
    </TTGlyph>
    <TTGlyph name="Dcroat" xMin="25" yMin="0" xMax="640" yMax="698">
      <contour>
        <pt x="100" y="319" on="1"/>
        <pt x="25" y="319" on="1"/>
        <pt x="42" y="403" on="1"/>
        <pt x="117" y="403" on="1"/>
        <pt x="176" y="698" on="1"/>
        <pt x="389" y="698" on="1"/>
        <pt x="506" y="698" on="0"/>
        <pt x="640" y="563" on="0"/>
        <pt x="640" y="431" on="1"/>
        <pt x="640" y="345" on="0"/>
        <pt x="593" y="189" on="0"/>
        <pt x="502" y="70" on="0"/>
        <pt x="369" y="0" on="0"/>
        <pt x="284" y="0" on="1"/>
        <pt x="36" y="0" on="1"/>
      </contour>
      <contour>
        <pt x="291" y="97" on="1"/>
        <pt x="372" y="97" on="0"/>
        <pt x="483" y="195" on="0"/>
        <pt x="503" y="292" on="1"/>
        <pt x="523" y="392" on="1"/>
        <pt x="526" y="409" on="0"/>
        <pt x="529" y="442" on="0"/>
        <pt x="529" y="454" on="1"/>
        <pt x="529" y="529" on="0"/>
        <pt x="454" y="601" on="0"/>
        <pt x="390" y="601" on="1"/>
        <pt x="265" y="601" on="1"/>
        <pt x="226" y="403" on="1"/>
        <pt x="350" y="403" on="1"/>
        <pt x="333" y="319" on="1"/>
        <pt x="209" y="319" on="1"/>
        <pt x="164" y="97" on="1"/>
      </contour>
    </TTGlyph>
    <TTGlyph name="Delta" xMin="-8" yMin="0" xMax="568" yMax="698">
      <contour>
        <pt x="11" y="95" on="1"/>
        <pt x="340" y="698" on="1"/>
        <pt x="480" y="698" on="1"/>
        <pt x="568" y="95" on="1"/>
        <pt x="549" y="0" on="1"/>
        <pt x="-8" y="0" on="1"/>
      </contour>
      <contour>
        <pt x="393" y="598" on="1"/>
        <pt x="387" y="598" on="1"/>
        <pt x="124" y="96" on="1"/>
        <pt x="459" y="96" on="1"/>
      </contour>
    </TTGlyph>
    <TTGlyph name="E" xMin="32" yMin="0" xMax="599" yMax="698">
      <contour>
        <pt x="32" y="0" on="1"/>
        <pt x="172" y="698" on="1"/>
        <pt x="599" y="698" on="1"/>
        <pt x="579" y="602" on="1"/>
        <pt x="261" y="602" on="1"/>
        <pt x="221" y="400" on="1"/>
        <pt x="505" y="400" on="1"/>
        <pt x="486" y="304" on="1"/>
        <pt x="202" y="304" on="1"/>
        <pt x="160" y="96" on="1"/>
        <pt x="492" y="96" on="1"/>
        <pt x="473" y="0" on="1"/>
      </contour>
    </TTGlyph>
    <TTGlyph name="Eacute" xMin="32" yMin="0" xMax="599" yMax="962">
      <component glyphName="E" x="0" y="0" flags="0x204"/>
      <component glyphName="acute.case" x="89" y="0" flags="0x4"/>
    </TTGlyph>
    <TTGlyph name="Ebreve" xMin="32" yMin="0" xMax="599" yMax="934">
      <component glyphName="E" x="0" y="0" flags="0x204"/>
      <component glyphName="breve.case" x="89" y="0" flags="0x4"/>
    </TTGlyph>
    <TTGlyph name="Ecaron" xMin="32" yMin="0" xMax="599" yMax="953">
      <component glyphName="E" x="0" y="0" flags="0x204"/>
      <component glyphName="caron.case" x="88" y="0" flags="0x4"/>
    </TTGlyph>
    <TTGlyph name="Ecircumflex" xMin="32" yMin="0" xMax="599" yMax="944">
      <component glyphName="E" x="0" y="0" flags="0x204"/>
      <component glyphName="circumflex.case" x="89" y="0" flags="0x4"/>
    </TTGlyph>
    <TTGlyph name="Edieresis" xMin="32" yMin="0" xMax="599" yMax="902">
      <component glyphName="E" x="0" y="0" flags="0x204"/>
      <component glyphName="dieresis.case" x="89" y="0" flags="0x4"/>
    </TTGlyph>
    <TTGlyph name="Edotaccent" xMin="32" yMin="0" xMax="599" yMax="904">
      <component glyphName="E" x="0" y="0" flags="0x204"/>
      <component glyphName="dotaccent.case" x="88" y="0" flags="0x4"/>
    </TTGlyph>
    <TTGlyph name="Egrave" xMin="32" yMin="0" xMax="599" yMax="961">
      <component glyphName="E" x="0" y="0" flags="0x204"/>
      <component glyphName="grave.case" x="89" y="0" flags="0x4"/>
    </TTGlyph>
    <TTGlyph name="Emacron" xMin="32" yMin="0" xMax="599" yMax="881">
      <component glyphName="E" x="0" y="0" flags="0x204"/>
      <component glyphName="macron.case" x="89" y="0" flags="0x4"/>
    </TTGlyph>
    <TTGlyph name="Eng" xMin="32" yMin="-200" xMax="694" yMax="698">
      <contour>
        <pt x="32" y="0" on="1"/>
        <pt x="172" y="698" on="1"/>
        <pt x="292" y="698" on="1"/>
        <pt x="428" y="313" on="1"/>
        <pt x="477" y="158" on="1"/>
        <pt x="483" y="158" on="1"/>
        <pt x="591" y="698" on="1"/>
        <pt x="694" y="698" on="1"/>
        <pt x="538" y="-80" on="1"/>
        <pt x="525" y="-142" on="0"/>
        <pt x="461" y="-200" on="0"/>
        <pt x="401" y="-200" on="1"/>
        <pt x="323" y="-200" on="1"/>
        <pt x="341" y="-112" on="1"/>
        <pt x="429" y="-112" on="1"/>
        <pt x="451" y="0" on="1"/>
        <pt x="434" y="0" on="1"/>
        <pt x="298" y="385" on="1"/>
        <pt x="249" y="540" on="1"/>
        <pt x="243" y="540" on="1"/>
        <pt x="135" y="0" on="1"/>
      </contour>
    </TTGlyph>
    <TTGlyph name="Eogonek" xMin="32" yMin="-209" xMax="599" yMax="698">
      <contour>
        <pt x="172" y="698" on="1"/>
        <pt x="599" y="698" on="1"/>
        <pt x="580" y="602" on="1"/>
        <pt x="261" y="602" on="1"/>
        <pt x="221" y="400" on="1"/>
        <pt x="505" y="400" on="1"/>
        <pt x="486" y="304" on="1"/>
        <pt x="202" y="304" on="1"/>
        <pt x="160" y="96" on="1"/>
        <pt x="492" y="96" on="1"/>
        <pt x="473" y="0" on="1"/>
        <pt x="433" y="-26" on="0"/>
        <pt x="386" y="-63" on="0"/>
        <pt x="362" y="-90" on="0"/>
        <pt x="355" y="-110" on="0"/>
        <pt x="355" y="-117" on="1"/>
        <pt x="355" y="-147" on="0"/>
        <pt x="389" y="-147" on="1"/>
        <pt x="403" y="-147" on="0"/>
        <pt x="431" y="-135" on="0"/>
        <pt x="443" y="-120" on="1"/>
        <pt x="486" y="-167" on="1"/>
        <pt x="471" y="-184" on="0"/>
        <pt x="418" y="-209" on="0"/>
        <pt x="378" y="-209" on="1"/>
        <pt x="357" y="-209" on="0"/>
        <pt x="318" y="-200" on="0"/>
        <pt x="289" y="-181" on="0"/>
        <pt x="272" y="-151" on="0"/>
        <pt x="272" y="-131" on="1"/>
        <pt x="272" y="-51" on="0"/>
        <pt x="402" y="-5" on="1"/>
        <pt x="401" y="0" on="1"/>
        <pt x="32" y="0" on="1"/>
      </contour>
    </TTGlyph>
    <TTGlyph name="Epsilon" xMin="32" yMin="0" xMax="599" yMax="698">
      <component glyphName="E" x="0" y="0" flags="0x204"/>
    </TTGlyph>
    <TTGlyph name="Epsilontonos" xMin="55" yMin="0" xMax="659" yMax="795">
      <component glyphName="E" x="60" y="0" flags="0x4"/>
      <component glyphName="tonos.case" x="-245" y="0" flags="0x4"/>
    </TTGlyph>
    <TTGlyph name="Eta" xMin="32" yMin="0" xMax="694" yMax="698">
      <component glyphName="H" x="0" y="0" flags="0x204"/>
    </TTGlyph>
    <TTGlyph name="Etatonos" xMin="55" yMin="0" xMax="754" yMax="795">
      <component glyphName="H" x="60" y="0" flags="0x4"/>
      <component glyphName="tonos.case" x="-245" y="0" flags="0x4"/>
    </TTGlyph>
    <TTGlyph name="Eth" xMin="25" yMin="0" xMax="640" yMax="698">
      <component glyphName="Dcroat" x="0" y="0" flags="0x204"/>
    </TTGlyph>
    <TTGlyph name="Euro" xMin="55" yMin="-12" xMax="621" yMax="710">
      <contour>
        <pt x="290" y="-12" on="1"/>
        <pt x="240" y="-12" on="0"/>
        <pt x="155" y="24" on="0"/>
        <pt x="91" y="96" on="0"/>
        <pt x="55" y="202" on="0"/>
        <pt x="55" y="272" on="1"/>
        <pt x="55" y="366" on="0"/>
        <pt x="109" y="527" on="0"/>
        <pt x="203" y="644" on="0"/>
        <pt x="328" y="710" on="0"/>
        <pt x="399" y="710" on="1"/>
        <pt x="484" y="710" on="0"/>
        <pt x="596" y="639" on="0"/>
        <pt x="621" y="570" on="1"/>
        <pt x="533" y="518" on="1"/>
        <pt x="517" y="567" on="0"/>
        <pt x="452" y="618" on="0"/>
        <pt x="392" y="618" on="1"/>
        <pt x="328" y="618" on="0"/>
        <pt x="230" y="537" on="0"/>
        <pt x="205" y="467" on="1"/>
        <pt x="447" y="467" on="1"/>
        <pt x="431" y="391" on="1"/>
        <pt x="187" y="391" on="1"/>
        <pt x="170" y="307" on="1"/>
        <pt x="415" y="307" on="1"/>
        <pt x="399" y="231" on="1"/>
        <pt x="163" y="231" on="1"/>
        <pt x="166" y="162" on="0"/>
        <pt x="240" y="80" on="0"/>
        <pt x="301" y="80" on="1"/>
        <pt x="335" y="80" on="0"/>
        <pt x="387" y="96" on="0"/>
        <pt x="429" y="126" on="0"/>
        <pt x="462" y="167" on="0"/>
        <pt x="476" y="192" on="1"/>
        <pt x="546" y="133" on="1"/>
        <pt x="502" y="64" on="0"/>
        <pt x="383" y="-12" on="0"/>
      </contour>
    </TTGlyph>
    <TTGlyph name="F" xMin="32" yMin="0" xMax="588" yMax="698">
      <contour>
        <pt x="32" y="0" on="1"/>
        <pt x="172" y="698" on="1"/>
        <pt x="588" y="698" on="1"/>
        <pt x="568" y="602" on="1"/>
        <pt x="261" y="602" on="1"/>
        <pt x="221" y="400" on="1"/>
        <pt x="498" y="400" on="1"/>
        <pt x="479" y="304" on="1"/>
        <pt x="202" y="304" on="1"/>
        <pt x="140" y="0" on="1"/>
      </contour>
    </TTGlyph>
    <TTGlyph name="G" xMin="56" yMin="-12" xMax="656" yMax="710">
      <contour>
        <pt x="483" y="106" on="1"/>
        <pt x="477" y="106" on="1"/>
        <pt x="453" y="57" on="0"/>
        <pt x="355" y="-12" on="0"/>
        <pt x="281" y="-12" on="1"/>
        <pt x="231" y="-12" on="0"/>
        <pt x="149" y="24" on="0"/>
        <pt x="89" y="94" on="0"/>
        <pt x="56" y="198" on="0"/>
        <pt x="56" y="267" on="1"/>
        <pt x="56" y="358" on="0"/>
        <pt x="105" y="519" on="0"/>
        <pt x="197" y="640" on="0"/>
        <pt x="330" y="710" on="0"/>
        <pt x="413" y="710" on="1"/>
        <pt x="505" y="710" on="0"/>
        <pt x="633" y="625" on="0"/>
        <pt x="656" y="548" on="1"/>
        <pt x="562" y="502" on="1"/>
        <pt x="545" y="555" on="0"/>
        <pt x="467" y="613" on="0"/>
        <pt x="404" y="613" on="1"/>
        <pt x="319" y="613" on="0"/>
        <pt x="210" y="506" on="0"/>
        <pt x="192" y="413" on="1"/>
        <pt x="171" y="306" on="1"/>
        <pt x="165" y="276" on="0"/>
        <pt x="165" y="248" on="1"/>
        <pt x="165" y="169" on="0"/>
        <pt x="244" y="85" on="0"/>
        <pt x="310" y="85" on="1"/>
        <pt x="379" y="85" on="0"/>
        <pt x="484" y="162" on="0"/>
        <pt x="498" y="231" on="1"/>
        <pt x="507" y="277" on="1"/>
        <pt x="368" y="277" on="1"/>
        <pt x="387" y="371" on="1"/>
        <pt x="630" y="371" on="1"/>
        <pt x="556" y="0" on="1"/>
        <pt x="461" y="0" on="1"/>
      </contour>
    </TTGlyph>
    <TTGlyph name="Gamma" xMin="32" yMin="0" xMax="550" yMax="698">
      <component glyphName="uni0413" x="0" y="0" flags="0x204"/>
    </TTGlyph>
    <TTGlyph name="Gbreve" xMin="56" yMin="-12" xMax="656" yMax="934">
      <component glyphName="G" x="0" y="0" flags="0x204"/>
      <component glyphName="breve.case" x="127" y="0" flags="0x4"/>
    </TTGlyph>
    <TTGlyph name="Gcircumflex" xMin="56" yMin="-12" xMax="656" yMax="944">
      <component glyphName="G" x="0" y="0" flags="0x204"/>
      <component glyphName="circumflex.case" x="127" y="0" flags="0x4"/>
    </TTGlyph>
    <TTGlyph name="Gcommaaccent" xMin="56" yMin="-258" xMax="656" yMax="710">
      <component glyphName="G" x="0" y="0" flags="0x204"/>
      <component glyphName="uni0326" x="283" y="0" flags="0x4"/>
    </TTGlyph>
    <TTGlyph name="Gdotaccent" xMin="56" yMin="-12" xMax="656" yMax="904">
      <component glyphName="G" x="0" y="0" flags="0x204"/>
      <component glyphName="dotaccent.case" x="126" y="0" flags="0x4"/>
    </TTGlyph>
    <TTGlyph name="H" xMin="32" yMin="0" xMax="694" yMax="698">
      <contour>
        <pt x="508" y="304" on="1"/>
        <pt x="202" y="304" on="1"/>
        <pt x="140" y="0" on="1"/>
        <pt x="32" y="0" on="1"/>
        <pt x="172" y="698" on="1"/>
        <pt x="280" y="698" on="1"/>
        <pt x="221" y="400" on="1"/>
        <pt x="527" y="400" on="1"/>
        <pt x="586" y="698" on="1"/>
        <pt x="694" y="698" on="1"/>
        <pt x="554" y="0" on="1"/>
        <pt x="446" y="0" on="1"/>
      </contour>
    </TTGlyph>
    <TTGlyph name="Hbar" xMin="36" yMin="0" xMax="746" yMax="698">
      <contour>
        <pt x="512" y="304" on="1"/>
        <pt x="206" y="304" on="1"/>
        <pt x="144" y="0" on="1"/>
        <pt x="36" y="0" on="1"/>
        <pt x="139" y="517" on="1"/>
        <pt x="70" y="517" on="1"/>
        <pt x="87" y="599" on="1"/>
        <pt x="156" y="599" on="1"/>
        <pt x="176" y="698" on="1"/>
        <pt x="284" y="698" on="1"/>
        <pt x="264" y="599" on="1"/>
        <pt x="570" y="599" on="1"/>
        <pt x="590" y="698" on="1"/>
        <pt x="698" y="698" on="1"/>
        <pt x="678" y="599" on="1"/>
        <pt x="746" y="599" on="1"/>
        <pt x="730" y="517" on="1"/>
        <pt x="661" y="517" on="1"/>
        <pt x="558" y="0" on="1"/>
        <pt x="450" y="0" on="1"/>
      </contour>
      <contour>
        <pt x="531" y="400" on="1"/>
        <pt x="553" y="517" on="1"/>
        <pt x="248" y="517" on="1"/>
        <pt x="225" y="400" on="1"/>
      </contour>
    </TTGlyph>
    <TTGlyph name="Hcircumflex" xMin="32" yMin="0" xMax="694" yMax="944">
      <component glyphName="H" x="0" y="0" flags="0x204"/>
      <component glyphName="circumflex.case" x="137" y="0" flags="0x4"/>
    </TTGlyph>
    <TTGlyph name="I" xMin="3" yMin="0" xMax="431" yMax="698">
      <contour>
        <pt x="3" y="0" on="1"/>
        <pt x="21" y="90" on="1"/>
        <pt x="111" y="90" on="1"/>
        <pt x="215" y="608" on="1"/>
        <pt x="125" y="608" on="1"/>
        <pt x="143" y="698" on="1"/>
        <pt x="431" y="698" on="1"/>
        <pt x="413" y="608" on="1"/>
        <pt x="323" y="608" on="1"/>
        <pt x="219" y="90" on="1"/>
        <pt x="309" y="90" on="1"/>
        <pt x="291" y="0" on="1"/>
      </contour>
    </TTGlyph>
    <TTGlyph name="IJ" xMin="70" yMin="-12" xMax="646" yMax="698">
      <contour>
        <pt x="646" y="698" on="1"/>
        <pt x="549" y="217" on="1"/>
        <pt x="527" y="108" on="0"/>
        <pt x="389" y="-12" on="0"/>
        <pt x="278" y="-12" on="1"/>
        <pt x="231" y="-12" on="0"/>
        <pt x="155" y="14" on="0"/>
        <pt x="100" y="62" on="0"/>
        <pt x="70" y="127" on="0"/>
        <pt x="70" y="166" on="1"/>
        <pt x="172" y="189" on="1"/>
        <pt x="173" y="139" on="0"/>
        <pt x="231" y="87" on="0"/>
        <pt x="286" y="87" on="1"/>
        <pt x="348" y="87" on="0"/>
        <pt x="428" y="156" on="0"/>
        <pt x="442" y="224" on="1"/>
        <pt x="518" y="606" on="1"/>
        <pt x="391" y="606" on="1"/>
        <pt x="409" y="698" on="1"/>
      </contour>
      <contour>
        <pt x="170" y="698" on="1"/>
        <pt x="279" y="698" on="1"/>
        <pt x="199" y="298" on="1"/>
        <pt x="90" y="298" on="1"/>
      </contour>
    </TTGlyph>
    <TTGlyph name="IJacute" xMin="70" yMin="-12" xMax="687" yMax="962">
      <component glyphName="IJ" x="0" y="0" flags="0x4"/>
      <component glyphName="acute.case" x="-66" y="0" flags="0x4"/>
      <component glyphName="acute.case" x="236" y="0" flags="0x4"/>
    </TTGlyph>
    <TTGlyph name="Iacute" xMin="3" yMin="0" xMax="445" yMax="962">
      <component glyphName="I" x="0" y="0" flags="0x204"/>
      <component glyphName="acute.case" x="-6" y="0" flags="0x4"/>
    </TTGlyph>
    <TTGlyph name="Ibreve" xMin="3" yMin="0" xMax="490" yMax="934">
      <component glyphName="I" x="0" y="0" flags="0x204"/>
      <component glyphName="breve.case" x="-6" y="0" flags="0x4"/>
    </TTGlyph>
    <TTGlyph name="Icircumflex" xMin="3" yMin="0" xMax="471" yMax="944">
      <component glyphName="I" x="0" y="0" flags="0x204"/>
      <component glyphName="circumflex.case" x="-6" y="0" flags="0x4"/>
    </TTGlyph>
    <TTGlyph name="Idieresis" xMin="3" yMin="0" xMax="468" yMax="902">
      <component glyphName="I" x="0" y="0" flags="0x204"/>
      <component glyphName="dieresis.case" x="-6" y="0" flags="0x4"/>
    </TTGlyph>
    <TTGlyph name="Idotaccent" xMin="3" yMin="0" xMax="431" yMax="904">
      <component glyphName="I" x="0" y="0" flags="0x204"/>
      <component glyphName="dotaccent.case" x="-7" y="0" flags="0x4"/>
    </TTGlyph>
    <TTGlyph name="Igrave" xMin="3" yMin="0" xMax="431" yMax="961">
      <component glyphName="I" x="0" y="0" flags="0x204"/>
      <component glyphName="grave.case" x="-6" y="0" flags="0x4"/>
    </TTGlyph>
    <TTGlyph name="Imacron" xMin="3" yMin="0" xMax="458" yMax="881">
      <component glyphName="I" x="0" y="0" flags="0x204"/>
      <component glyphName="macron.case" x="-6" y="0" flags="0x4"/>
    </TTGlyph>
    <TTGlyph name="Iogonek" xMin="3" yMin="-209" xMax="431" yMax="698">
      <contour>
        <pt x="21" y="90" on="1"/>
        <pt x="111" y="90" on="1"/>
        <pt x="215" y="608" on="1"/>
        <pt x="125" y="608" on="1"/>
        <pt x="143" y="698" on="1"/>
        <pt x="431" y="698" on="1"/>
        <pt x="413" y="608" on="1"/>
        <pt x="323" y="608" on="1"/>
        <pt x="219" y="90" on="1"/>
        <pt x="309" y="90" on="1"/>
        <pt x="291" y="0" on="1"/>
        <pt x="251" y="-26" on="0"/>
        <pt x="204" y="-63" on="0"/>
        <pt x="180" y="-90" on="0"/>
        <pt x="173" y="-110" on="0"/>
        <pt x="173" y="-117" on="1"/>
        <pt x="173" y="-147" on="0"/>
        <pt x="207" y="-147" on="1"/>
        <pt x="221" y="-147" on="0"/>
        <pt x="249" y="-135" on="0"/>
        <pt x="261" y="-120" on="1"/>
        <pt x="304" y="-167" on="1"/>
        <pt x="289" y="-184" on="0"/>
        <pt x="236" y="-209" on="0"/>
        <pt x="196" y="-209" on="1"/>
        <pt x="175" y="-209" on="0"/>
        <pt x="136" y="-200" on="0"/>
        <pt x="107" y="-181" on="0"/>
        <pt x="90" y="-151" on="0"/>
        <pt x="90" y="-131" on="1"/>
        <pt x="90" y="-91" on="0"/>
        <pt x="157" y="-28" on="0"/>
        <pt x="221" y="-5" on="1"/>
        <pt x="220" y="0" on="1"/>
        <pt x="3" y="0" on="1"/>
      </contour>
    </TTGlyph>
    <TTGlyph name="Iota" xMin="3" yMin="0" xMax="431" yMax="698">
      <component glyphName="I" x="0" y="0" flags="0x204"/>
    </TTGlyph>
    <TTGlyph name="Iotadieresis" xMin="3" yMin="0" xMax="468" yMax="902">
      <component glyphName="I" x="0" y="0" flags="0x204"/>
      <component glyphName="dieresis.case" x="-6" y="0" flags="0x4"/>
    </TTGlyph>
    <TTGlyph name="Iotatonos" xMin="55" yMin="0" xMax="520" yMax="795">
      <component glyphName="I" x="89" y="0" flags="0x4"/>
      <component glyphName="tonos.case" x="-245" y="0" flags="0x4"/>
    </TTGlyph>
    <TTGlyph name="Itilde" xMin="3" yMin="0" xMax="484" yMax="904">
      <component glyphName="I" x="0" y="0" flags="0x204"/>
      <component glyphName="tilde.case" x="-7" y="0" flags="0x4"/>
    </TTGlyph>
    <TTGlyph name="J" xMin="4" yMin="-12" xMax="518" yMax="698">
      <contour>
        <pt x="518" y="698" on="1"/>
        <pt x="415" y="186" on="1"/>
        <pt x="396" y="92" on="0"/>
        <pt x="283" y="-12" on="0"/>
        <pt x="190" y="-12" on="1"/>
        <pt x="105" y="-12" on="0"/>
        <pt x="9" y="85" on="0"/>
        <pt x="4" y="165" on="1"/>
        <pt x="105" y="185" on="1"/>
        <pt x="108" y="140" on="0"/>
        <pt x="148" y="85" on="0"/>
        <pt x="192" y="85" on="1"/>
        <pt x="238" y="85" on="0"/>
        <pt x="297" y="139" on="0"/>
        <pt x="309" y="199" on="1"/>
        <pt x="390" y="606" on="1"/>
        <pt x="169" y="606" on="1"/>
        <pt x="188" y="698" on="1"/>
      </contour>
    </TTGlyph>
    <TTGlyph name="Jacute" xMin="4" yMin="-12" xMax="518" yMax="962">
      <component glyphName="J" x="0" y="0" flags="0x204"/>
      <component glyphName="acute.case" x="58" y="0" flags="0x4"/>
    </TTGlyph>
    <TTGlyph name="Jcircumflex" xMin="4" yMin="-12" xMax="535" yMax="944">
      <component glyphName="J" x="0" y="0" flags="0x204"/>
      <component glyphName="circumflex.case" x="58" y="0" flags="0x4"/>
    </TTGlyph>
    <TTGlyph name="K" xMin="32" yMin="0" xMax="689" yMax="698">
      <contour>
        <pt x="303" y="324" on="1"/>
        <pt x="182" y="208" on="1"/>
        <pt x="140" y="0" on="1"/>
        <pt x="32" y="0" on="1"/>
        <pt x="172" y="698" on="1"/>
        <pt x="281" y="698" on="1"/>
        <pt x="211" y="351" on="1"/>
        <pt x="217" y="351" on="1"/>
        <pt x="332" y="473" on="1"/>
        <pt x="555" y="698" on="1"/>
        <pt x="689" y="698" on="1"/>
        <pt x="387" y="396" on="1"/>
        <pt x="569" y="0" on="1"/>
        <pt x="450" y="0" on="1"/>
      </contour>
    </TTGlyph>
    <TTGlyph name="Kappa" xMin="32" yMin="0" xMax="689" yMax="698">
      <component glyphName="K" x="0" y="0" flags="0x204"/>
    </TTGlyph>
    <TTGlyph name="Kcommaaccent" xMin="32" yMin="-258" xMax="689" yMax="698">
      <component glyphName="K" x="0" y="0" flags="0x204"/>
      <component glyphName="uni0326" x="275" y="0" flags="0x4"/>
    </TTGlyph>
    <TTGlyph name="L" xMin="32" yMin="0" xMax="434" yMax="698">
      <contour>
        <pt x="32" y="0" on="1"/>
        <pt x="172" y="698" on="1"/>
        <pt x="281" y="698" on="1"/>
        <pt x="160" y="96" on="1"/>
        <pt x="434" y="96" on="1"/>
        <pt x="415" y="0" on="1"/>
      </contour>
    </TTGlyph>
    <TTGlyph name="Lacute" xMin="32" yMin="0" xMax="434" yMax="962">
      <component glyphName="L" x="0" y="0" flags="0x204"/>
      <component glyphName="acute.case" x="-64" y="0" flags="0x4"/>
    </TTGlyph>
    <TTGlyph name="Lambda" xMin="-31" yMin="0" xMax="551" yMax="698">
      <contour>
        <pt x="465" y="698" on="1"/>
        <pt x="551" y="0" on="1"/>
        <pt x="441" y="0" on="1"/>
        <pt x="408" y="315" on="1"/>
        <pt x="382" y="588" on="1"/>
        <pt x="376" y="588" on="1"/>
        <pt x="248" y="326" on="1"/>
        <pt x="84" y="0" on="1"/>
        <pt x="-31" y="0" on="1"/>
        <pt x="334" y="698" on="1"/>
      </contour>
    </TTGlyph>
    <TTGlyph name="Lcaron" xMin="32" yMin="0" xMax="486" yMax="740">
      <component glyphName="L" x="0" y="0" flags="0x204"/>
      <component glyphName="uni02BC" x="68" y="0" flags="0x4"/>
    </TTGlyph>
    <TTGlyph name="Lcommaaccent" xMin="32" yMin="-258" xMax="434" yMax="698">
      <component glyphName="L" x="0" y="0" flags="0x204"/>
      <component glyphName="uni0326" x="223" y="0" flags="0x4"/>
    </TTGlyph>
    <TTGlyph name="Ldot" xMin="32" yMin="0" xMax="470" yMax="698">
      <component glyphName="L" x="0" y="0" flags="0x204"/>
      <component glyphName="dotaccent" x="85" y="-307" flags="0x4"/>
    </TTGlyph>
    <TTGlyph name="Lslash" xMin="-5" yMin="0" xMax="438" yMax="698">
      <contour>
        <pt x="419" y="0" on="1"/>
        <pt x="37" y="0" on="1"/>
        <pt x="90" y="261" on="1"/>
        <pt x="-5" y="232" on="1"/>
        <pt x="12" y="319" on="1"/>
        <pt x="107" y="349" on="1"/>
        <pt x="177" y="698" on="1"/>
        <pt x="285" y="698" on="1"/>
        <pt x="223" y="384" on="1"/>
        <pt x="402" y="441" on="1"/>
        <pt x="384" y="350" on="1"/>
        <pt x="205" y="295" on="1"/>
        <pt x="165" y="96" on="1"/>
        <pt x="438" y="96" on="1"/>
      </contour>
    </TTGlyph>
    <TTGlyph name="M" xMin="32" yMin="0" xMax="795" yMax="698">
      <contour>
        <pt x="657" y="533" on="1"/>
        <pt x="652" y="533" on="1"/>
        <pt x="565" y="408" on="1"/>
        <pt x="375" y="144" on="1"/>
        <pt x="286" y="415" on="1"/>
        <pt x="248" y="533" on="1"/>
        <pt x="243" y="533" on="1"/>
        <pt x="137" y="0" on="1"/>
        <pt x="32" y="0" on="1"/>
        <pt x="172" y="698" on="1"/>
        <pt x="297" y="698" on="1"/>
        <pt x="408" y="339" on="1"/>
        <pt x="411" y="339" on="1"/>
        <pt x="661" y="698" on="1"/>
        <pt x="795" y="698" on="1"/>
        <pt x="655" y="0" on="1"/>
        <pt x="550" y="0" on="1"/>
      </contour>
    </TTGlyph>
    <TTGlyph name="Mu" xMin="32" yMin="0" xMax="795" yMax="698">
      <component glyphName="M" x="0" y="0" flags="0x204"/>
    </TTGlyph>
    <TTGlyph name="N" xMin="32" yMin="0" xMax="694" yMax="698">
      <contour>
        <pt x="298" y="385" on="1"/>
        <pt x="249" y="540" on="1"/>
        <pt x="243" y="540" on="1"/>
        <pt x="135" y="0" on="1"/>
        <pt x="32" y="0" on="1"/>
        <pt x="172" y="698" on="1"/>
        <pt x="292" y="698" on="1"/>
        <pt x="428" y="313" on="1"/>
        <pt x="477" y="158" on="1"/>
        <pt x="483" y="158" on="1"/>
        <pt x="591" y="698" on="1"/>
        <pt x="694" y="698" on="1"/>
        <pt x="554" y="0" on="1"/>
        <pt x="434" y="0" on="1"/>
      </contour>
    </TTGlyph>
    <TTGlyph name="Nacute" xMin="32" yMin="0" xMax="694" yMax="962">
      <component glyphName="N" x="0" y="0" flags="0x204"/>
      <component glyphName="acute.case" x="141" y="0" flags="0x4"/>
    </TTGlyph>
    <TTGlyph name="Ncaron" xMin="32" yMin="0" xMax="694" yMax="953">
      <component glyphName="N" x="0" y="0" flags="0x204"/>
      <component glyphName="caron.case" x="140" y="0" flags="0x4"/>
    </TTGlyph>
    <TTGlyph name="Ncommaaccent" xMin="32" yMin="-258" xMax="694" yMax="698">
      <component glyphName="N" x="0" y="0" flags="0x204"/>
      <component glyphName="uni0326" x="293" y="0" flags="0x4"/>
    </TTGlyph>
    <TTGlyph name="Ntilde" xMin="32" yMin="0" xMax="694" yMax="904">
      <component glyphName="N" x="0" y="0" flags="0x204"/>
      <component glyphName="tilde.case" x="140" y="0" flags="0x4"/>
    </TTGlyph>
    <TTGlyph name="Nu" xMin="32" yMin="0" xMax="694" yMax="698">
      <component glyphName="N" x="0" y="0" flags="0x204"/>
    </TTGlyph>
    <TTGlyph name="O" xMin="56" yMin="-12" xMax="660" yMax="710">
      <contour>
        <pt x="303" y="-12" on="1"/>
        <pt x="252" y="-12" on="0"/>
        <pt x="162" y="22" on="0"/>
        <pt x="95" y="91" on="0"/>
        <pt x="56" y="195" on="0"/>
        <pt x="56" y="265" on="1"/>
        <pt x="56" y="353" on="0"/>
        <pt x="106" y="514" on="0"/>
        <pt x="199" y="637" on="0"/>
        <pt x="331" y="710" on="0"/>
        <pt x="412" y="710" on="1"/>
        <pt x="463" y="710" on="0"/>
        <pt x="554" y="676" on="0"/>
        <pt x="621" y="607" on="0"/>
        <pt x="660" y="503" on="0"/>
        <pt x="660" y="433" on="1"/>
        <pt x="660" y="345" on="0"/>
        <pt x="609" y="184" on="0"/>
        <pt x="516" y="61" on="0"/>
        <pt x="384" y="-12" on="0"/>
      </contour>
      <contour>
        <pt x="313" y="85" on="1"/>
        <pt x="397" y="85" on="0"/>
        <pt x="503" y="192" on="0"/>
        <pt x="523" y="290" on="1"/>
        <pt x="545" y="396" on="1"/>
        <pt x="549" y="413" on="0"/>
        <pt x="551" y="445" on="0"/>
        <pt x="551" y="458" on="1"/>
        <pt x="551" y="531" on="0"/>
        <pt x="475" y="613" on="0"/>
        <pt x="404" y="613" on="1"/>
        <pt x="321" y="613" on="0"/>
        <pt x="212" y="505" on="0"/>
        <pt x="192" y="406" on="1"/>
        <pt x="171" y="302" on="1"/>
        <pt x="167" y="284" on="0"/>
        <pt x="165" y="253" on="0"/>
        <pt x="165" y="240" on="1"/>
        <pt x="165" y="167" on="0"/>
        <pt x="241" y="85" on="0"/>
      </contour>
    </TTGlyph>
    <TTGlyph name="OE" xMin="56" yMin="-12" xMax="975" yMax="710">
      <contour>
        <pt x="409" y="0" on="1"/>
        <pt x="381" y="-5" on="0"/>
        <pt x="324" y="-12" on="0"/>
        <pt x="300" y="-12" on="1"/>
        <pt x="247" y="-12" on="0"/>
        <pt x="158" y="23" on="0"/>
        <pt x="93" y="94" on="0"/>
        <pt x="56" y="200" on="0"/>
        <pt x="56" y="271" on="1"/>
        <pt x="56" y="359" on="0"/>
        <pt x="106" y="519" on="0"/>
        <pt x="201" y="639" on="0"/>
        <pt x="336" y="710" on="0"/>
        <pt x="420" y="710" on="1"/>
        <pt x="433" y="710" on="0"/>
        <pt x="466" y="708" on="0"/>
        <pt x="501" y="705" on="0"/>
        <pt x="535" y="701" on="0"/>
        <pt x="550" y="698" on="1"/>
        <pt x="975" y="698" on="1"/>
        <pt x="955" y="602" on="1"/>
        <pt x="637" y="602" on="1"/>
        <pt x="597" y="400" on="1"/>
        <pt x="881" y="400" on="1"/>
        <pt x="862" y="304" on="1"/>
        <pt x="578" y="304" on="1"/>
        <pt x="536" y="96" on="1"/>
        <pt x="868" y="96" on="1"/>
        <pt x="849" y="0" on="1"/>
      </contour>
      <contour>
        <pt x="324" y="85" on="1"/>
        <pt x="347" y="85" on="0"/>
        <pt x="403" y="92" on="0"/>
        <pt x="428" y="99" on="1"/>
        <pt x="528" y="601" on="1"/>
        <pt x="517" y="604" on="0"/>
        <pt x="487" y="608" on="0"/>
        <pt x="456" y="611" on="0"/>
        <pt x="427" y="613" on="0"/>
        <pt x="415" y="613" on="1"/>
        <pt x="320" y="613" on="0"/>
        <pt x="211" y="504" on="0"/>
        <pt x="191" y="404" on="1"/>
        <pt x="171" y="302" on="1"/>
        <pt x="165" y="269" on="0"/>
        <pt x="165" y="241" on="1"/>
        <pt x="165" y="169" on="0"/>
        <pt x="242" y="85" on="0"/>
      </contour>
    </TTGlyph>
    <TTGlyph name="Oacute" xMin="56" yMin="-12" xMax="660" yMax="962">
      <component glyphName="O" x="0" y="0" flags="0x204"/>
      <component glyphName="acute.case" x="128" y="0" flags="0x4"/>
    </TTGlyph>
    <TTGlyph name="Obreve" xMin="56" yMin="-12" xMax="660" yMax="934">
      <component glyphName="O" x="0" y="0" flags="0x204"/>
      <component glyphName="breve.case" x="128" y="0" flags="0x4"/>
    </TTGlyph>
    <TTGlyph name="Ocircumflex" xMin="56" yMin="-12" xMax="660" yMax="944">
      <component glyphName="O" x="0" y="0" flags="0x204"/>
      <component glyphName="circumflex.case" x="128" y="0" flags="0x4"/>
    </TTGlyph>
    <TTGlyph name="Odieresis" xMin="56" yMin="-12" xMax="660" yMax="902">
      <component glyphName="O" x="0" y="0" flags="0x204"/>
      <component glyphName="dieresis.case" x="128" y="0" flags="0x4"/>
    </TTGlyph>
    <TTGlyph name="Ograve" xMin="56" yMin="-12" xMax="660" yMax="961">
      <component glyphName="O" x="0" y="0" flags="0x204"/>
      <component glyphName="grave.case" x="128" y="0" flags="0x4"/>
    </TTGlyph>
    <TTGlyph name="Ohorn" xMin="56" yMin="-12" xMax="751" yMax="807">
      <contour>
        <pt x="751" y="807" on="1"/>
        <pt x="731" y="706" on="1"/>
        <pt x="724" y="671" on="0"/>
        <pt x="687" y="632" on="0"/>
        <pt x="640" y="632" on="1"/>
        <pt x="595" y="632" on="1"/>
        <pt x="659" y="557" on="0"/>
        <pt x="659" y="433" on="1"/>
        <pt x="659" y="345" on="0"/>
        <pt x="608" y="184" on="0"/>
        <pt x="515" y="61" on="0"/>
        <pt x="383" y="-12" on="0"/>
        <pt x="302" y="-12" on="1"/>
        <pt x="251" y="-12" on="0"/>
        <pt x="161" y="22" on="0"/>
        <pt x="94" y="91" on="0"/>
        <pt x="56" y="195" on="0"/>
        <pt x="56" y="265" on="1"/>
        <pt x="56" y="353" on="0"/>
        <pt x="106" y="514" on="0"/>
        <pt x="199" y="637" on="0"/>
        <pt x="331" y="710" on="0"/>
        <pt x="412" y="710" on="1"/>
        <pt x="455" y="710" on="0"/>
        <pt x="494" y="698" on="1"/>
        <pt x="637" y="698" on="1"/>
        <pt x="659" y="807" on="1"/>
      </contour>
      <contour>
        <pt x="313" y="85" on="1"/>
        <pt x="397" y="85" on="0"/>
        <pt x="503" y="192" on="0"/>
        <pt x="523" y="290" on="1"/>
        <pt x="545" y="396" on="1"/>
        <pt x="549" y="413" on="0"/>
        <pt x="551" y="445" on="0"/>
        <pt x="551" y="458" on="1"/>
        <pt x="551" y="531" on="0"/>
        <pt x="475" y="613" on="0"/>
        <pt x="404" y="613" on="1"/>
        <pt x="321" y="613" on="0"/>
        <pt x="212" y="505" on="0"/>
        <pt x="192" y="406" on="1"/>
        <pt x="171" y="302" on="1"/>
        <pt x="167" y="284" on="0"/>
        <pt x="165" y="253" on="0"/>
        <pt x="165" y="240" on="1"/>
        <pt x="165" y="167" on="0"/>
        <pt x="241" y="85" on="0"/>
      </contour>
    </TTGlyph>
    <TTGlyph name="Ohungarumlaut" xMin="56" yMin="-12" xMax="660" yMax="958">
      <component glyphName="O" x="0" y="0" flags="0x204"/>
      <component glyphName="hungarumlaut.case" x="127" y="0" flags="0x4"/>
    </TTGlyph>
    <TTGlyph name="Omacron" xMin="56" yMin="-12" xMax="660" yMax="881">
      <component glyphName="O" x="0" y="0" flags="0x204"/>
      <component glyphName="macron.case" x="128" y="0" flags="0x4"/>
    </TTGlyph>
    <TTGlyph name="Omega" xMin="-13" yMin="0" xMax="660" yMax="710">
      <contour>
        <pt x="7" y="96" on="1"/>
        <pt x="164" y="96" on="1"/>
        <pt x="166" y="107" on="1"/>
        <pt x="116" y="138" on="0"/>
        <pt x="70" y="253" on="0"/>
        <pt x="70" y="328" on="1"/>
        <pt x="70" y="406" on="0"/>
        <pt x="121" y="545" on="0"/>
        <pt x="214" y="649" on="0"/>
        <pt x="342" y="710" on="0"/>
        <pt x="419" y="710" on="1"/>
        <pt x="473" y="710" on="0"/>
        <pt x="562" y="673" on="0"/>
        <pt x="625" y="606" on="0"/>
        <pt x="660" y="510" on="0"/>
        <pt x="660" y="451" on="1"/>
        <pt x="660" y="400" on="0"/>
        <pt x="637" y="296" on="0"/>
        <pt x="588" y="204" on="0"/>
        <pt x="509" y="129" on="0"/>
        <pt x="453" y="107" on="1"/>
        <pt x="451" y="96" on="1"/>
        <pt x="607" y="96" on="1"/>
        <pt x="587" y="0" on="1"/>
        <pt x="347" y="0" on="1"/>
        <pt x="378" y="145" on="1"/>
        <pt x="435" y="164" on="0"/>
        <pt x="514" y="255" on="0"/>
        <pt x="526" y="317" on="1"/>
        <pt x="547" y="417" on="1"/>
        <pt x="551" y="437" on="0"/>
        <pt x="551" y="471" on="1"/>
        <pt x="551" y="500" on="0"/>
        <pt x="532" y="552" on="0"/>
        <pt x="495" y="591" on="0"/>
        <pt x="441" y="613" on="0"/>
        <pt x="405" y="613" on="1"/>
        <pt x="363" y="613" on="0"/>
        <pt x="293" y="584" on="0"/>
        <pt x="241" y="533" on="0"/>
        <pt x="205" y="462" on="0"/>
        <pt x="197" y="421" on="1"/>
        <pt x="181" y="338" on="1"/>
        <pt x="179" y="325" on="0"/>
        <pt x="177" y="298" on="0"/>
        <pt x="177" y="286" on="1"/>
        <pt x="177" y="238" on="0"/>
        <pt x="221" y="159" on="0"/>
        <pt x="258" y="145" on="1"/>
        <pt x="227" y="0" on="1"/>
        <pt x="-13" y="0" on="1"/>
      </contour>
    </TTGlyph>
    <TTGlyph name="Omegatonos" xMin="30" yMin="0" xMax="703" yMax="795">
      <component glyphName="Omega" x="43" y="0" flags="0x4"/>
      <component glyphName="tonos.case" x="-245" y="0" flags="0x4"/>
    </TTGlyph>
    <TTGlyph name="Omicron" xMin="56" yMin="-12" xMax="660" yMax="710">
      <component glyphName="O" x="0" y="0" flags="0x204"/>
    </TTGlyph>
    <TTGlyph name="Omicrontonos" xMin="55" yMin="-12" xMax="700" yMax="795">
      <component glyphName="O" x="40" y="0" flags="0x4"/>
      <component glyphName="tonos.case" x="-245" y="0" flags="0x4"/>
    </TTGlyph>
    <TTGlyph name="Oslash" xMin="3" yMin="-52" xMax="712" yMax="750">
      <contour>
        <pt x="302" y="-12" on="1"/>
        <pt x="257" y="-12" on="0"/>
        <pt x="177" y="14" on="0"/>
        <pt x="145" y="41" on="1"/>
        <pt x="65" y="-52" on="1"/>
        <pt x="3" y="2" on="1"/>
        <pt x="92" y="106" on="1"/>
        <pt x="75" y="138" on="0"/>
        <pt x="56" y="216" on="0"/>
        <pt x="56" y="265" on="1"/>
        <pt x="56" y="353" on="0"/>
        <pt x="107" y="514" on="0"/>
        <pt x="200" y="637" on="0"/>
        <pt x="332" y="710" on="0"/>
        <pt x="413" y="710" on="1"/>
        <pt x="458" y="710" on="0"/>
        <pt x="538" y="684" on="0"/>
        <pt x="570" y="657" on="1"/>
        <pt x="650" y="750" on="1"/>
        <pt x="712" y="696" on="1"/>
        <pt x="623" y="592" on="1"/>
        <pt x="640" y="560" on="0"/>
        <pt x="659" y="482" on="0"/>
        <pt x="659" y="433" on="1"/>
        <pt x="659" y="345" on="0"/>
        <pt x="608" y="184" on="0"/>
        <pt x="515" y="61" on="0"/>
        <pt x="383" y="-12" on="0"/>
      </contour>
      <contour>
        <pt x="169" y="301" on="1"/>
        <pt x="165" y="284" on="0"/>
        <pt x="162" y="252" on="0"/>
        <pt x="162" y="238" on="1"/>
        <pt x="162" y="209" on="0"/>
        <pt x="169" y="187" on="1"/>
        <pt x="508" y="577" on="1"/>
        <pt x="469" y="614" on="0"/>
        <pt x="404" y="614" on="1"/>
        <pt x="320" y="614" on="0"/>
        <pt x="210" y="505" on="0"/>
        <pt x="190" y="405" on="1"/>
      </contour>
      <contour>
        <pt x="311" y="84" on="1"/>
        <pt x="395" y="84" on="0"/>
        <pt x="505" y="193" on="0"/>
        <pt x="525" y="293" on="1"/>
        <pt x="546" y="397" on="1"/>
        <pt x="550" y="414" on="0"/>
        <pt x="553" y="446" on="0"/>
        <pt x="553" y="460" on="1"/>
        <pt x="553" y="489" on="0"/>
        <pt x="546" y="511" on="1"/>
        <pt x="207" y="121" on="1"/>
        <pt x="246" y="84" on="0"/>
      </contour>
    </TTGlyph>
    <TTGlyph name="Oslashacute" xMin="3" yMin="-52" xMax="712" yMax="962">
      <component glyphName="Oslash" x="0" y="0" flags="0x204"/>
      <component glyphName="acute.case" x="111" y="0" flags="0x4"/>
    </TTGlyph>
    <TTGlyph name="Otilde" xMin="56" yMin="-12" xMax="660" yMax="904">
      <component glyphName="O" x="0" y="0" flags="0x204"/>
      <component glyphName="tilde.case" x="127" y="0" flags="0x4"/>
    </TTGlyph>
    <TTGlyph name="P" xMin="32" yMin="0" xMax="620" yMax="698">
      <contour>
        <pt x="32" y="0" on="1"/>
        <pt x="172" y="698" on="1"/>
        <pt x="427" y="698" on="1"/>
        <pt x="525" y="698" on="0"/>
        <pt x="620" y="602" on="0"/>
        <pt x="620" y="522" on="1"/>
        <pt x="620" y="470" on="0"/>
        <pt x="584" y="381" on="0"/>
        <pt x="518" y="316" on="0"/>
        <pt x="426" y="279" on="0"/>
        <pt x="370" y="279" on="1"/>
        <pt x="196" y="279" on="1"/>
        <pt x="140" y="0" on="1"/>
      </contour>
      <contour>
        <pt x="216" y="375" on="1"/>
        <pt x="385" y="375" on="1"/>
        <pt x="428" y="375" on="0"/>
        <pt x="485" y="420" on="0"/>
        <pt x="496" y="465" on="1"/>
        <pt x="502" y="492" on="0"/>
        <pt x="508" y="523" on="0"/>
        <pt x="508" y="533" on="1"/>
        <pt x="508" y="563" on="0"/>
        <pt x="471" y="602" on="0"/>
        <pt x="426" y="602" on="1"/>
        <pt x="261" y="602" on="1"/>
      </contour>
    </TTGlyph>
    <TTGlyph name="Phi" xMin="49" yMin="-35" xMax="787" yMax="731">
      <contour>
        <pt x="299" y="31" on="1"/>
        <pt x="293" y="31" on="1"/>
        <pt x="236" y="31" on="0"/>
        <pt x="145" y="65" on="0"/>
        <pt x="82" y="129" on="0"/>
        <pt x="49" y="220" on="0"/>
        <pt x="49" y="277" on="1"/>
        <pt x="49" y="361" on="0"/>
        <pt x="98" y="507" on="0"/>
        <pt x="194" y="615" on="0"/>
        <pt x="333" y="677" on="0"/>
        <pt x="423" y="677" on="1"/>
        <pt x="429" y="677" on="1"/>
        <pt x="440" y="731" on="1"/>
        <pt x="548" y="731" on="1"/>
        <pt x="537" y="677" on="1"/>
        <pt x="544" y="677" on="1"/>
        <pt x="601" y="677" on="0"/>
        <pt x="692" y="643" on="0"/>
        <pt x="754" y="579" on="0"/>
        <pt x="787" y="488" on="0"/>
        <pt x="787" y="431" on="1"/>
        <pt x="787" y="347" on="0"/>
        <pt x="738" y="201" on="0"/>
        <pt x="643" y="93" on="0"/>
        <pt x="504" y="31" on="0"/>
        <pt x="414" y="31" on="1"/>
        <pt x="407" y="31" on="1"/>
        <pt x="394" y="-35" on="1"/>
        <pt x="286" y="-35" on="1"/>
      </contour>
      <contour>
        <pt x="413" y="587" on="1"/>
        <pt x="407" y="587" on="1"/>
        <pt x="315" y="587" on="0"/>
        <pt x="194" y="481" on="0"/>
        <pt x="173" y="380" on="1"/>
        <pt x="163" y="330" on="1"/>
        <pt x="160" y="316" on="0"/>
        <pt x="158" y="289" on="0"/>
        <pt x="158" y="272" on="1"/>
        <pt x="158" y="197" on="0"/>
        <pt x="233" y="121" on="0"/>
        <pt x="314" y="121" on="1"/>
        <pt x="320" y="121" on="1"/>
      </contour>
      <contour>
        <pt x="429" y="121" on="1"/>
        <pt x="521" y="121" on="0"/>
        <pt x="642" y="227" on="0"/>
        <pt x="663" y="328" on="1"/>
        <pt x="673" y="378" on="1"/>
        <pt x="676" y="392" on="0"/>
        <pt x="678" y="419" on="0"/>
        <pt x="678" y="436" on="1"/>
        <pt x="678" y="511" on="0"/>
        <pt x="603" y="587" on="0"/>
        <pt x="522" y="587" on="1"/>
        <pt x="516" y="587" on="1"/>
        <pt x="423" y="121" on="1"/>
      </contour>
    </TTGlyph>
    <TTGlyph name="Pi" xMin="32" yMin="0" xMax="678" yMax="698">
      <component glyphName="uni041F" x="0" y="0" flags="0x204"/>
    </TTGlyph>
    <TTGlyph name="Psi" xMin="103" yMin="0" xMax="805" yMax="698">
      <contour>
        <pt x="325" y="192" on="1"/>
        <pt x="270" y="192" on="0"/>
        <pt x="187" y="224" on="0"/>
        <pt x="131" y="278" on="0"/>
        <pt x="103" y="352" on="0"/>
        <pt x="103" y="394" on="1"/>
        <pt x="103" y="421" on="0"/>
        <pt x="110" y="480" on="0"/>
        <pt x="117" y="515" on="1"/>
        <pt x="154" y="698" on="1"/>
        <pt x="262" y="698" on="1"/>
        <pt x="222" y="499" on="1"/>
        <pt x="214" y="462" on="0"/>
        <pt x="209" y="416" on="0"/>
        <pt x="209" y="399" on="1"/>
        <pt x="209" y="282" on="0"/>
        <pt x="343" y="282" on="1"/>
        <pt x="426" y="698" on="1"/>
        <pt x="534" y="698" on="1"/>
        <pt x="451" y="282" on="1"/>
        <pt x="493" y="282" on="0"/>
        <pt x="558" y="303" on="0"/>
        <pt x="608" y="351" on="0"/>
        <pt x="643" y="430" on="0"/>
        <pt x="655" y="489" on="1"/>
        <pt x="697" y="698" on="1"/>
        <pt x="805" y="698" on="1"/>
        <pt x="761" y="479" on="1"/>
        <pt x="732" y="331" on="0"/>
        <pt x="573" y="192" on="0"/>
        <pt x="433" y="192" on="1"/>
        <pt x="394" y="0" on="1"/>
        <pt x="286" y="0" on="1"/>
      </contour>
    </TTGlyph>
    <TTGlyph name="Q" xMin="56" yMin="-173" xMax="660" yMax="710">
      <contour>
        <pt x="414" y="-173" on="1"/>
        <pt x="317" y="-173" on="1"/>
        <pt x="268" y="-173" on="0"/>
        <pt x="228" y="-133" on="0"/>
        <pt x="228" y="-99" on="1"/>
        <pt x="228" y="-90" on="0"/>
        <pt x="231" y="-72" on="0"/>
        <pt x="233" y="-62" on="1"/>
        <pt x="244" y="-6" on="1"/>
        <pt x="203" y="3" on="0"/>
        <pt x="135" y="45" on="0"/>
        <pt x="84" y="112" on="0"/>
        <pt x="56" y="205" on="0"/>
        <pt x="56" y="265" on="1"/>
        <pt x="56" y="353" on="0"/>
        <pt x="106" y="514" on="0"/>
        <pt x="199" y="637" on="0"/>
        <pt x="331" y="710" on="0"/>
        <pt x="412" y="710" on="1"/>
        <pt x="463" y="710" on="0"/>
        <pt x="554" y="676" on="0"/>
        <pt x="621" y="607" on="0"/>
        <pt x="660" y="503" on="0"/>
        <pt x="660" y="433" on="1"/>
        <pt x="660" y="350" on="0"/>
        <pt x="615" y="198" on="0"/>
        <pt x="532" y="78" on="0"/>
        <pt x="414" y="-1" on="0"/>
        <pt x="341" y="-10" on="1"/>
        <pt x="327" y="-80" on="1"/>
        <pt x="433" y="-80" on="1"/>
      </contour>
      <contour>
        <pt x="313" y="85" on="1"/>
        <pt x="397" y="85" on="0"/>
        <pt x="503" y="192" on="0"/>
        <pt x="523" y="290" on="1"/>
        <pt x="545" y="396" on="1"/>
        <pt x="549" y="413" on="0"/>
        <pt x="551" y="445" on="0"/>
        <pt x="551" y="458" on="1"/>
        <pt x="551" y="531" on="0"/>
        <pt x="475" y="613" on="0"/>
        <pt x="404" y="613" on="1"/>
        <pt x="321" y="613" on="0"/>
        <pt x="212" y="505" on="0"/>
        <pt x="192" y="406" on="1"/>
        <pt x="171" y="302" on="1"/>
        <pt x="167" y="284" on="0"/>
        <pt x="165" y="253" on="0"/>
        <pt x="165" y="240" on="1"/>
        <pt x="165" y="167" on="0"/>
        <pt x="241" y="85" on="0"/>
      </contour>
    </TTGlyph>
    <TTGlyph name="R" xMin="32" yMin="0" xMax="620" yMax="698">
      <contour>
        <pt x="140" y="0" on="1"/>
        <pt x="32" y="0" on="1"/>
        <pt x="172" y="698" on="1"/>
        <pt x="431" y="698" on="1"/>
        <pt x="527" y="698" on="0"/>
        <pt x="620" y="603" on="0"/>
        <pt x="620" y="525" on="1"/>
        <pt x="620" y="485" on="0"/>
        <pt x="596" y="412" on="0"/>
        <pt x="550" y="351" on="0"/>
        <pt x="484" y="306" on="0"/>
        <pt x="442" y="296" on="1"/>
        <pt x="536" y="0" on="1"/>
        <pt x="420" y="0" on="1"/>
        <pt x="336" y="283" on="1"/>
        <pt x="197" y="283" on="1"/>
      </contour>
      <contour>
        <pt x="385" y="375" on="1"/>
        <pt x="428" y="375" on="0"/>
        <pt x="485" y="420" on="0"/>
        <pt x="496" y="465" on="1"/>
        <pt x="502" y="492" on="0"/>
        <pt x="508" y="523" on="0"/>
        <pt x="508" y="533" on="1"/>
        <pt x="508" y="563" on="0"/>
        <pt x="471" y="602" on="0"/>
        <pt x="426" y="602" on="1"/>
        <pt x="261" y="602" on="1"/>
        <pt x="216" y="375" on="1"/>
      </contour>
    </TTGlyph>
    <TTGlyph name="Racute" xMin="32" yMin="0" xMax="620" yMax="962">
      <component glyphName="R" x="0" y="0" flags="0x204"/>
      <component glyphName="acute.case" x="97" y="0" flags="0x4"/>
    </TTGlyph>
    <TTGlyph name="Rcaron" xMin="32" yMin="0" xMax="620" yMax="953">
      <component glyphName="R" x="0" y="0" flags="0x204"/>
      <component glyphName="caron.case" x="96" y="0" flags="0x4"/>
    </TTGlyph>
    <TTGlyph name="Rcommaaccent" xMin="32" yMin="-258" xMax="620" yMax="698">
      <component glyphName="R" x="0" y="0" flags="0x204"/>
      <component glyphName="uni0326" x="277" y="0" flags="0x4"/>
    </TTGlyph>
    <TTGlyph name="Rho" xMin="32" yMin="0" xMax="620" yMax="698">
      <component glyphName="P" x="0" y="0" flags="0x204"/>
    </TTGlyph>
    <TTGlyph name="S" xMin="4" yMin="-12" xMax="584" yMax="710">
      <contour>
        <pt x="251" y="-12" on="1"/>
        <pt x="170" y="-12" on="0"/>
        <pt x="39" y="46" on="0"/>
        <pt x="4" y="113" on="1"/>
        <pt x="87" y="176" on="1"/>
        <pt x="116" y="128" on="0"/>
        <pt x="197" y="85" on="0"/>
        <pt x="252" y="85" on="1"/>
        <pt x="330" y="85" on="0"/>
        <pt x="412" y="159" on="0"/>
        <pt x="412" y="213" on="1"/>
        <pt x="412" y="252" on="0"/>
        <pt x="364" y="297" on="0"/>
        <pt x="317" y="307" on="1"/>
        <pt x="259" y="318" on="1"/>
        <pt x="184" y="334" on="0"/>
        <pt x="100" y="421" on="0"/>
        <pt x="100" y="496" on="1"/>
        <pt x="100" y="541" on="0"/>
        <pt x="135" y="619" on="0"/>
        <pt x="200" y="677" on="0"/>
        <pt x="294" y="710" on="0"/>
        <pt x="353" y="710" on="1"/>
        <pt x="433" y="710" on="0"/>
        <pt x="549" y="655" on="0"/>
        <pt x="584" y="607" on="1"/>
        <pt x="506" y="538" on="1"/>
        <pt x="479" y="575" on="0"/>
        <pt x="405" y="613" on="0"/>
        <pt x="348" y="613" on="1"/>
        <pt x="284" y="613" on="0"/>
        <pt x="209" y="556" on="0"/>
        <pt x="209" y="505" on="1"/>
        <pt x="209" y="466" on="0"/>
        <pt x="255" y="423" on="0"/>
        <pt x="302" y="413" on="1"/>
        <pt x="359" y="402" on="1"/>
        <pt x="436" y="386" on="0"/>
        <pt x="523" y="298" on="0"/>
        <pt x="523" y="222" on="1"/>
        <pt x="523" y="176" on="0"/>
        <pt x="487" y="91" on="0"/>
        <pt x="417" y="27" on="0"/>
        <pt x="316" y="-12" on="0"/>
      </contour>
    </TTGlyph>
    <TTGlyph name="Sacute" xMin="4" yMin="-12" xMax="584" yMax="962">
      <component glyphName="S" x="0" y="0" flags="0x204"/>
      <component glyphName="acute.case" x="61" y="0" flags="0x4"/>
    </TTGlyph>
    <TTGlyph name="Scaron" xMin="4" yMin="-12" xMax="584" yMax="953">
      <component glyphName="S" x="0" y="0" flags="0x204"/>
      <component glyphName="caron.case" x="60" y="0" flags="0x4"/>
    </TTGlyph>
    <TTGlyph name="Scedilla" xMin="4" yMin="-209" xMax="584" yMax="710">
      <contour>
        <pt x="348" y="613" on="1"/>
        <pt x="284" y="613" on="0"/>
        <pt x="209" y="556" on="0"/>
        <pt x="209" y="505" on="1"/>
        <pt x="209" y="466" on="0"/>
        <pt x="255" y="423" on="0"/>
        <pt x="302" y="413" on="1"/>
        <pt x="359" y="402" on="1"/>
        <pt x="436" y="386" on="0"/>
        <pt x="523" y="298" on="0"/>
        <pt x="523" y="222" on="1"/>
        <pt x="523" y="177" on="0"/>
        <pt x="489" y="95" on="0"/>
        <pt x="424" y="31" on="0"/>
        <pt x="329" y="-9" on="0"/>
        <pt x="268" y="-12" on="1"/>
        <pt x="251" y="-59" on="1"/>
        <pt x="253" y="-62" on="1"/>
        <pt x="261" y="-60" on="0"/>
        <pt x="278" y="-57" on="0"/>
        <pt x="289" y="-57" on="1"/>
        <pt x="315" y="-57" on="0"/>
        <pt x="349" y="-84" on="0"/>
        <pt x="349" y="-113" on="1"/>
        <pt x="349" y="-159" on="0"/>
        <pt x="280" y="-209" on="0"/>
        <pt x="226" y="-209" on="1"/>
        <pt x="187" y="-209" on="0"/>
        <pt x="133" y="-185" on="0"/>
        <pt x="121" y="-168" on="1"/>
        <pt x="166" y="-123" on="1"/>
        <pt x="172" y="-132" on="0"/>
        <pt x="202" y="-149" on="0"/>
        <pt x="224" y="-149" on="1"/>
        <pt x="246" y="-149" on="0"/>
        <pt x="272" y="-130" on="0"/>
        <pt x="272" y="-115" on="1"/>
        <pt x="272" y="-101" on="0"/>
        <pt x="247" y="-80" on="0"/>
        <pt x="212" y="-77" on="1"/>
        <pt x="188" y="-75" on="1"/>
        <pt x="211" y="-10" on="1"/>
        <pt x="142" y="-4" on="0"/>
        <pt x="34" y="54" on="0"/>
        <pt x="4" y="113" on="1"/>
        <pt x="87" y="176" on="1"/>
        <pt x="116" y="128" on="0"/>
        <pt x="197" y="85" on="0"/>
        <pt x="252" y="85" on="1"/>
        <pt x="330" y="85" on="0"/>
        <pt x="412" y="159" on="0"/>
        <pt x="412" y="213" on="1"/>
        <pt x="412" y="252" on="0"/>
        <pt x="364" y="297" on="0"/>
        <pt x="317" y="307" on="1"/>
        <pt x="259" y="318" on="1"/>
        <pt x="184" y="334" on="0"/>
        <pt x="100" y="421" on="0"/>
        <pt x="100" y="496" on="1"/>
        <pt x="100" y="541" on="0"/>
        <pt x="135" y="619" on="0"/>
        <pt x="200" y="677" on="0"/>
        <pt x="294" y="710" on="0"/>
        <pt x="353" y="710" on="1"/>
        <pt x="433" y="710" on="0"/>
        <pt x="549" y="655" on="0"/>
        <pt x="584" y="607" on="1"/>
        <pt x="506" y="538" on="1"/>
        <pt x="479" y="575" on="0"/>
        <pt x="405" y="613" on="0"/>
      </contour>
    </TTGlyph>
    <TTGlyph name="Scircumflex" xMin="4" yMin="-12" xMax="584" yMax="944">
      <component glyphName="S" x="0" y="0" flags="0x204"/>
      <component glyphName="circumflex.case" x="61" y="0" flags="0x4"/>
    </TTGlyph>
    <TTGlyph name="Scommaaccent" xMin="4" yMin="-258" xMax="584" yMax="710">
      <component glyphName="S" x="0" y="0" flags="0x204"/>
      <component glyphName="uni0326" x="243" y="0" flags="0x4"/>
    </TTGlyph>
    <TTGlyph name="Sigma" xMin="-9" yMin="0" xMax="598" yMax="698">
      <contour>
        <pt x="-9" y="0" on="1"/>
        <pt x="11" y="99" on="1"/>
        <pt x="289" y="354" on="1"/>
        <pt x="118" y="599" on="1"/>
        <pt x="139" y="698" on="1"/>
        <pt x="598" y="698" on="1"/>
        <pt x="578" y="602" on="1"/>
        <pt x="239" y="602" on="1"/>
        <pt x="417" y="347" on="1"/>
        <pt x="143" y="96" on="1"/>
        <pt x="487" y="96" on="1"/>
        <pt x="468" y="0" on="1"/>
      </contour>
    </TTGlyph>
    <TTGlyph name="T" xMin="94" yMin="0" xMax="622" yMax="698">
      <contour>
        <pt x="403" y="602" on="1"/>
        <pt x="282" y="0" on="1"/>
        <pt x="174" y="0" on="1"/>
        <pt x="294" y="602" on="1"/>
        <pt x="94" y="602" on="1"/>
        <pt x="113" y="698" on="1"/>
        <pt x="622" y="698" on="1"/>
        <pt x="603" y="602" on="1"/>
      </contour>
    </TTGlyph>
    <TTGlyph name="Tau" xMin="94" yMin="0" xMax="622" yMax="698">
      <component glyphName="T" x="0" y="0" flags="0x204"/>
    </TTGlyph>
    <TTGlyph name="Tbar" xMin="85" yMin="0" xMax="622" yMax="698">
      <contour>
        <pt x="344" y="312" on="1"/>
        <pt x="282" y="0" on="1"/>
        <pt x="174" y="0" on="1"/>
        <pt x="236" y="312" on="1"/>
        <pt x="85" y="312" on="1"/>
        <pt x="102" y="395" on="1"/>
        <pt x="253" y="395" on="1"/>
        <pt x="294" y="602" on="1"/>
        <pt x="94" y="602" on="1"/>
        <pt x="113" y="698" on="1"/>
        <pt x="622" y="698" on="1"/>
        <pt x="603" y="602" on="1"/>
        <pt x="403" y="602" on="1"/>
        <pt x="361" y="395" on="1"/>
        <pt x="513" y="395" on="1"/>
        <pt x="496" y="312" on="1"/>
      </contour>
    </TTGlyph>
    <TTGlyph name="Tcaron" xMin="94" yMin="0" xMax="622" yMax="953">
      <component glyphName="T" x="0" y="0" flags="0x204"/>
      <component glyphName="caron.case" x="76" y="0" flags="0x4"/>
    </TTGlyph>
    <TTGlyph name="Theta" xMin="56" yMin="-12" xMax="663" yMax="710">
      <contour>
        <pt x="304" y="-12" on="1"/>
        <pt x="252" y="-12" on="0"/>
        <pt x="161" y="22" on="0"/>
        <pt x="94" y="91" on="0"/>
        <pt x="56" y="195" on="0"/>
        <pt x="56" y="265" on="1"/>
        <pt x="56" y="353" on="0"/>
        <pt x="107" y="514" on="0"/>
        <pt x="201" y="637" on="0"/>
        <pt x="333" y="710" on="0"/>
        <pt x="415" y="710" on="1"/>
        <pt x="467" y="710" on="0"/>
        <pt x="558" y="676" on="0"/>
        <pt x="625" y="607" on="0"/>
        <pt x="663" y="503" on="0"/>
        <pt x="663" y="433" on="1"/>
        <pt x="663" y="345" on="0"/>
        <pt x="612" y="184" on="0"/>
        <pt x="518" y="61" on="0"/>
        <pt x="386" y="-12" on="0"/>
      </contour>
      <contour>
        <pt x="313" y="85" on="1"/>
        <pt x="398" y="85" on="0"/>
        <pt x="508" y="195" on="0"/>
        <pt x="528" y="294" on="1"/>
        <pt x="548" y="396" on="1"/>
        <pt x="552" y="414" on="0"/>
        <pt x="554" y="445" on="0"/>
        <pt x="554" y="458" on="1"/>
        <pt x="554" y="531" on="0"/>
        <pt x="478" y="613" on="0"/>
        <pt x="406" y="613" on="1"/>
        <pt x="321" y="613" on="0"/>
        <pt x="211" y="503" on="0"/>
        <pt x="191" y="404" on="1"/>
        <pt x="171" y="302" on="1"/>
        <pt x="167" y="284" on="0"/>
        <pt x="165" y="253" on="0"/>
        <pt x="165" y="240" on="1"/>
        <pt x="165" y="167" on="0"/>
        <pt x="241" y="85" on="0"/>
      </contour>
      <contour>
        <pt x="228" y="306" on="1"/>
        <pt x="247" y="402" on="1"/>
        <pt x="493" y="402" on="1"/>
        <pt x="474" y="306" on="1"/>
      </contour>
    </TTGlyph>
    <TTGlyph name="Thorn" xMin="31" yMin="0" xMax="593" yMax="698">
      <contour>
        <pt x="31" y="0" on="1"/>
        <pt x="171" y="698" on="1"/>
        <pt x="280" y="698" on="1"/>
        <pt x="253" y="564" on="1"/>
        <pt x="400" y="564" on="1"/>
        <pt x="498" y="564" on="0"/>
        <pt x="593" y="468" on="0"/>
        <pt x="593" y="389" on="1"/>
        <pt x="593" y="336" on="0"/>
        <pt x="557" y="247" on="0"/>
        <pt x="492" y="182" on="0"/>
        <pt x="400" y="145" on="0"/>
        <pt x="344" y="145" on="1"/>
        <pt x="168" y="145" on="1"/>
        <pt x="139" y="0" on="1"/>
      </contour>
      <contour>
        <pt x="189" y="242" on="1"/>
        <pt x="358" y="242" on="1"/>
        <pt x="401" y="242" on="0"/>
        <pt x="460" y="286" on="0"/>
        <pt x="469" y="330" on="1"/>
        <pt x="476" y="361" on="0"/>
        <pt x="481" y="388" on="0"/>
        <pt x="481" y="399" on="1"/>
        <pt x="481" y="429" on="0"/>
        <pt x="444" y="467" on="0"/>
        <pt x="399" y="467" on="1"/>
        <pt x="233" y="467" on="1"/>
      </contour>
    </TTGlyph>
    <TTGlyph name="U" xMin="78" yMin="-12" xMax="671" yMax="698">
      <contour>
        <pt x="276" y="698" on="1"/>
        <pt x="191" y="272" on="1"/>
        <pt x="187" y="253" on="0"/>
        <pt x="182" y="220" on="0"/>
        <pt x="182" y="204" on="1"/>
        <pt x="182" y="147" on="0"/>
        <pt x="243" y="85" on="0"/>
        <pt x="299" y="85" on="1"/>
        <pt x="372" y="85" on="0"/>
        <pt x="458" y="173" on="0"/>
        <pt x="478" y="275" on="1"/>
        <pt x="563" y="698" on="1"/>
        <pt x="671" y="698" on="1"/>
        <pt x="587" y="277" on="1"/>
        <pt x="571" y="199" on="0"/>
        <pt x="523" y="90" on="0"/>
        <pt x="452" y="20" on="0"/>
        <pt x="355" y="-12" on="0"/>
        <pt x="292" y="-12" on="1"/>
        <pt x="189" y="-12" on="0"/>
        <pt x="78" y="97" on="0"/>
        <pt x="78" y="200" on="1"/>
        <pt x="78" y="222" on="0"/>
        <pt x="82" y="269" on="0"/>
        <pt x="88" y="298" on="1"/>
        <pt x="168" y="698" on="1"/>
      </contour>
    </TTGlyph>
    <TTGlyph name="Uacute" xMin="78" yMin="-12" xMax="671" yMax="962">
      <component glyphName="U" x="0" y="0" flags="0x204"/>
      <component glyphName="acute.case" x="122" y="0" flags="0x4"/>
    </TTGlyph>
    <TTGlyph name="Ubreve" xMin="78" yMin="-12" xMax="671" yMax="934">
      <component glyphName="U" x="0" y="0" flags="0x204"/>
      <component glyphName="breve.case" x="122" y="0" flags="0x4"/>
    </TTGlyph>
    <TTGlyph name="Ucircumflex" xMin="78" yMin="-12" xMax="671" yMax="944">
      <component glyphName="U" x="0" y="0" flags="0x204"/>
      <component glyphName="circumflex.case" x="122" y="0" flags="0x4"/>
    </TTGlyph>
    <TTGlyph name="Udieresis" xMin="78" yMin="-12" xMax="671" yMax="902">
      <component glyphName="U" x="0" y="0" flags="0x204"/>
      <component glyphName="dieresis.case" x="122" y="0" flags="0x4"/>
    </TTGlyph>
    <TTGlyph name="Ugrave" xMin="78" yMin="-12" xMax="671" yMax="961">
      <component glyphName="U" x="0" y="0" flags="0x204"/>
      <component glyphName="grave.case" x="122" y="0" flags="0x4"/>
    </TTGlyph>
    <TTGlyph name="Uhorn" xMin="78" yMin="-12" xMax="768" yMax="807">
      <contour>
        <pt x="276" y="698" on="1"/>
        <pt x="191" y="272" on="1"/>
        <pt x="187" y="253" on="0"/>
        <pt x="182" y="220" on="0"/>
        <pt x="182" y="204" on="1"/>
        <pt x="182" y="147" on="0"/>
        <pt x="243" y="85" on="0"/>
        <pt x="299" y="85" on="1"/>
        <pt x="372" y="85" on="0"/>
        <pt x="458" y="173" on="0"/>
        <pt x="478" y="275" on="1"/>
        <pt x="563" y="698" on="1"/>
        <pt x="654" y="698" on="1"/>
        <pt x="676" y="807" on="1"/>
        <pt x="768" y="807" on="1"/>
        <pt x="748" y="707" on="1"/>
        <pt x="740" y="668" on="0"/>
        <pt x="705" y="630" on="0"/>
        <pt x="668" y="630" on="1"/>
        <pt x="656" y="630" on="1"/>
        <pt x="587" y="277" on="1"/>
        <pt x="572" y="199" on="0"/>
        <pt x="523" y="90" on="0"/>
        <pt x="452" y="20" on="0"/>
        <pt x="355" y="-12" on="0"/>
        <pt x="292" y="-12" on="1"/>
        <pt x="189" y="-12" on="0"/>
        <pt x="78" y="97" on="0"/>
        <pt x="78" y="200" on="1"/>
        <pt x="78" y="222" on="0"/>
        <pt x="82" y="269" on="0"/>
        <pt x="88" y="298" on="1"/>
        <pt x="168" y="698" on="1"/>
      </contour>
    </TTGlyph>
    <TTGlyph name="Uhungarumlaut" xMin="78" yMin="-12" xMax="671" yMax="958">
      <component glyphName="U" x="0" y="0" flags="0x204"/>
      <component glyphName="hungarumlaut.case" x="121" y="0" flags="0x4"/>
    </TTGlyph>
    <TTGlyph name="Umacron" xMin="78" yMin="-12" xMax="671" yMax="881">
      <component glyphName="U" x="0" y="0" flags="0x204"/>
      <component glyphName="macron.case" x="122" y="0" flags="0x4"/>
    </TTGlyph>
    <TTGlyph name="Uogonek" xMin="78" yMin="-209" xMax="671" yMax="698">
      <contour>
        <pt x="276" y="698" on="1"/>
        <pt x="191" y="272" on="1"/>
        <pt x="187" y="253" on="0"/>
        <pt x="182" y="220" on="0"/>
        <pt x="182" y="204" on="1"/>
        <pt x="182" y="147" on="0"/>
        <pt x="243" y="85" on="0"/>
        <pt x="299" y="85" on="1"/>
        <pt x="372" y="85" on="0"/>
        <pt x="458" y="173" on="0"/>
        <pt x="478" y="275" on="1"/>
        <pt x="563" y="698" on="1"/>
        <pt x="671" y="698" on="1"/>
        <pt x="587" y="277" on="1"/>
        <pt x="571" y="196" on="0"/>
        <pt x="527" y="100" on="0"/>
        <pt x="474" y="42" on="0"/>
        <pt x="411" y="8" on="0"/>
        <pt x="375" y="-11" on="1"/>
        <pt x="340" y="-29" on="0"/>
        <pt x="297" y="-61" on="0"/>
        <pt x="273" y="-88" on="0"/>
        <pt x="265" y="-110" on="0"/>
        <pt x="265" y="-117" on="1"/>
        <pt x="265" y="-147" on="0"/>
        <pt x="298" y="-147" on="1"/>
        <pt x="312" y="-147" on="0"/>
        <pt x="341" y="-135" on="0"/>
        <pt x="352" y="-120" on="1"/>
        <pt x="396" y="-167" on="1"/>
        <pt x="380" y="-184" on="0"/>
        <pt x="328" y="-209" on="0"/>
        <pt x="287" y="-209" on="1"/>
        <pt x="266" y="-209" on="0"/>
        <pt x="228" y="-200" on="0"/>
        <pt x="199" y="-181" on="0"/>
        <pt x="182" y="-151" on="0"/>
        <pt x="182" y="-131" on="1"/>
        <pt x="182" y="-95" on="0"/>
        <pt x="238" y="-35" on="0"/>
        <pt x="293" y="-16" on="1"/>
        <pt x="292" y="-12" on="1"/>
        <pt x="186" y="-10" on="0"/>
        <pt x="78" y="98" on="0"/>
        <pt x="78" y="200" on="1"/>
        <pt x="78" y="222" on="0"/>
        <pt x="82" y="269" on="0"/>
        <pt x="88" y="298" on="1"/>
        <pt x="168" y="698" on="1"/>
      </contour>
    </TTGlyph>
    <TTGlyph name="Upsilon" xMin="99" yMin="0" xMax="672" yMax="698">
      <component glyphName="Y" x="0" y="0" flags="0x204"/>
    </TTGlyph>
    <TTGlyph name="Upsilondieresis" xMin="99" yMin="0" xMax="672" yMax="902">
      <component glyphName="Y" x="0" y="0" flags="0x204"/>
      <component glyphName="dieresis.case" x="78" y="0" flags="0x4"/>
    </TTGlyph>
    <TTGlyph name="Upsilontonos" xMin="55" yMin="0" xMax="784" yMax="795">
      <component glyphName="Y" x="112" y="0" flags="0x4"/>
      <component glyphName="tonos.case" x="-245" y="0" flags="0x4"/>
    </TTGlyph>
    <TTGlyph name="Uring" xMin="78" yMin="-12" xMax="671" yMax="988">
      <component glyphName="U" x="0" y="0" flags="0x204"/>
      <component glyphName="ring.case" x="121" y="0" flags="0x4"/>
    </TTGlyph>
    <TTGlyph name="Utilde" xMin="78" yMin="-12" xMax="671" yMax="904">
      <component glyphName="U" x="0" y="0" flags="0x204"/>
      <component glyphName="tilde.case" x="121" y="0" flags="0x4"/>
    </TTGlyph>
    <TTGlyph name="V" xMin="106" yMin="0" xMax="680" yMax="698">
      <contour>
        <pt x="188" y="0" on="1"/>
        <pt x="106" y="698" on="1"/>
        <pt x="215" y="698" on="1"/>
        <pt x="247" y="383" on="1"/>
        <pt x="270" y="114" on="1"/>
        <pt x="275" y="114" on="1"/>
        <pt x="399" y="372" on="1"/>
        <pt x="565" y="698" on="1"/>
        <pt x="680" y="698" on="1"/>
        <pt x="316" y="0" on="1"/>
      </contour>
    </TTGlyph>
    <TTGlyph name="W" xMin="109" yMin="0" xMax="961" yMax="698">
      <contour>
        <pt x="131" y="0" on="1"/>
        <pt x="109" y="698" on="1"/>
        <pt x="216" y="698" on="1"/>
        <pt x="219" y="376" on="1"/>
        <pt x="218" y="119" on="1"/>
        <pt x="225" y="119" on="1"/>
        <pt x="345" y="410" on="1"/>
        <pt x="471" y="698" on="1"/>
        <pt x="594" y="698" on="1"/>
        <pt x="605" y="409" on="1"/>
        <pt x="610" y="116" on="1"/>
        <pt x="617" y="116" on="1"/>
        <pt x="715" y="364" on="1"/>
        <pt x="851" y="698" on="1"/>
        <pt x="961" y="698" on="1"/>
        <pt x="658" y="0" on="1"/>
        <pt x="533" y="0" on="1"/>
        <pt x="519" y="335" on="1"/>
        <pt x="513" y="576" on="1"/>
        <pt x="507" y="576" on="1"/>
        <pt x="406" y="341" on="1"/>
        <pt x="258" y="0" on="1"/>
      </contour>
    </TTGlyph>
    <TTGlyph name="Wacute" xMin="109" yMin="0" xMax="961" yMax="962">
      <component glyphName="W" x="0" y="0" flags="0x204"/>
      <component glyphName="acute.case" x="238" y="0" flags="0x4"/>
    </TTGlyph>
    <TTGlyph name="Wcircumflex" xMin="109" yMin="0" xMax="961" yMax="944">
      <component glyphName="W" x="0" y="0" flags="0x204"/>
      <component glyphName="circumflex.case" x="238" y="0" flags="0x4"/>
    </TTGlyph>
    <TTGlyph name="Wdieresis" xMin="109" yMin="0" xMax="961" yMax="902">
      <component glyphName="W" x="0" y="0" flags="0x204"/>
      <component glyphName="dieresis.case" x="238" y="0" flags="0x4"/>
    </TTGlyph>
    <TTGlyph name="Wgrave" xMin="109" yMin="0" xMax="961" yMax="961">
      <component glyphName="W" x="0" y="0" flags="0x204"/>
      <component glyphName="grave.case" x="238" y="0" flags="0x4"/>
    </TTGlyph>
    <TTGlyph name="X" xMin="-31" yMin="0" xMax="676" yMax="698">
      <contour>
        <pt x="536" y="0" on="1"/>
        <pt x="420" y="0" on="1"/>
        <pt x="309" y="268" on="1"/>
        <pt x="303" y="268" on="1"/>
        <pt x="95" y="0" on="1"/>
        <pt x="-31" y="0" on="1"/>
        <pt x="258" y="363" on="1"/>
        <pt x="114" y="698" on="1"/>
        <pt x="229" y="698" on="1"/>
        <pt x="338" y="435" on="1"/>
        <pt x="344" y="435" on="1"/>
        <pt x="551" y="698" on="1"/>
        <pt x="676" y="698" on="1"/>
        <pt x="386" y="345" on="1"/>
      </contour>
    </TTGlyph>
    <TTGlyph name="Xi" xMin="7" yMin="0" xMax="614" yMax="698">
      <contour>
        <pt x="147" y="698" on="1"/>
        <pt x="614" y="698" on="1"/>
        <pt x="594" y="602" on="1"/>
        <pt x="128" y="602" on="1"/>
      </contour>
      <contour>
        <pt x="145" y="400" on="1"/>
        <pt x="497" y="400" on="1"/>
        <pt x="478" y="304" on="1"/>
        <pt x="125" y="304" on="1"/>
      </contour>
      <contour>
        <pt x="27" y="96" on="1"/>
        <pt x="493" y="96" on="1"/>
        <pt x="474" y="0" on="1"/>
        <pt x="7" y="0" on="1"/>
      </contour>
    </TTGlyph>
    <TTGlyph name="Y" xMin="99" yMin="0" xMax="672" yMax="698">
      <contour>
        <pt x="191" y="0" on="1"/>
        <pt x="246" y="272" on="1"/>
        <pt x="99" y="698" on="1"/>
        <pt x="209" y="698" on="1"/>
        <pt x="316" y="377" on="1"/>
        <pt x="321" y="377" on="1"/>
        <pt x="550" y="698" on="1"/>
        <pt x="672" y="698" on="1"/>
        <pt x="353" y="267" on="1"/>
        <pt x="299" y="0" on="1"/>
      </contour>
    </TTGlyph>
    <TTGlyph name="Yacute" xMin="99" yMin="0" xMax="672" yMax="962">
      <component glyphName="Y" x="0" y="0" flags="0x204"/>
      <component glyphName="acute.case" x="79" y="0" flags="0x4"/>
    </TTGlyph>
    <TTGlyph name="Ycircumflex" xMin="99" yMin="0" xMax="672" yMax="944">
      <component glyphName="Y" x="0" y="0" flags="0x204"/>
      <component glyphName="circumflex.case" x="79" y="0" flags="0x4"/>
    </TTGlyph>
    <TTGlyph name="Ydieresis" xMin="99" yMin="0" xMax="672" yMax="902">
      <component glyphName="Y" x="0" y="0" flags="0x204"/>
      <component glyphName="dieresis.case" x="79" y="0" flags="0x4"/>
    </TTGlyph>
    <TTGlyph name="Ygrave" xMin="99" yMin="0" xMax="672" yMax="961">
      <component glyphName="Y" x="0" y="0" flags="0x204"/>
      <component glyphName="grave.case" x="79" y="0" flags="0x4"/>
    </TTGlyph>
    <TTGlyph name="Z" xMin="-13" yMin="0" xMax="611" yMax="698">
      <contour>
        <pt x="478" y="0" on="1"/>
        <pt x="-13" y="0" on="1"/>
        <pt x="7" y="99" on="1"/>
        <pt x="463" y="602" on="1"/>
        <pt x="119" y="602" on="1"/>
        <pt x="138" y="698" on="1"/>
        <pt x="611" y="698" on="1"/>
        <pt x="591" y="599" on="1"/>
        <pt x="135" y="96" on="1"/>
        <pt x="497" y="96" on="1"/>
      </contour>
    </TTGlyph>
    <TTGlyph name="Zacute" xMin="-13" yMin="0" xMax="611" yMax="962">
      <component glyphName="Z" x="0" y="0" flags="0x204"/>
      <component glyphName="acute.case" x="73" y="0" flags="0x4"/>
    </TTGlyph>
    <TTGlyph name="Zcaron" xMin="-13" yMin="0" xMax="611" yMax="953">
      <component glyphName="Z" x="0" y="0" flags="0x204"/>
      <component glyphName="caron.case" x="72" y="0" flags="0x4"/>
    </TTGlyph>
    <TTGlyph name="Zdotaccent" xMin="-13" yMin="0" xMax="611" yMax="904">
      <component glyphName="Z" x="0" y="0" flags="0x204"/>
      <component glyphName="dotaccent.case" x="72" y="0" flags="0x4"/>
    </TTGlyph>
    <TTGlyph name="Zeta" xMin="-13" yMin="0" xMax="611" yMax="698">
      <component glyphName="Z" x="0" y="0" flags="0x204"/>
    </TTGlyph>
    <TTGlyph name="a" xMin="42" yMin="-12" xMax="550" yMax="532">
      <contour>
        <pt x="434" y="0" on="1"/>
        <pt x="399" y="0" on="0"/>
        <pt x="358" y="36" on="0"/>
        <pt x="358" y="68" on="1"/>
        <pt x="358" y="85" on="0"/>
        <pt x="361" y="97" on="1"/>
        <pt x="365" y="116" on="1"/>
        <pt x="361" y="116" on="1"/>
        <pt x="329" y="52" on="0"/>
        <pt x="252" y="-12" on="0"/>
        <pt x="192" y="-12" on="1"/>
        <pt x="120" y="-12" on="0"/>
        <pt x="42" y="92" on="0"/>
        <pt x="42" y="179" on="1"/>
        <pt x="42" y="247" on="0"/>
        <pt x="76" y="375" on="0"/>
        <pt x="141" y="473" on="0"/>
        <pt x="233" y="532" on="0"/>
        <pt x="291" y="532" on="1"/>
        <pt x="342" y="532" on="0"/>
        <pt x="416" y="479" on="0"/>
        <pt x="424" y="433" on="1"/>
        <pt x="429" y="433" on="1"/>
        <pt x="446" y="520" on="1"/>
        <pt x="550" y="520" on="1"/>
        <pt x="463" y="87" on="1"/>
        <pt x="530" y="87" on="1"/>
        <pt x="513" y="0" on="1"/>
      </contour>
      <contour>
        <pt x="232" y="77" on="1"/>
        <pt x="264" y="77" on="0"/>
        <pt x="313" y="105" on="0"/>
        <pt x="333" y="127" on="1"/>
        <pt x="376" y="173" on="0"/>
        <pt x="390" y="243" on="1"/>
        <pt x="411" y="348" on="1"/>
        <pt x="414" y="365" on="0"/>
        <pt x="404" y="399" on="0"/>
        <pt x="378" y="426" on="0"/>
        <pt x="337" y="443" on="0"/>
        <pt x="311" y="443" on="1"/>
        <pt x="253" y="443" on="0"/>
        <pt x="183" y="372" on="0"/>
        <pt x="169" y="303" on="1"/>
        <pt x="154" y="230" on="1"/>
        <pt x="152" y="218" on="0"/>
        <pt x="149" y="188" on="0"/>
        <pt x="149" y="176" on="1"/>
        <pt x="149" y="132" on="0"/>
        <pt x="190" y="77" on="0"/>
      </contour>
    </TTGlyph>
    <TTGlyph name="a.alt01" xMin="23" yMin="-12" xMax="485" yMax="532">
      <contour>
        <pt x="165" y="-12" on="1"/>
        <pt x="97" y="-12" on="0"/>
        <pt x="23" y="59" on="0"/>
        <pt x="23" y="118" on="1"/>
        <pt x="23" y="203" on="0"/>
        <pt x="143" y="298" on="0"/>
        <pt x="261" y="298" on="1"/>
        <pt x="361" y="298" on="1"/>
        <pt x="368" y="336" on="1"/>
        <pt x="371" y="352" on="0"/>
        <pt x="371" y="365" on="1"/>
        <pt x="371" y="444" on="0"/>
        <pt x="278" y="444" on="1"/>
        <pt x="230" y="444" on="0"/>
        <pt x="171" y="405" on="0"/>
        <pt x="147" y="373" on="1"/>
        <pt x="85" y="433" on="1"/>
        <pt x="116" y="477" on="0"/>
        <pt x="220" y="532" on="0"/>
        <pt x="292" y="532" on="1"/>
        <pt x="384" y="532" on="0"/>
        <pt x="476" y="445" on="0"/>
        <pt x="476" y="377" on="1"/>
        <pt x="476" y="356" on="0"/>
        <pt x="472" y="333" on="1"/>
        <pt x="422" y="87" on="1"/>
        <pt x="485" y="87" on="1"/>
        <pt x="468" y="0" on="1"/>
        <pt x="402" y="0" on="1"/>
        <pt x="367" y="0" on="0"/>
        <pt x="326" y="36" on="0"/>
        <pt x="326" y="68" on="1"/>
        <pt x="326" y="73" on="0"/>
        <pt x="326" y="81" on="0"/>
        <pt x="327" y="87" on="1"/>
        <pt x="322" y="87" on="1"/>
        <pt x="297" y="36" on="0"/>
        <pt x="218" y="-12" on="0"/>
      </contour>
      <contour>
        <pt x="202" y="70" on="1"/>
        <pt x="249" y="70" on="0"/>
        <pt x="324" y="115" on="0"/>
        <pt x="332" y="154" on="1"/>
        <pt x="347" y="231" on="1"/>
        <pt x="255" y="231" on="1"/>
        <pt x="201" y="231" on="0"/>
        <pt x="143" y="195" on="0"/>
        <pt x="135" y="161" on="1"/>
        <pt x="131" y="144" on="0"/>
        <pt x="130" y="130" on="0"/>
        <pt x="130" y="125" on="1"/>
        <pt x="130" y="99" on="0"/>
        <pt x="170" y="70" on="0"/>
      </contour>
    </TTGlyph>
    <TTGlyph name="aacute" xMin="42" yMin="-12" xMax="550" yMax="795">
      <component glyphName="a" x="0" y="0" flags="0x204"/>
      <component glyphName="acute" x="41" y="0" flags="0x4"/>
    </TTGlyph>
    <TTGlyph name="aacute.alt01" xMin="23" yMin="-12" xMax="485" yMax="795">
      <component glyphName="a.alt01" x="0" y="0" flags="0x204"/>
      <component glyphName="acute" x="4" y="0" flags="0x4"/>
    </TTGlyph>
    <TTGlyph name="abreve" xMin="42" yMin="-12" xMax="550" yMax="768">
      <component glyphName="a" x="0" y="0" flags="0x204"/>
      <component glyphName="breve" x="41" y="0" flags="0x4"/>
    </TTGlyph>
    <TTGlyph name="abreve.alt01" xMin="23" yMin="-12" xMax="498" yMax="768">
      <component glyphName="a.alt01" x="0" y="0" flags="0x204"/>
      <component glyphName="breve" x="4" y="0" flags="0x4"/>
    </TTGlyph>
    <TTGlyph name="acircumflex" xMin="42" yMin="-12" xMax="550" yMax="778">
      <component glyphName="a" x="0" y="0" flags="0x204"/>
      <component glyphName="circumflex" x="41" y="0" flags="0x4"/>
    </TTGlyph>
    <TTGlyph name="acircumflex.alt01" xMin="23" yMin="-12" xMax="485" yMax="778">
      <component glyphName="a.alt01" x="0" y="0" flags="0x204"/>
      <component glyphName="circumflex" x="4" y="0" flags="0x4"/>
    </TTGlyph>
    <TTGlyph name="acute" xMin="255" yMin="582" xMax="452" yMax="795">
      <contour>
        <pt x="318" y="582" on="1"/>
        <pt x="255" y="616" on="1"/>
        <pt x="365" y="795" on="1"/>
        <pt x="452" y="749" on="1"/>
      </contour>
    </TTGlyph>
    <TTGlyph name="acute.case" xMin="254" yMin="749" xMax="451" yMax="962">
      <contour>
        <pt x="318" y="749" on="1"/>
        <pt x="254" y="783" on="1"/>
        <pt x="364" y="962" on="1"/>
        <pt x="451" y="916" on="1"/>
      </contour>
    </TTGlyph>
    <TTGlyph name="adieresis" xMin="42" yMin="-12" xMax="550" yMax="734">
      <component glyphName="a" x="0" y="0" flags="0x204"/>
      <component glyphName="dieresis" x="41" y="0" flags="0x4"/>
    </TTGlyph>
    <TTGlyph name="adieresis.alt01" xMin="23" yMin="-12" xMax="485" yMax="734">
      <component glyphName="a.alt01" x="0" y="0" flags="0x204"/>
      <component glyphName="dieresis" x="4" y="0" flags="0x4"/>
    </TTGlyph>
    <TTGlyph name="ae" xMin="23" yMin="-12" xMax="795" yMax="532">
      <contour>
        <pt x="204" y="70" on="1"/>
        <pt x="226" y="70" on="0"/>
        <pt x="269" y="82" on="0"/>
        <pt x="304" y="104" on="0"/>
        <pt x="328" y="135" on="0"/>
        <pt x="332" y="154" on="1"/>
        <pt x="346" y="224" on="1"/>
        <pt x="255" y="220" on="1"/>
        <pt x="208" y="218" on="0"/>
        <pt x="143" y="195" on="0"/>
        <pt x="135" y="161" on="1"/>
        <pt x="131" y="145" on="0"/>
        <pt x="130" y="129" on="0"/>
        <pt x="130" y="125" on="1"/>
        <pt x="130" y="99" on="0"/>
        <pt x="169" y="70" on="0"/>
      </contour>
      <contour>
        <pt x="615" y="449" on="1"/>
        <pt x="557" y="449" on="0"/>
        <pt x="481" y="376" on="0"/>
        <pt x="467" y="314" on="1"/>
        <pt x="462" y="292" on="1"/>
        <pt x="533" y="295" on="0"/>
        <pt x="622" y="309" on="0"/>
        <pt x="673" y="331" on="0"/>
        <pt x="692" y="361" on="0"/>
        <pt x="692" y="381" on="1"/>
        <pt x="692" y="402" on="0"/>
        <pt x="678" y="429" on="0"/>
        <pt x="655" y="444" on="0"/>
        <pt x="628" y="449" on="0"/>
      </contour>
      <contour>
        <pt x="174" y="-12" on="1"/>
        <pt x="101" y="-12" on="0"/>
        <pt x="23" y="59" on="0"/>
        <pt x="23" y="123" on="1"/>
        <pt x="23" y="278" on="0"/>
        <pt x="260" y="287" on="1"/>
        <pt x="360" y="291" on="1"/>
        <pt x="368" y="336" on="1"/>
        <pt x="371" y="352" on="0"/>
        <pt x="371" y="365" on="1"/>
        <pt x="371" y="444" on="0"/>
        <pt x="277" y="444" on="1"/>
        <pt x="230" y="444" on="0"/>
        <pt x="171" y="405" on="0"/>
        <pt x="147" y="373" on="1"/>
        <pt x="85" y="433" on="1"/>
        <pt x="116" y="478" on="0"/>
        <pt x="221" y="532" on="0"/>
        <pt x="288" y="532" on="1"/>
        <pt x="348" y="532" on="0"/>
        <pt x="421" y="486" on="0"/>
        <pt x="438" y="445" on="1"/>
        <pt x="445" y="445" on="1"/>
        <pt x="477" y="486" on="0"/>
        <pt x="565" y="532" on="0"/>
        <pt x="621" y="532" on="1"/>
        <pt x="651" y="532" on="0"/>
        <pt x="713" y="517" on="0"/>
        <pt x="763" y="483" on="0"/>
        <pt x="795" y="429" on="0"/>
        <pt x="795" y="391" on="1"/>
        <pt x="795" y="307" on="0"/>
        <pt x="625" y="226" on="0"/>
        <pt x="450" y="223" on="1"/>
        <pt x="447" y="200" on="0"/>
        <pt x="447" y="179" on="1"/>
        <pt x="447" y="134" on="0"/>
        <pt x="500" y="76" on="0"/>
        <pt x="557" y="76" on="1"/>
        <pt x="600" y="76" on="0"/>
        <pt x="670" y="114" on="0"/>
        <pt x="702" y="154" on="1"/>
        <pt x="768" y="99" on="1"/>
        <pt x="719" y="38" on="0"/>
        <pt x="611" y="-12" on="0"/>
        <pt x="549" y="-12" on="1"/>
        <pt x="479" y="-12" on="0"/>
        <pt x="387" y="43" on="0"/>
        <pt x="365" y="93" on="1"/>
        <pt x="358" y="93" on="1"/>
        <pt x="330" y="39" on="0"/>
        <pt x="233" y="-12" on="0"/>
      </contour>
    </TTGlyph>
    <TTGlyph name="aeacute" xMin="23" yMin="-12" xMax="795" yMax="795">
      <component glyphName="ae" x="0" y="0" flags="0x204"/>
      <component glyphName="acute" x="171" y="0" flags="0x4"/>
    </TTGlyph>
    <TTGlyph name="agrave" xMin="42" yMin="-12" xMax="550" yMax="794">
      <component glyphName="a" x="0" y="0" flags="0x204"/>
      <component glyphName="grave" x="40" y="0" flags="0x4"/>
    </TTGlyph>
    <TTGlyph name="agrave.alt01" xMin="23" yMin="-12" xMax="485" yMax="794">
      <component glyphName="a.alt01" x="0" y="0" flags="0x204"/>
      <component glyphName="grave" x="3" y="0" flags="0x4"/>
    </TTGlyph>
    <TTGlyph name="alpha" xMin="42" yMin="-12" xMax="653" yMax="532">
      <contour>
        <pt x="562" y="0" on="1"/>
        <pt x="501" y="0" on="1"/>
        <pt x="462" y="0" on="0"/>
        <pt x="419" y="43" on="0"/>
        <pt x="420" y="85" on="1"/>
        <pt x="421" y="169" on="1"/>
        <pt x="417" y="169" on="1"/>
        <pt x="390" y="115" on="0"/>
        <pt x="339" y="45" on="0"/>
        <pt x="287" y="4" on="0"/>
        <pt x="232" y="-12" on="0"/>
        <pt x="202" y="-12" on="1"/>
        <pt x="125" y="-12" on="0"/>
        <pt x="42" y="85" on="0"/>
        <pt x="42" y="179" on="1"/>
        <pt x="42" y="251" on="0"/>
        <pt x="77" y="379" on="0"/>
        <pt x="142" y="476" on="0"/>
        <pt x="235" y="532" on="0"/>
        <pt x="292" y="532" on="1"/>
        <pt x="368" y="532" on="0"/>
        <pt x="445" y="447" on="0"/>
        <pt x="451" y="351" on="1"/>
        <pt x="455" y="351" on="1"/>
        <pt x="499" y="446" on="1"/>
        <pt x="537" y="520" on="1"/>
        <pt x="653" y="520" on="1"/>
        <pt x="492" y="261" on="1"/>
        <pt x="520" y="87" on="1"/>
        <pt x="579" y="87" on="1"/>
      </contour>
      <contour>
        <pt x="222" y="77" on="1"/>
        <pt x="235" y="77" on="0"/>
        <pt x="261" y="86" on="0"/>
        <pt x="290" y="110" on="0"/>
        <pt x="322" y="151" on="0"/>
        <pt x="341" y="184" on="1"/>
        <pt x="387" y="260" on="1"/>
        <pt x="374" y="336" on="1"/>
        <pt x="364" y="399" on="0"/>
        <pt x="326" y="443" on="0"/>
        <pt x="295" y="443" on="1"/>
        <pt x="252" y="443" on="0"/>
        <pt x="183" y="372" on="0"/>
        <pt x="169" y="303" on="1"/>
        <pt x="154" y="230" on="1"/>
        <pt x="151" y="214" on="0"/>
        <pt x="149" y="187" on="0"/>
        <pt x="149" y="173" on="1"/>
        <pt x="149" y="121" on="0"/>
        <pt x="188" y="77" on="0"/>
      </contour>
    </TTGlyph>
    <TTGlyph name="alpha.alt01" xMin="42" yMin="-12" xMax="550" yMax="532">
      <component glyphName="a" x="0" y="0" flags="0x204"/>
    </TTGlyph>
    <TTGlyph name="alphatonos" xMin="42" yMin="-12" xMax="653" yMax="795">
      <component glyphName="alpha" x="0" y="0" flags="0x204"/>
      <component glyphName="tonos" x="0" y="0" flags="0x4"/>
    </TTGlyph>
    <TTGlyph name="alphatonos.alt01" xMin="42" yMin="-12" xMax="550" yMax="795">
      <component glyphName="a" x="0" y="0" flags="0x204"/>
      <component glyphName="tonos" x="0" y="0" flags="0x4"/>
    </TTGlyph>
    <TTGlyph name="amacron" xMin="42" yMin="-12" xMax="550" yMax="714">
      <component glyphName="a" x="0" y="0" flags="0x204"/>
      <component glyphName="macron" x="40" y="0" flags="0x4"/>
    </TTGlyph>
    <TTGlyph name="amacron.alt01" xMin="23" yMin="-12" xMax="485" yMax="714">
      <component glyphName="a.alt01" x="0" y="0" flags="0x204"/>
      <component glyphName="macron" x="3" y="0" flags="0x4"/>
    </TTGlyph>
    <TTGlyph name="ampersand" xMin="34" yMin="-12" xMax="657" yMax="710">
      <contour>
        <pt x="434" y="73" on="1"/>
        <pt x="393" y="35" on="0"/>
        <pt x="289" y="-12" on="0"/>
        <pt x="223" y="-12" on="1"/>
        <pt x="130" y="-12" on="0"/>
        <pt x="34" y="81" on="0"/>
        <pt x="34" y="154" on="1"/>
        <pt x="34" y="198" on="0"/>
        <pt x="64" y="265" on="0"/>
        <pt x="113" y="319" on="0"/>
        <pt x="179" y="361" on="0"/>
        <pt x="215" y="379" on="1"/>
        <pt x="196" y="406" on="0"/>
        <pt x="165" y="473" on="0"/>
        <pt x="165" y="514" on="1"/>
        <pt x="165" y="554" on="0"/>
        <pt x="195" y="625" on="0"/>
        <pt x="250" y="679" on="0"/>
        <pt x="327" y="710" on="0"/>
        <pt x="374" y="710" on="1"/>
        <pt x="407" y="710" on="0"/>
        <pt x="465" y="693" on="0"/>
        <pt x="509" y="658" on="0"/>
        <pt x="535" y="606" on="0"/>
        <pt x="535" y="571" on="1"/>
        <pt x="535" y="533" on="0"/>
        <pt x="503" y="472" on="0"/>
        <pt x="451" y="421" on="0"/>
        <pt x="384" y="380" on="0"/>
        <pt x="349" y="362" on="1"/>
        <pt x="451" y="219" on="1"/>
        <pt x="470" y="254" on="0"/>
        <pt x="498" y="333" on="0"/>
        <pt x="507" y="375" on="1"/>
        <pt x="657" y="375" on="1"/>
        <pt x="639" y="285" on="1"/>
        <pt x="566" y="285" on="1"/>
        <pt x="554" y="248" on="0"/>
        <pt x="522" y="177" on="0"/>
        <pt x="502" y="147" on="1"/>
        <pt x="607" y="0" on="1"/>
        <pt x="486" y="0" on="1"/>
      </contour>
      <contour>
        <pt x="361" y="625" on="1"/>
        <pt x="326" y="625" on="0"/>
        <pt x="278" y="582" on="0"/>
        <pt x="270" y="548" on="1"/>
        <pt x="267" y="534" on="0"/>
        <pt x="267" y="519" on="1"/>
        <pt x="267" y="497" on="0"/>
        <pt x="284" y="454" on="0"/>
        <pt x="305" y="423" on="1"/>
        <pt x="360" y="450" on="0"/>
        <pt x="431" y="511" on="0"/>
        <pt x="431" y="558" on="1"/>
        <pt x="431" y="590" on="0"/>
        <pt x="392" y="625" on="0"/>
      </contour>
      <contour>
        <pt x="247" y="78" on="1"/>
        <pt x="290" y="78" on="0"/>
        <pt x="360" y="109" on="0"/>
        <pt x="389" y="136" on="1"/>
        <pt x="258" y="318" on="1"/>
        <pt x="214" y="296" on="0"/>
        <pt x="154" y="245" on="0"/>
        <pt x="143" y="200" on="1"/>
        <pt x="140" y="186" on="0"/>
        <pt x="140" y="171" on="1"/>
        <pt x="140" y="126" on="0"/>
        <pt x="195" y="78" on="0"/>
      </contour>
    </TTGlyph>
    <TTGlyph name="anoteleia" xMin="119" yMin="378" xMax="265" yMax="529">
      <component glyphName="period" x="88" y="390" flags="0x4"/>
    </TTGlyph>
    <TTGlyph name="aogonek" xMin="42" yMin="-209" xMax="550" yMax="532">
      <contour>
        <pt x="513" y="0" on="1"/>
        <pt x="473" y="-26" on="0"/>
        <pt x="426" y="-63" on="0"/>
        <pt x="402" y="-90" on="0"/>
        <pt x="395" y="-110" on="0"/>
        <pt x="395" y="-117" on="1"/>
        <pt x="395" y="-147" on="0"/>
        <pt x="429" y="-147" on="1"/>
        <pt x="443" y="-147" on="0"/>
        <pt x="471" y="-135" on="0"/>
        <pt x="483" y="-120" on="1"/>
        <pt x="526" y="-167" on="1"/>
        <pt x="511" y="-184" on="0"/>
        <pt x="458" y="-209" on="0"/>
        <pt x="418" y="-209" on="1"/>
        <pt x="397" y="-209" on="0"/>
        <pt x="358" y="-200" on="0"/>
        <pt x="329" y="-181" on="0"/>
        <pt x="312" y="-151" on="0"/>
        <pt x="312" y="-131" on="1"/>
        <pt x="312" y="-51" on="0"/>
        <pt x="442" y="-5" on="1"/>
        <pt x="441" y="0" on="1"/>
        <pt x="434" y="0" on="1"/>
        <pt x="399" y="0" on="0"/>
        <pt x="358" y="36" on="0"/>
        <pt x="358" y="68" on="1"/>
        <pt x="358" y="85" on="0"/>
        <pt x="361" y="97" on="1"/>
        <pt x="365" y="116" on="1"/>
        <pt x="361" y="116" on="1"/>
        <pt x="329" y="52" on="0"/>
        <pt x="252" y="-12" on="0"/>
        <pt x="192" y="-12" on="1"/>
        <pt x="120" y="-12" on="0"/>
        <pt x="42" y="92" on="0"/>
        <pt x="42" y="179" on="1"/>
        <pt x="42" y="247" on="0"/>
        <pt x="76" y="375" on="0"/>
        <pt x="141" y="473" on="0"/>
        <pt x="233" y="532" on="0"/>
        <pt x="291" y="532" on="1"/>
        <pt x="342" y="532" on="0"/>
        <pt x="416" y="479" on="0"/>
        <pt x="424" y="433" on="1"/>
        <pt x="429" y="433" on="1"/>
        <pt x="446" y="520" on="1"/>
        <pt x="550" y="520" on="1"/>
        <pt x="463" y="87" on="1"/>
        <pt x="530" y="87" on="1"/>
      </contour>
      <contour>
        <pt x="232" y="77" on="1"/>
        <pt x="264" y="77" on="0"/>
        <pt x="314" y="106" on="0"/>
        <pt x="333" y="127" on="1"/>
        <pt x="376" y="175" on="0"/>
        <pt x="390" y="243" on="1"/>
        <pt x="411" y="348" on="1"/>
        <pt x="414" y="365" on="0"/>
        <pt x="404" y="399" on="0"/>
        <pt x="378" y="426" on="0"/>
        <pt x="337" y="443" on="0"/>
        <pt x="311" y="443" on="1"/>
        <pt x="253" y="443" on="0"/>
        <pt x="183" y="372" on="0"/>
        <pt x="169" y="303" on="1"/>
        <pt x="154" y="230" on="1"/>
        <pt x="152" y="218" on="0"/>
        <pt x="149" y="188" on="0"/>
        <pt x="149" y="176" on="1"/>
        <pt x="149" y="132" on="0"/>
        <pt x="190" y="77" on="0"/>
      </contour>
    </TTGlyph>
    <TTGlyph name="aogonek.alt01" xMin="23" yMin="-209" xMax="485" yMax="532">
      <contour>
        <pt x="165" y="-12" on="1"/>
        <pt x="97" y="-12" on="0"/>
        <pt x="23" y="59" on="0"/>
        <pt x="23" y="118" on="1"/>
        <pt x="23" y="203" on="0"/>
        <pt x="143" y="298" on="0"/>
        <pt x="261" y="298" on="1"/>
        <pt x="361" y="298" on="1"/>
        <pt x="368" y="336" on="1"/>
        <pt x="371" y="352" on="0"/>
        <pt x="371" y="365" on="1"/>
        <pt x="371" y="444" on="0"/>
        <pt x="278" y="444" on="1"/>
        <pt x="230" y="444" on="0"/>
        <pt x="171" y="405" on="0"/>
        <pt x="147" y="373" on="1"/>
        <pt x="85" y="433" on="1"/>
        <pt x="116" y="477" on="0"/>
        <pt x="220" y="532" on="0"/>
        <pt x="292" y="532" on="1"/>
        <pt x="384" y="532" on="0"/>
        <pt x="476" y="445" on="0"/>
        <pt x="476" y="377" on="1"/>
        <pt x="476" y="356" on="0"/>
        <pt x="472" y="333" on="1"/>
        <pt x="422" y="87" on="1"/>
        <pt x="485" y="87" on="1"/>
        <pt x="468" y="0" on="1"/>
        <pt x="428" y="-26" on="0"/>
        <pt x="381" y="-63" on="0"/>
        <pt x="357" y="-90" on="0"/>
        <pt x="350" y="-110" on="0"/>
        <pt x="350" y="-117" on="1"/>
        <pt x="350" y="-147" on="0"/>
        <pt x="384" y="-147" on="1"/>
        <pt x="398" y="-147" on="0"/>
        <pt x="426" y="-135" on="0"/>
        <pt x="438" y="-120" on="1"/>
        <pt x="481" y="-167" on="1"/>
        <pt x="466" y="-184" on="0"/>
        <pt x="413" y="-209" on="0"/>
        <pt x="373" y="-209" on="1"/>
        <pt x="352" y="-209" on="0"/>
        <pt x="313" y="-200" on="0"/>
        <pt x="284" y="-181" on="0"/>
        <pt x="267" y="-151" on="0"/>
        <pt x="267" y="-131" on="1"/>
        <pt x="267" y="-51" on="0"/>
        <pt x="397" y="-5" on="1"/>
        <pt x="396" y="0" on="1"/>
        <pt x="363" y="2" on="0"/>
        <pt x="326" y="38" on="0"/>
        <pt x="326" y="68" on="1"/>
        <pt x="326" y="73" on="0"/>
        <pt x="326" y="80" on="0"/>
        <pt x="327" y="87" on="1"/>
        <pt x="322" y="87" on="1"/>
        <pt x="297" y="36" on="0"/>
        <pt x="218" y="-12" on="0"/>
      </contour>
      <contour>
        <pt x="202" y="70" on="1"/>
        <pt x="249" y="70" on="0"/>
        <pt x="324" y="115" on="0"/>
        <pt x="332" y="154" on="1"/>
        <pt x="347" y="231" on="1"/>
        <pt x="255" y="231" on="1"/>
        <pt x="201" y="231" on="0"/>
        <pt x="143" y="194" on="0"/>
        <pt x="135" y="161" on="1"/>
        <pt x="131" y="144" on="0"/>
        <pt x="130" y="130" on="0"/>
        <pt x="130" y="125" on="1"/>
        <pt x="130" y="99" on="0"/>
        <pt x="170" y="70" on="0"/>
      </contour>
    </TTGlyph>
    <TTGlyph name="approxequal" xMin="54" yMin="120" xMax="558" yMax="492">
      <component glyphName="asciitilde" x="19" y="107" flags="0x204"/>
      <component glyphName="asciitilde" x="-18" y="-105" flags="0x4"/>
    </TTGlyph>
    <TTGlyph name="aring" xMin="42" yMin="-12" xMax="550" yMax="822">
      <component glyphName="a" x="0" y="0" flags="0x204"/>
      <component glyphName="ring" x="40" y="0" flags="0x4"/>
    </TTGlyph>
    <TTGlyph name="aring.alt01" xMin="23" yMin="-12" xMax="485" yMax="822">
      <component glyphName="a.alt01" x="0" y="0" flags="0x204"/>
      <component glyphName="ring" x="3" y="0" flags="0x4"/>
    </TTGlyph>
    <TTGlyph name="aringacute" xMin="42" yMin="-12" xMax="550" yMax="970">
      <component glyphName="a" x="0" y="0" flags="0x204"/>
      <component glyphName="ringacute" x="40" y="0" flags="0x4"/>
    </TTGlyph>
    <TTGlyph name="aringacute.alt01" xMin="23" yMin="-12" xMax="485" yMax="970">
      <component glyphName="a.alt01" x="0" y="0" flags="0x204"/>
      <component glyphName="ringacute" x="3" y="0" flags="0x4"/>
    </TTGlyph>
    <TTGlyph name="asciicircum" xMin="63" yMin="289" xMax="567" yMax="698">
      <contour>
        <pt x="481" y="289" on="1"/>
        <pt x="372" y="591" on="1"/>
        <pt x="365" y="591" on="1"/>
        <pt x="140" y="289" on="1"/>
        <pt x="63" y="336" on="1"/>
        <pt x="330" y="698" on="1"/>
        <pt x="435" y="698" on="1"/>
        <pt x="567" y="325" on="1"/>
      </contour>
    </TTGlyph>
    <TTGlyph name="asciitilde" xMin="72" yMin="225" xMax="539" yMax="385">
      <contour>
        <pt x="406" y="225" on="1"/>
        <pt x="369" y="225" on="0"/>
        <pt x="318" y="247" on="0"/>
        <pt x="289" y="264" on="1"/>
        <pt x="265" y="278" on="0"/>
        <pt x="218" y="298" on="0"/>
        <pt x="188" y="298" on="1"/>
        <pt x="165" y="298" on="0"/>
        <pt x="127" y="282" on="0"/>
        <pt x="102" y="266" on="1"/>
        <pt x="72" y="329" on="1"/>
        <pt x="95" y="353" on="0"/>
        <pt x="157" y="385" on="0"/>
        <pt x="205" y="385" on="1"/>
        <pt x="242" y="385" on="0"/>
        <pt x="293" y="363" on="0"/>
        <pt x="322" y="347" on="1"/>
        <pt x="347" y="333" on="0"/>
        <pt x="394" y="313" on="0"/>
        <pt x="424" y="313" on="1"/>
        <pt x="447" y="313" on="0"/>
        <pt x="485" y="328" on="0"/>
        <pt x="509" y="345" on="1"/>
        <pt x="539" y="281" on="1"/>
        <pt x="516" y="257" on="0"/>
        <pt x="454" y="225" on="0"/>
      </contour>
    </TTGlyph>
    <TTGlyph name="asterisk" xMin="95" yMin="320" xMax="530" yMax="747">
      <contour>
        <pt x="178" y="320" on="1"/>
        <pt x="109" y="380" on="1"/>
        <pt x="239" y="510" on="1"/>
        <pt x="95" y="554" on="1"/>
        <pt x="135" y="641" on="1"/>
        <pt x="275" y="580" on="1"/>
        <pt x="302" y="747" on="1"/>
        <pt x="396" y="747" on="1"/>
        <pt x="358" y="581" on="1"/>
        <pt x="510" y="639" on="1"/>
        <pt x="530" y="554" on="1"/>
        <pt x="367" y="505" on="1"/>
        <pt x="443" y="373" on="1"/>
        <pt x="364" y="323" on="1"/>
        <pt x="298" y="464" on="1"/>
      </contour>
    </TTGlyph>
    <TTGlyph name="at" xMin="62" yMin="-121" xMax="832" yMax="708">
      <contour>
        <pt x="370" y="-121" on="1"/>
        <pt x="297" y="-121" on="0"/>
        <pt x="182" y="-76" on="0"/>
        <pt x="103" y="8" on="0"/>
        <pt x="62" y="127" on="0"/>
        <pt x="62" y="201" on="1"/>
        <pt x="62" y="224" on="0"/>
        <pt x="67" y="279" on="0"/>
        <pt x="73" y="311" on="1"/>
        <pt x="91" y="398" on="0"/>
        <pt x="170" y="543" on="0"/>
        <pt x="285" y="649" on="0"/>
        <pt x="432" y="708" on="0"/>
        <pt x="518" y="708" on="1"/>
        <pt x="587" y="708" on="0"/>
        <pt x="702" y="665" on="0"/>
        <pt x="786" y="586" on="0"/>
        <pt x="832" y="472" on="0"/>
        <pt x="832" y="402" on="1"/>
        <pt x="832" y="385" on="0"/>
        <pt x="828" y="342" on="0"/>
        <pt x="823" y="317" on="1"/>
        <pt x="812" y="266" on="0"/>
        <pt x="775" y="177" on="0"/>
        <pt x="721" y="112" on="0"/>
        <pt x="652" y="74" on="0"/>
        <pt x="609" y="74" on="1"/>
        <pt x="560" y="74" on="0"/>
        <pt x="510" y="119" on="0"/>
        <pt x="510" y="161" on="1"/>
        <pt x="510" y="173" on="1"/>
        <pt x="506" y="173" on="1"/>
        <pt x="491" y="132" on="0"/>
        <pt x="423" y="74" on="0"/>
        <pt x="377" y="74" on="1"/>
        <pt x="320" y="74" on="0"/>
        <pt x="247" y="152" on="0"/>
        <pt x="247" y="230" on="1"/>
        <pt x="247" y="244" on="0"/>
        <pt x="250" y="279" on="0"/>
        <pt x="255" y="301" on="1"/>
        <pt x="275" y="401" on="0"/>
        <pt x="375" y="504" on="0"/>
        <pt x="444" y="504" on="1"/>
        <pt x="489" y="504" on="0"/>
        <pt x="539" y="463" on="0"/>
        <pt x="548" y="425" on="1"/>
        <pt x="552" y="425" on="1"/>
        <pt x="566" y="495" on="1"/>
        <pt x="653" y="495" on="1"/>
        <pt x="596" y="211" on="1"/>
        <pt x="594" y="203" on="0"/>
        <pt x="592" y="186" on="0"/>
        <pt x="592" y="178" on="1"/>
        <pt x="592" y="144" on="0"/>
        <pt x="626" y="144" on="1"/>
        <pt x="666" y="144" on="0"/>
        <pt x="726" y="230" on="0"/>
        <pt x="743" y="310" on="1"/>
        <pt x="752" y="353" on="1"/>
        <pt x="754" y="364" on="0"/>
        <pt x="756" y="388" on="0"/>
        <pt x="756" y="411" on="1"/>
        <pt x="756" y="463" on="0"/>
        <pt x="721" y="547" on="0"/>
        <pt x="657" y="606" on="0"/>
        <pt x="566" y="638" on="0"/>
        <pt x="510" y="638" on="1"/>
        <pt x="444" y="638" on="0"/>
        <pt x="327" y="593" on="0"/>
        <pt x="235" y="511" on="0"/>
        <pt x="171" y="396" on="0"/>
        <pt x="157" y="326" on="1"/>
        <pt x="147" y="275" on="1"/>
        <pt x="139" y="232" on="0"/>
        <pt x="139" y="201" on="1"/>
        <pt x="139" y="143" on="0"/>
        <pt x="171" y="50" on="0"/>
        <pt x="232" y="-15" on="0"/>
        <pt x="322" y="-50" on="0"/>
        <pt x="379" y="-50" on="1"/>
        <pt x="591" y="-50" on="1"/>
        <pt x="577" y="-121" on="1"/>
      </contour>
      <contour>
        <pt x="409" y="149" on="1"/>
        <pt x="430" y="149" on="0"/>
        <pt x="465" y="165" on="0"/>
        <pt x="493" y="191" on="0"/>
        <pt x="512" y="226" on="0"/>
        <pt x="516" y="244" on="1"/>
        <pt x="538" y="354" on="1"/>
        <pt x="543" y="382" on="0"/>
        <pt x="500" y="428" on="0"/>
        <pt x="459" y="428" on="1"/>
        <pt x="417" y="428" on="0"/>
        <pt x="363" y="375" on="0"/>
        <pt x="355" y="333" on="1"/>
        <pt x="338" y="249" on="1"/>
        <pt x="335" y="234" on="0"/>
        <pt x="335" y="224" on="1"/>
        <pt x="335" y="189" on="0"/>
        <pt x="374" y="149" on="0"/>
      </contour>
    </TTGlyph>
    <TTGlyph name="atilde" xMin="42" yMin="-12" xMax="550" yMax="736">
      <component glyphName="a" x="0" y="0" flags="0x204"/>
      <component glyphName="tilde" x="40" y="0" flags="0x4"/>
    </TTGlyph>
    <TTGlyph name="atilde.alt01" xMin="23" yMin="-12" xMax="493" yMax="736">
      <component glyphName="a.alt01" x="0" y="0" flags="0x204"/>
      <component glyphName="tilde" x="3" y="0" flags="0x4"/>
    </TTGlyph>
    <TTGlyph name="b" xMin="27" yMin="-12" xMax="535" yMax="740">
      <contour>
        <pt x="175" y="740" on="1"/>
        <pt x="279" y="740" on="1"/>
        <pt x="212" y="404" on="1"/>
        <pt x="216" y="404" on="1"/>
        <pt x="248" y="468" on="0"/>
        <pt x="325" y="532" on="0"/>
        <pt x="385" y="532" on="1"/>
        <pt x="457" y="532" on="0"/>
        <pt x="535" y="428" on="0"/>
        <pt x="535" y="341" on="1"/>
        <pt x="535" y="273" on="0"/>
        <pt x="501" y="145" on="0"/>
        <pt x="436" y="47" on="0"/>
        <pt x="344" y="-12" on="0"/>
        <pt x="286" y="-12" on="1"/>
        <pt x="235" y="-12" on="0"/>
        <pt x="161" y="40" on="0"/>
        <pt x="153" y="87" on="1"/>
        <pt x="148" y="87" on="1"/>
        <pt x="131" y="0" on="1"/>
        <pt x="27" y="0" on="1"/>
      </contour>
      <contour>
        <pt x="267" y="77" on="1"/>
        <pt x="324" y="77" on="0"/>
        <pt x="394" y="148" on="0"/>
        <pt x="408" y="217" on="1"/>
        <pt x="423" y="290" on="1"/>
        <pt x="425" y="302" on="0"/>
        <pt x="428" y="331" on="0"/>
        <pt x="428" y="344" on="1"/>
        <pt x="428" y="388" on="0"/>
        <pt x="386" y="443" on="0"/>
        <pt x="343" y="443" on="1"/>
        <pt x="312" y="443" on="0"/>
        <pt x="264" y="414" on="0"/>
        <pt x="244" y="393" on="1"/>
        <pt x="223" y="370" on="0"/>
        <pt x="194" y="313" on="0"/>
        <pt x="187" y="278" on="1"/>
        <pt x="168" y="183" on="1"/>
        <pt x="159" y="138" on="0"/>
        <pt x="209" y="77" on="0"/>
      </contour>
    </TTGlyph>
    <TTGlyph name="backslash" xMin="145" yMin="-151" xMax="322" yMax="740">
      <contour>
        <pt x="235" y="-151" on="1"/>
        <pt x="145" y="740" on="1"/>
        <pt x="232" y="740" on="1"/>
        <pt x="322" y="-151" on="1"/>
      </contour>
    </TTGlyph>
    <TTGlyph name="bar" xMin="47" yMin="-138" xMax="318" yMax="760">
      <contour>
        <pt x="47" y="-138" on="1"/>
        <pt x="227" y="760" on="1"/>
        <pt x="318" y="760" on="1"/>
        <pt x="138" y="-138" on="1"/>
      </contour>
    </TTGlyph>
    <TTGlyph name="beta" xMin="-14" yMin="-200" xMax="550" yMax="752">
      <contour>
        <pt x="129" y="512" on="1"/>
        <pt x="152" y="629" on="0"/>
        <pt x="280" y="752" on="0"/>
        <pt x="377" y="752" on="1"/>
        <pt x="460" y="752" on="0"/>
        <pt x="550" y="667" on="0"/>
        <pt x="550" y="589" on="1"/>
        <pt x="550" y="547" on="0"/>
        <pt x="526" y="482" on="0"/>
        <pt x="485" y="435" on="0"/>
        <pt x="428" y="404" on="0"/>
        <pt x="395" y="397" on="1"/>
        <pt x="394" y="392" on="1"/>
        <pt x="454" y="380" on="0"/>
        <pt x="516" y="301" on="0"/>
        <pt x="516" y="229" on="1"/>
        <pt x="516" y="180" on="0"/>
        <pt x="483" y="93" on="0"/>
        <pt x="424" y="27" on="0"/>
        <pt x="340" y="-12" on="0"/>
        <pt x="289" y="-12" on="1"/>
        <pt x="235" y="-12" on="0"/>
        <pt x="161" y="40" on="0"/>
        <pt x="152" y="87" on="1"/>
        <pt x="148" y="87" on="1"/>
        <pt x="90" y="-200" on="1"/>
        <pt x="-14" y="-200" on="1"/>
      </contour>
      <contour>
        <pt x="284" y="436" on="1"/>
        <pt x="321" y="436" on="1"/>
        <pt x="375" y="436" on="0"/>
        <pt x="428" y="487" on="0"/>
        <pt x="438" y="534" on="1"/>
        <pt x="443" y="552" on="0"/>
        <pt x="446" y="579" on="0"/>
        <pt x="446" y="590" on="1"/>
        <pt x="446" y="624" on="0"/>
        <pt x="408" y="664" on="0"/>
        <pt x="367" y="664" on="1"/>
        <pt x="322" y="664" on="0"/>
        <pt x="251" y="598" on="0"/>
        <pt x="235" y="520" on="1"/>
        <pt x="168" y="189" on="1"/>
        <pt x="158" y="139" on="0"/>
        <pt x="206" y="76" on="0"/>
        <pt x="269" y="76" on="1"/>
        <pt x="323" y="76" on="0"/>
        <pt x="394" y="129" on="0"/>
        <pt x="405" y="191" on="1"/>
        <pt x="409" y="208" on="0"/>
        <pt x="412" y="235" on="0"/>
        <pt x="412" y="250" on="1"/>
        <pt x="412" y="349" on="0"/>
        <pt x="306" y="349" on="1"/>
        <pt x="266" y="349" on="1"/>
      </contour>
    </TTGlyph>
    <TTGlyph name="braceleft" xMin="25" yMin="-138" xMax="394" yMax="760">
      <contour>
        <pt x="125" y="-138" on="1"/>
        <pt x="90" y="-138" on="0"/>
        <pt x="52" y="-102" on="0"/>
        <pt x="52" y="-70" on="1"/>
        <pt x="52" y="-59" on="0"/>
        <pt x="55" y="-44" on="1"/>
        <pt x="97" y="168" on="1"/>
        <pt x="100" y="183" on="0"/>
        <pt x="100" y="196" on="1"/>
        <pt x="100" y="230" on="0"/>
        <pt x="61" y="265" on="0"/>
        <pt x="25" y="265" on="1"/>
        <pt x="44" y="359" on="1"/>
        <pt x="92" y="359" on="0"/>
        <pt x="144" y="403" on="0"/>
        <pt x="153" y="447" on="1"/>
        <pt x="198" y="670" on="1"/>
        <pt x="206" y="715" on="0"/>
        <pt x="256" y="760" on="0"/>
        <pt x="294" y="760" on="1"/>
        <pt x="394" y="760" on="1"/>
        <pt x="379" y="679" on="1"/>
        <pt x="294" y="679" on="1"/>
        <pt x="247" y="442" on="1"/>
        <pt x="242" y="419" on="0"/>
        <pt x="225" y="376" on="0"/>
        <pt x="197" y="342" on="0"/>
        <pt x="155" y="319" on="0"/>
        <pt x="125" y="316" on="1"/>
        <pt x="123" y="306" on="1"/>
        <pt x="158" y="299" on="0"/>
        <pt x="199" y="251" on="0"/>
        <pt x="199" y="214" on="1"/>
        <pt x="199" y="206" on="0"/>
        <pt x="196" y="187" on="0"/>
        <pt x="194" y="179" on="1"/>
        <pt x="147" y="-57" on="1"/>
        <pt x="232" y="-57" on="1"/>
        <pt x="215" y="-138" on="1"/>
      </contour>
    </TTGlyph>
    <TTGlyph name="braceright" xMin="-32" yMin="-138" xMax="338" yMax="760">
      <contour>
        <pt x="-16" y="-57" on="1"/>
        <pt x="68" y="-57" on="1"/>
        <pt x="115" y="180" on="1"/>
        <pt x="119" y="202" on="0"/>
        <pt x="137" y="246" on="0"/>
        <pt x="165" y="280" on="0"/>
        <pt x="208" y="303" on="0"/>
        <pt x="238" y="306" on="1"/>
        <pt x="239" y="316" on="1"/>
        <pt x="205" y="323" on="0"/>
        <pt x="164" y="371" on="0"/>
        <pt x="164" y="409" on="1"/>
        <pt x="164" y="417" on="0"/>
        <pt x="166" y="435" on="0"/>
        <pt x="168" y="443" on="1"/>
        <pt x="215" y="679" on="1"/>
        <pt x="130" y="679" on="1"/>
        <pt x="147" y="760" on="1"/>
        <pt x="238" y="760" on="1"/>
        <pt x="273" y="760" on="0"/>
        <pt x="310" y="724" on="0"/>
        <pt x="310" y="692" on="1"/>
        <pt x="310" y="687" on="0"/>
        <pt x="310" y="674" on="0"/>
        <pt x="308" y="666" on="1"/>
        <pt x="265" y="454" on="1"/>
        <pt x="262" y="439" on="0"/>
        <pt x="262" y="426" on="1"/>
        <pt x="262" y="391" on="0"/>
        <pt x="302" y="358" on="0"/>
        <pt x="338" y="358" on="1"/>
        <pt x="319" y="264" on="1"/>
        <pt x="271" y="264" on="0"/>
        <pt x="218" y="218" on="0"/>
        <pt x="209" y="175" on="1"/>
        <pt x="165" y="-48" on="1"/>
        <pt x="156" y="-93" on="0"/>
        <pt x="107" y="-138" on="0"/>
        <pt x="69" y="-138" on="1"/>
        <pt x="-32" y="-138" on="1"/>
      </contour>
    </TTGlyph>
    <TTGlyph name="bracketleft" xMin="5" yMin="-138" xMax="369" yMax="760">
      <contour>
        <pt x="5" y="-138" on="1"/>
        <pt x="185" y="760" on="1"/>
        <pt x="369" y="760" on="1"/>
        <pt x="353" y="682" on="1"/>
        <pt x="263" y="682" on="1"/>
        <pt x="114" y="-60" on="1"/>
        <pt x="204" y="-60" on="1"/>
        <pt x="189" y="-138" on="1"/>
      </contour>
    </TTGlyph>
    <TTGlyph name="bracketright" xMin="-28" yMin="-138" xMax="336" yMax="760">
      <contour>
        <pt x="336" y="760" on="1"/>
        <pt x="156" y="-138" on="1"/>
        <pt x="-28" y="-138" on="1"/>
        <pt x="-12" y="-60" on="1"/>
        <pt x="78" y="-60" on="1"/>
        <pt x="227" y="682" on="1"/>
        <pt x="136" y="682" on="1"/>
        <pt x="152" y="760" on="1"/>
      </contour>
    </TTGlyph>
    <TTGlyph name="breve" xMin="158" yMin="589" xMax="494" yMax="768">
      <contour>
        <pt x="305" y="589" on="1"/>
        <pt x="266" y="589" on="0"/>
        <pt x="213" y="617" on="0"/>
        <pt x="180" y="661" on="0"/>
        <pt x="162" y="714" on="0"/>
        <pt x="158" y="739" on="1"/>
        <pt x="218" y="768" on="1"/>
        <pt x="232" y="739" on="1"/>
        <pt x="247" y="705" on="0"/>
        <pt x="280" y="668" on="0"/>
        <pt x="310" y="668" on="1"/>
        <pt x="337" y="668" on="0"/>
        <pt x="380" y="702" on="0"/>
        <pt x="409" y="740" on="1"/>
        <pt x="431" y="768" on="1"/>
        <pt x="494" y="737" on="1"/>
        <pt x="480" y="711" on="0"/>
        <pt x="447" y="659" on="0"/>
        <pt x="402" y="616" on="0"/>
        <pt x="343" y="589" on="0"/>
      </contour>
    </TTGlyph>
    <TTGlyph name="breve.case" xMin="160" yMin="755" xMax="496" yMax="934">
      <contour>
        <pt x="308" y="755" on="1"/>
        <pt x="269" y="755" on="0"/>
        <pt x="216" y="783" on="0"/>
        <pt x="182" y="827" on="0"/>
        <pt x="164" y="880" on="0"/>
        <pt x="160" y="905" on="1"/>
        <pt x="220" y="934" on="1"/>
        <pt x="234" y="903" on="1"/>
        <pt x="249" y="870" on="0"/>
        <pt x="282" y="833" on="0"/>
        <pt x="312" y="833" on="1"/>
        <pt x="339" y="833" on="0"/>
        <pt x="384" y="866" on="0"/>
        <pt x="411" y="904" on="1"/>
        <pt x="433" y="934" on="1"/>
        <pt x="496" y="903" on="1"/>
        <pt x="483" y="877" on="0"/>
        <pt x="450" y="825" on="0"/>
        <pt x="405" y="782" on="0"/>
        <pt x="346" y="755" on="0"/>
      </contour>
    </TTGlyph>
    <TTGlyph name="breve.cyrl" xMin="168" yMin="589" xMax="498" yMax="761">
      <contour>
        <pt x="313" y="589" on="1"/>
        <pt x="264" y="589" on="0"/>
        <pt x="200" y="631" on="0"/>
        <pt x="183" y="681" on="1"/>
        <pt x="168" y="727" on="1"/>
        <pt x="255" y="761" on="1"/>
        <pt x="274" y="671" on="1"/>
        <pt x="284" y="668" on="0"/>
        <pt x="311" y="664" on="0"/>
        <pt x="322" y="664" on="1"/>
        <pt x="335" y="664" on="0"/>
        <pt x="358" y="668" on="0"/>
        <pt x="366" y="671" on="1"/>
        <pt x="416" y="761" on="1"/>
        <pt x="498" y="723" on="1"/>
        <pt x="471" y="681" on="1"/>
        <pt x="439" y="633" on="0"/>
        <pt x="363" y="589" on="0"/>
      </contour>
    </TTGlyph>
    <TTGlyph name="breve.cyrl_case" xMin="170" yMin="755" xMax="500" yMax="927">
      <contour>
        <pt x="315" y="755" on="1"/>
        <pt x="266" y="755" on="0"/>
        <pt x="202" y="797" on="0"/>
        <pt x="185" y="847" on="1"/>
        <pt x="170" y="893" on="1"/>
        <pt x="257" y="927" on="1"/>
        <pt x="276" y="837" on="1"/>
        <pt x="286" y="834" on="0"/>
        <pt x="313" y="830" on="0"/>
        <pt x="324" y="830" on="1"/>
        <pt x="337" y="830" on="0"/>
        <pt x="360" y="834" on="0"/>
        <pt x="368" y="837" on="1"/>
        <pt x="418" y="927" on="1"/>
        <pt x="500" y="889" on="1"/>
        <pt x="473" y="847" on="1"/>
        <pt x="441" y="799" on="0"/>
        <pt x="365" y="755" on="0"/>
      </contour>
    </TTGlyph>
    <TTGlyph name="breveacute" xMin="-139" yMin="579" xMax="203" yMax="925">
      <contour>
        <pt x="14" y="579" on="1"/>
        <pt x="-27" y="579" on="0"/>
        <pt x="-81" y="605" on="0"/>
        <pt x="-116" y="646" on="0"/>
        <pt x="-135" y="696" on="0"/>
        <pt x="-139" y="720" on="1"/>
        <pt x="-81" y="751" on="1"/>
        <pt x="-68" y="726" on="1"/>
        <pt x="-50" y="690" on="0"/>
        <pt x="-16" y="657" on="0"/>
        <pt x="17" y="657" on="1"/>
        <pt x="45" y="657" on="0"/>
        <pt x="92" y="688" on="0"/>
        <pt x="124" y="726" on="1"/>
        <pt x="145" y="751" on="1"/>
        <pt x="203" y="718" on="1"/>
        <pt x="189" y="693" on="0"/>
        <pt x="155" y="643" on="0"/>
        <pt x="110" y="604" on="0"/>
        <pt x="52" y="579" on="0"/>
      </contour>
      <contour>
        <pt x="42" y="713" on="1"/>
        <pt x="-18" y="745" on="1"/>
        <pt x="87" y="925" on="1"/>
        <pt x="171" y="880" on="1"/>
      </contour>
    </TTGlyph>
    <TTGlyph name="breveacute.case" xMin="-136" yMin="746" xMax="205" yMax="1090">
      <contour>
        <pt x="16" y="746" on="1"/>
        <pt x="-24" y="746" on="0"/>
        <pt x="-79" y="772" on="0"/>
        <pt x="-113" y="812" on="0"/>
        <pt x="-132" y="862" on="0"/>
        <pt x="-136" y="886" on="1"/>
        <pt x="-78" y="917" on="1"/>
        <pt x="-67" y="892" on="1"/>
        <pt x="-51" y="855" on="0"/>
        <pt x="-12" y="821" on="0"/>
        <pt x="20" y="821" on="1"/>
        <pt x="49" y="821" on="0"/>
        <pt x="96" y="851" on="0"/>
        <pt x="127" y="891" on="1"/>
        <pt x="147" y="917" on="1"/>
        <pt x="205" y="886" on="1"/>
        <pt x="191" y="860" on="0"/>
        <pt x="158" y="810" on="0"/>
        <pt x="113" y="771" on="0"/>
        <pt x="55" y="746" on="0"/>
      </contour>
      <contour>
        <pt x="44" y="879" on="1"/>
        <pt x="-15" y="910" on="1"/>
        <pt x="89" y="1090" on="1"/>
        <pt x="174" y="1045" on="1"/>
      </contour>
    </TTGlyph>
    <TTGlyph name="brevegrave" xMin="-139" yMin="579" xMax="203" yMax="924">
      <contour>
        <pt x="14" y="579" on="1"/>
        <pt x="-27" y="579" on="0"/>
        <pt x="-81" y="605" on="0"/>
        <pt x="-116" y="646" on="0"/>
        <pt x="-135" y="696" on="0"/>
        <pt x="-139" y="720" on="1"/>
        <pt x="-81" y="751" on="1"/>
        <pt x="-68" y="726" on="1"/>
        <pt x="-50" y="690" on="0"/>
        <pt x="-16" y="657" on="0"/>
        <pt x="17" y="657" on="1"/>
        <pt x="45" y="657" on="0"/>
        <pt x="92" y="688" on="0"/>
        <pt x="124" y="726" on="1"/>
        <pt x="145" y="751" on="1"/>
        <pt x="203" y="718" on="1"/>
        <pt x="189" y="693" on="0"/>
        <pt x="155" y="643" on="0"/>
        <pt x="110" y="604" on="0"/>
        <pt x="52" y="579" on="0"/>
      </contour>
      <contour>
        <pt x="-78" y="883" on="1"/>
        <pt x="13" y="924" on="1"/>
        <pt x="73" y="742" on="1"/>
        <pt x="11" y="714" on="1"/>
      </contour>
    </TTGlyph>
    <TTGlyph name="brevegrave.case" xMin="-136" yMin="746" xMax="205" yMax="1090">
      <contour>
        <pt x="16" y="746" on="1"/>
        <pt x="-24" y="746" on="0"/>
        <pt x="-79" y="772" on="0"/>
        <pt x="-113" y="812" on="0"/>
        <pt x="-132" y="862" on="0"/>
        <pt x="-136" y="886" on="1"/>
        <pt x="-78" y="917" on="1"/>
        <pt x="-67" y="892" on="1"/>
        <pt x="-51" y="855" on="0"/>
        <pt x="-12" y="821" on="0"/>
        <pt x="20" y="821" on="1"/>
        <pt x="49" y="821" on="0"/>
        <pt x="96" y="851" on="0"/>
        <pt x="127" y="891" on="1"/>
        <pt x="147" y="917" on="1"/>
        <pt x="205" y="886" on="1"/>
        <pt x="191" y="860" on="0"/>
        <pt x="158" y="810" on="0"/>
        <pt x="113" y="771" on="0"/>
        <pt x="55" y="746" on="0"/>
      </contour>
      <contour>
        <pt x="-76" y="1049" on="1"/>
        <pt x="15" y="1090" on="1"/>
        <pt x="76" y="909" on="1"/>
        <pt x="14" y="880" on="1"/>
      </contour>
    </TTGlyph>
    <TTGlyph name="brevehook" xMin="-139" yMin="579" xMax="203" yMax="911">
      <contour>
        <pt x="14" y="579" on="1"/>
        <pt x="-27" y="579" on="0"/>
        <pt x="-81" y="605" on="0"/>
        <pt x="-116" y="646" on="0"/>
        <pt x="-135" y="696" on="0"/>
        <pt x="-139" y="720" on="1"/>
        <pt x="-81" y="751" on="1"/>
        <pt x="-68" y="726" on="1"/>
        <pt x="-50" y="690" on="0"/>
        <pt x="-16" y="657" on="0"/>
        <pt x="17" y="657" on="1"/>
        <pt x="45" y="657" on="0"/>
        <pt x="92" y="688" on="0"/>
        <pt x="124" y="726" on="1"/>
        <pt x="145" y="751" on="1"/>
        <pt x="203" y="718" on="1"/>
        <pt x="189" y="693" on="0"/>
        <pt x="155" y="643" on="0"/>
        <pt x="110" y="604" on="0"/>
        <pt x="52" y="579" on="0"/>
      </contour>
      <contour>
        <pt x="-47" y="911" on="1"/>
        <pt x="72" y="911" on="1"/>
        <pt x="109" y="911" on="0"/>
        <pt x="139" y="879" on="0"/>
        <pt x="139" y="858" on="1"/>
        <pt x="139" y="830" on="0"/>
        <pt x="108" y="779" on="0"/>
        <pt x="83" y="750" on="1"/>
        <pt x="43" y="704" on="1"/>
        <pt x="-9" y="732" on="1"/>
        <pt x="51" y="836" on="1"/>
        <pt x="-61" y="836" on="1"/>
      </contour>
    </TTGlyph>
    <TTGlyph name="brevehook.case" xMin="-136" yMin="746" xMax="205" yMax="1077">
      <contour>
        <pt x="-49" y="1077" on="1"/>
        <pt x="69" y="1077" on="1"/>
        <pt x="107" y="1077" on="0"/>
        <pt x="138" y="1046" on="0"/>
        <pt x="138" y="1026" on="1"/>
        <pt x="138" y="997" on="0"/>
        <pt x="106" y="946" on="0"/>
        <pt x="81" y="917" on="1"/>
        <pt x="41" y="871" on="1"/>
        <pt x="-12" y="899" on="1"/>
        <pt x="52" y="1003" on="1"/>
        <pt x="-62" y="1003" on="1"/>
      </contour>
      <contour>
        <pt x="16" y="746" on="1"/>
        <pt x="-24" y="746" on="0"/>
        <pt x="-79" y="772" on="0"/>
        <pt x="-113" y="812" on="0"/>
        <pt x="-132" y="862" on="0"/>
        <pt x="-136" y="886" on="1"/>
        <pt x="-78" y="917" on="1"/>
        <pt x="-67" y="892" on="1"/>
        <pt x="-51" y="855" on="0"/>
        <pt x="-12" y="821" on="0"/>
        <pt x="20" y="821" on="1"/>
        <pt x="49" y="821" on="0"/>
        <pt x="96" y="851" on="0"/>
        <pt x="127" y="891" on="1"/>
        <pt x="147" y="917" on="1"/>
        <pt x="205" y="886" on="1"/>
        <pt x="191" y="860" on="0"/>
        <pt x="158" y="810" on="0"/>
        <pt x="113" y="771" on="0"/>
        <pt x="55" y="746" on="0"/>
      </contour>
    </TTGlyph>
    <TTGlyph name="brevetilde" xMin="-139" yMin="579" xMax="213" yMax="904">
      <contour>
        <pt x="14" y="579" on="1"/>
        <pt x="-27" y="579" on="0"/>
        <pt x="-81" y="605" on="0"/>
        <pt x="-116" y="646" on="0"/>
        <pt x="-135" y="696" on="0"/>
        <pt x="-139" y="720" on="1"/>
        <pt x="-81" y="751" on="1"/>
        <pt x="-68" y="726" on="1"/>
        <pt x="-50" y="690" on="0"/>
        <pt x="-16" y="657" on="0"/>
        <pt x="17" y="657" on="1"/>
        <pt x="45" y="657" on="0"/>
        <pt x="92" y="688" on="0"/>
        <pt x="124" y="726" on="1"/>
        <pt x="145" y="751" on="1"/>
        <pt x="203" y="718" on="1"/>
        <pt x="189" y="693" on="0"/>
        <pt x="155" y="643" on="0"/>
        <pt x="110" y="604" on="0"/>
        <pt x="52" y="579" on="0"/>
      </contour>
      <contour>
        <pt x="106" y="779" on="1"/>
        <pt x="83" y="779" on="0"/>
        <pt x="49" y="794" on="0"/>
        <pt x="34" y="802" on="1"/>
        <pt x="13" y="815" on="0"/>
        <pt x="-17" y="826" on="0"/>
        <pt x="-33" y="826" on="1"/>
        <pt x="-49" y="826" on="0"/>
        <pt x="-77" y="812" on="0"/>
        <pt x="-94" y="799" on="1"/>
        <pt x="-124" y="848" on="1"/>
        <pt x="-106" y="871" on="0"/>
        <pt x="-51" y="904" on="0"/>
        <pt x="-16" y="904" on="1"/>
        <pt x="7" y="904" on="0"/>
        <pt x="41" y="888" on="0"/>
        <pt x="56" y="880" on="1"/>
        <pt x="77" y="868" on="0"/>
        <pt x="107" y="857" on="0"/>
        <pt x="123" y="857" on="1"/>
        <pt x="139" y="857" on="0"/>
        <pt x="166" y="870" on="0"/>
        <pt x="183" y="883" on="1"/>
        <pt x="213" y="836" on="1"/>
        <pt x="196" y="813" on="0"/>
        <pt x="141" y="779" on="0"/>
      </contour>
    </TTGlyph>
    <TTGlyph name="brevetilde.case" xMin="-136" yMin="746" xMax="212" yMax="1070">
      <contour>
        <pt x="104" y="944" on="1"/>
        <pt x="81" y="944" on="0"/>
        <pt x="47" y="959" on="0"/>
        <pt x="32" y="967" on="1"/>
        <pt x="12" y="979" on="0"/>
        <pt x="-19" y="990" on="0"/>
        <pt x="-34" y="990" on="1"/>
        <pt x="-50" y="990" on="0"/>
        <pt x="-78" y="977" on="0"/>
        <pt x="-95" y="964" on="1"/>
        <pt x="-126" y="1013" on="1"/>
        <pt x="-108" y="1036" on="0"/>
        <pt x="-53" y="1070" on="0"/>
        <pt x="-17" y="1070" on="1"/>
        <pt x="6" y="1070" on="0"/>
        <pt x="39" y="1055" on="0"/>
        <pt x="55" y="1047" on="1"/>
        <pt x="75" y="1035" on="0"/>
        <pt x="105" y="1024" on="0"/>
        <pt x="121" y="1024" on="1"/>
        <pt x="137" y="1024" on="0"/>
        <pt x="165" y="1037" on="0"/>
        <pt x="182" y="1050" on="1"/>
        <pt x="212" y="1001" on="1"/>
        <pt x="194" y="978" on="0"/>
        <pt x="139" y="944" on="0"/>
      </contour>
      <contour>
        <pt x="16" y="746" on="1"/>
        <pt x="-24" y="746" on="0"/>
        <pt x="-79" y="772" on="0"/>
        <pt x="-113" y="812" on="0"/>
        <pt x="-132" y="862" on="0"/>
        <pt x="-136" y="886" on="1"/>
        <pt x="-78" y="917" on="1"/>
        <pt x="-67" y="892" on="1"/>
        <pt x="-51" y="855" on="0"/>
        <pt x="-12" y="821" on="0"/>
        <pt x="20" y="821" on="1"/>
        <pt x="49" y="821" on="0"/>
        <pt x="96" y="851" on="0"/>
        <pt x="127" y="891" on="1"/>
        <pt x="147" y="917" on="1"/>
        <pt x="205" y="886" on="1"/>
        <pt x="191" y="860" on="0"/>
        <pt x="158" y="810" on="0"/>
        <pt x="113" y="771" on="0"/>
        <pt x="55" y="746" on="0"/>
      </contour>
    </TTGlyph>
    <TTGlyph name="brokenbar" xMin="47" yMin="-138" xMax="318" yMax="760">
      <contour>
        <pt x="155" y="404" on="1"/>
        <pt x="227" y="760" on="1"/>
        <pt x="318" y="760" on="1"/>
        <pt x="247" y="404" on="1"/>
      </contour>
      <contour>
        <pt x="47" y="-138" on="1"/>
        <pt x="119" y="218" on="1"/>
        <pt x="210" y="218" on="1"/>
        <pt x="139" y="-138" on="1"/>
      </contour>
    </TTGlyph>
    <TTGlyph name="bullet" xMin="72" yMin="167" xMax="345" yMax="427">
      <contour>
        <pt x="188" y="167" on="1"/>
        <pt x="125" y="167" on="0"/>
        <pt x="72" y="215" on="0"/>
        <pt x="72" y="254" on="1"/>
        <pt x="72" y="260" on="0"/>
        <pt x="75" y="290" on="0"/>
        <pt x="80" y="313" on="1"/>
        <pt x="90" y="362" on="0"/>
        <pt x="159" y="427" on="0"/>
        <pt x="229" y="427" on="1"/>
        <pt x="291" y="427" on="0"/>
        <pt x="345" y="379" on="0"/>
        <pt x="345" y="340" on="1"/>
        <pt x="345" y="334" on="0"/>
        <pt x="342" y="304" on="0"/>
        <pt x="337" y="281" on="1"/>
        <pt x="327" y="232" on="0"/>
        <pt x="258" y="167" on="0"/>
      </contour>
    </TTGlyph>
    <TTGlyph name="c" xMin="42" yMin="-12" xMax="484" yMax="532">
      <contour>
        <pt x="237" y="-12" on="1"/>
        <pt x="150" y="-12" on="0"/>
        <pt x="42" y="99" on="0"/>
        <pt x="42" y="206" on="1"/>
        <pt x="42" y="274" on="0"/>
        <pt x="80" y="393" on="0"/>
        <pt x="150" y="481" on="0"/>
        <pt x="247" y="532" on="0"/>
        <pt x="306" y="532" on="1"/>
        <pt x="378" y="532" on="0"/>
        <pt x="471" y="462" on="0"/>
        <pt x="484" y="405" on="1"/>
        <pt x="397" y="370" on="1"/>
        <pt x="386" y="405" on="0"/>
        <pt x="343" y="444" on="0"/>
        <pt x="301" y="444" on="1"/>
        <pt x="247" y="444" on="0"/>
        <pt x="179" y="376" on="0"/>
        <pt x="167" y="313" on="1"/>
        <pt x="150" y="227" on="1"/>
        <pt x="145" y="202" on="0"/>
        <pt x="145" y="183" on="1"/>
        <pt x="145" y="135" on="0"/>
        <pt x="195" y="76" on="0"/>
        <pt x="247" y="76" on="1"/>
        <pt x="285" y="76" on="0"/>
        <pt x="340" y="120" on="0"/>
        <pt x="367" y="169" on="1"/>
        <pt x="447" y="131" on="1"/>
        <pt x="414" y="61" on="0"/>
        <pt x="308" y="-12" on="0"/>
      </contour>
    </TTGlyph>
    <TTGlyph name="cacute" xMin="42" yMin="-12" xMax="484" yMax="795">
      <component glyphName="c" x="0" y="0" flags="0x204"/>
      <component glyphName="acute" x="18" y="0" flags="0x4"/>
    </TTGlyph>
    <TTGlyph name="caron" xMin="161" yMin="594" xMax="503" yMax="786">
      <contour>
        <pt x="251" y="594" on="1"/>
        <pt x="161" y="744" on="1"/>
        <pt x="218" y="786" on="1"/>
        <pt x="310" y="670" on="1"/>
        <pt x="449" y="786" on="1"/>
        <pt x="503" y="744" on="1"/>
        <pt x="358" y="594" on="1"/>
      </contour>
    </TTGlyph>
    <TTGlyph name="caron.case" xMin="162" yMin="760" xMax="505" yMax="953">
      <contour>
        <pt x="253" y="760" on="1"/>
        <pt x="162" y="910" on="1"/>
        <pt x="219" y="953" on="1"/>
        <pt x="312" y="837" on="1"/>
        <pt x="451" y="953" on="1"/>
        <pt x="505" y="910" on="1"/>
        <pt x="359" y="760" on="1"/>
      </contour>
    </TTGlyph>
    <TTGlyph name="ccaron" xMin="42" yMin="-12" xMax="521" yMax="786">
      <component glyphName="c" x="0" y="0" flags="0x204"/>
      <component glyphName="caron" x="18" y="0" flags="0x4"/>
    </TTGlyph>
    <TTGlyph name="ccedilla" xMin="41" yMin="-209" xMax="483" yMax="532">
      <contour>
        <pt x="305" y="532" on="1"/>
        <pt x="377" y="532" on="0"/>
        <pt x="470" y="462" on="0"/>
        <pt x="483" y="405" on="1"/>
        <pt x="396" y="370" on="1"/>
        <pt x="385" y="405" on="0"/>
        <pt x="342" y="444" on="0"/>
        <pt x="300" y="444" on="1"/>
        <pt x="246" y="444" on="0"/>
        <pt x="179" y="376" on="0"/>
        <pt x="166" y="313" on="1"/>
        <pt x="149" y="227" on="1"/>
        <pt x="144" y="202" on="0"/>
        <pt x="144" y="183" on="1"/>
        <pt x="144" y="135" on="0"/>
        <pt x="194" y="76" on="0"/>
        <pt x="246" y="76" on="1"/>
        <pt x="284" y="76" on="0"/>
        <pt x="339" y="120" on="0"/>
        <pt x="366" y="169" on="1"/>
        <pt x="446" y="131" on="1"/>
        <pt x="384" y="1" on="0"/>
        <pt x="258" y="-11" on="1"/>
        <pt x="241" y="-59" on="1"/>
        <pt x="243" y="-62" on="1"/>
        <pt x="251" y="-60" on="0"/>
        <pt x="268" y="-57" on="0"/>
        <pt x="279" y="-57" on="1"/>
        <pt x="305" y="-57" on="0"/>
        <pt x="340" y="-84" on="0"/>
        <pt x="340" y="-113" on="1"/>
        <pt x="340" y="-159" on="0"/>
        <pt x="270" y="-209" on="0"/>
        <pt x="216" y="-209" on="1"/>
        <pt x="177" y="-209" on="0"/>
        <pt x="123" y="-185" on="0"/>
        <pt x="111" y="-168" on="1"/>
        <pt x="156" y="-123" on="1"/>
        <pt x="163" y="-132" on="0"/>
        <pt x="193" y="-149" on="0"/>
        <pt x="215" y="-149" on="1"/>
        <pt x="236" y="-149" on="0"/>
        <pt x="262" y="-130" on="0"/>
        <pt x="262" y="-115" on="1"/>
        <pt x="262" y="-101" on="0"/>
        <pt x="237" y="-80" on="0"/>
        <pt x="203" y="-77" on="1"/>
        <pt x="178" y="-75" on="1"/>
        <pt x="201" y="-10" on="1"/>
        <pt x="129" y="0" on="0"/>
        <pt x="41" y="109" on="0"/>
        <pt x="41" y="206" on="1"/>
        <pt x="41" y="274" on="0"/>
        <pt x="79" y="393" on="0"/>
        <pt x="149" y="481" on="0"/>
        <pt x="246" y="532" on="0"/>
      </contour>
    </TTGlyph>
    <TTGlyph name="ccircumflex" xMin="42" yMin="-12" xMax="493" yMax="778">
      <component glyphName="c" x="0" y="0" flags="0x204"/>
      <component glyphName="circumflex" x="18" y="0" flags="0x4"/>
    </TTGlyph>
    <TTGlyph name="cdotaccent" xMin="42" yMin="-12" xMax="484" yMax="737">
      <component glyphName="c" x="0" y="0" flags="0x204"/>
      <component glyphName="dotaccent" x="18" y="0" flags="0x4"/>
    </TTGlyph>
    <TTGlyph name="cedilla" xMin="169" yMin="-209" xMax="398" yMax="24">
      <contour>
        <pt x="274" y="-209" on="1"/>
        <pt x="235" y="-209" on="0"/>
        <pt x="181" y="-185" on="0"/>
        <pt x="169" y="-168" on="1"/>
        <pt x="214" y="-123" on="1"/>
        <pt x="221" y="-132" on="0"/>
        <pt x="251" y="-149" on="0"/>
        <pt x="273" y="-149" on="1"/>
        <pt x="294" y="-149" on="0"/>
        <pt x="321" y="-130" on="0"/>
        <pt x="321" y="-115" on="1"/>
        <pt x="321" y="-101" on="0"/>
        <pt x="295" y="-80" on="0"/>
        <pt x="261" y="-77" on="1"/>
        <pt x="237" y="-75" on="1"/>
        <pt x="272" y="24" on="1"/>
        <pt x="329" y="24" on="1"/>
        <pt x="299" y="-59" on="1"/>
        <pt x="301" y="-62" on="1"/>
        <pt x="309" y="-60" on="0"/>
        <pt x="327" y="-57" on="0"/>
        <pt x="338" y="-57" on="1"/>
        <pt x="363" y="-57" on="0"/>
        <pt x="398" y="-84" on="0"/>
        <pt x="398" y="-113" on="1"/>
        <pt x="398" y="-159" on="0"/>
        <pt x="328" y="-209" on="0"/>
      </contour>
    </TTGlyph>
    <TTGlyph name="cent" xMin="42" yMin="-114" xMax="497" yMax="630">
      <contour>
        <pt x="179" y="-4" on="1"/>
        <pt x="115" y="13" on="0"/>
        <pt x="42" y="124" on="0"/>
        <pt x="42" y="209" on="1"/>
        <pt x="42" y="269" on="0"/>
        <pt x="75" y="379" on="0"/>
        <pt x="138" y="465" on="0"/>
        <pt x="228" y="520" on="0"/>
        <pt x="285" y="526" on="1"/>
        <pt x="306" y="630" on="1"/>
        <pt x="392" y="630" on="1"/>
        <pt x="370" y="522" on="1"/>
        <pt x="419" y="510" on="0"/>
        <pt x="483" y="448" on="0"/>
        <pt x="497" y="404" on="1"/>
        <pt x="412" y="364" on="1"/>
        <pt x="404" y="392" on="0"/>
        <pt x="373" y="429" on="0"/>
        <pt x="347" y="437" on="1"/>
        <pt x="276" y="76" on="1"/>
        <pt x="308" y="82" on="0"/>
        <pt x="358" y="125" on="0"/>
        <pt x="381" y="164" on="1"/>
        <pt x="456" y="122" on="1"/>
        <pt x="423" y="63" on="0"/>
        <pt x="330" y="-4" on="0"/>
        <pt x="264" y="-10" on="1"/>
        <pt x="243" y="-114" on="1"/>
        <pt x="157" y="-114" on="1"/>
      </contour>
      <contour>
        <pt x="143" y="183" on="1"/>
        <pt x="143" y="148" on="0"/>
        <pt x="172" y="94" on="0"/>
        <pt x="201" y="82" on="1"/>
        <pt x="272" y="437" on="1"/>
        <pt x="228" y="426" on="0"/>
        <pt x="174" y="359" on="0"/>
        <pt x="164" y="308" on="1"/>
        <pt x="147" y="222" on="1"/>
        <pt x="143" y="205" on="0"/>
      </contour>
    </TTGlyph>
    <TTGlyph name="chi" xMin="-78" yMin="-200" xMax="536" yMax="520">
      <contour>
        <pt x="135" y="520" on="1"/>
        <pt x="170" y="520" on="0"/>
        <pt x="209" y="489" on="0"/>
        <pt x="215" y="454" on="1"/>
        <pt x="249" y="249" on="1"/>
        <pt x="254" y="249" on="1"/>
        <pt x="421" y="520" on="1"/>
        <pt x="536" y="520" on="1"/>
        <pt x="299" y="164" on="1"/>
        <pt x="355" y="-113" on="1"/>
        <pt x="424" y="-113" on="1"/>
        <pt x="407" y="-200" on="1"/>
        <pt x="338" y="-200" on="1"/>
        <pt x="303" y="-200" on="0"/>
        <pt x="263" y="-169" on="0"/>
        <pt x="258" y="-134" on="1"/>
        <pt x="220" y="90" on="1"/>
        <pt x="215" y="90" on="1"/>
        <pt x="37" y="-200" on="1"/>
        <pt x="-78" y="-200" on="1"/>
        <pt x="171" y="176" on="1"/>
        <pt x="118" y="433" on="1"/>
        <pt x="49" y="433" on="1"/>
        <pt x="66" y="520" on="1"/>
      </contour>
    </TTGlyph>
    <TTGlyph name="circumflex" xMin="134" yMin="585" xMax="475" yMax="778">
      <contour>
        <pt x="385" y="778" on="1"/>
        <pt x="475" y="628" on="1"/>
        <pt x="418" y="585" on="1"/>
        <pt x="323" y="701" on="1"/>
        <pt x="186" y="586" on="1"/>
        <pt x="134" y="629" on="1"/>
        <pt x="279" y="778" on="1"/>
      </contour>
    </TTGlyph>
    <TTGlyph name="circumflex.case" xMin="135" yMin="751" xMax="477" yMax="944">
      <contour>
        <pt x="387" y="944" on="1"/>
        <pt x="477" y="794" on="1"/>
        <pt x="420" y="752" on="1"/>
        <pt x="325" y="867" on="1"/>
        <pt x="188" y="751" on="1"/>
        <pt x="135" y="794" on="1"/>
        <pt x="281" y="944" on="1"/>
      </contour>
    </TTGlyph>
    <TTGlyph name="circumflexacute" xMin="-150" yMin="576" xMax="320" yMax="924">
      <contour>
        <pt x="192" y="714" on="1"/>
        <pt x="132" y="746" on="1"/>
        <pt x="235" y="924" on="1"/>
        <pt x="320" y="881" on="1"/>
      </contour>
      <contour>
        <pt x="89" y="760" on="1"/>
        <pt x="185" y="621" on="1"/>
        <pt x="132" y="576" on="1"/>
        <pt x="35" y="685" on="1"/>
        <pt x="-100" y="576" on="1"/>
        <pt x="-150" y="621" on="1"/>
        <pt x="-3" y="760" on="1"/>
      </contour>
    </TTGlyph>
    <TTGlyph name="circumflexacute.case" xMin="-152" yMin="743" xMax="322" yMax="1090">
      <contour>
        <pt x="194" y="880" on="1"/>
        <pt x="133" y="911" on="1"/>
        <pt x="237" y="1090" on="1"/>
        <pt x="322" y="1046" on="1"/>
      </contour>
      <contour>
        <pt x="87" y="927" on="1"/>
        <pt x="184" y="788" on="1"/>
        <pt x="130" y="743" on="1"/>
        <pt x="32" y="852" on="1"/>
        <pt x="-101" y="743" on="1"/>
        <pt x="-152" y="788" on="1"/>
        <pt x="-5" y="927" on="1"/>
      </contour>
    </TTGlyph>
    <TTGlyph name="circumflexbreve" xMin="-145" yMin="579" xMax="218" yMax="921">
      <contour>
        <pt x="83" y="735" on="1"/>
        <pt x="187" y="626" on="1"/>
        <pt x="138" y="579" on="1"/>
        <pt x="29" y="663" on="1"/>
        <pt x="-105" y="579" on="1"/>
        <pt x="-145" y="626" on="1"/>
        <pt x="-7" y="735" on="1"/>
      </contour>
      <contour>
        <pt x="40" y="761" on="1"/>
        <pt x="3" y="761" on="0"/>
        <pt x="-48" y="787" on="0"/>
        <pt x="-80" y="827" on="0"/>
        <pt x="-97" y="875" on="0"/>
        <pt x="-101" y="898" on="1"/>
        <pt x="-47" y="921" on="1"/>
        <pt x="-34" y="896" on="1"/>
        <pt x="-18" y="865" on="0"/>
        <pt x="16" y="831" on="0"/>
        <pt x="44" y="831" on="1"/>
        <pt x="69" y="831" on="0"/>
        <pt x="117" y="862" on="0"/>
        <pt x="144" y="897" on="1"/>
        <pt x="163" y="921" on="1"/>
        <pt x="218" y="894" on="1"/>
        <pt x="206" y="871" on="0"/>
        <pt x="174" y="823" on="0"/>
        <pt x="131" y="785" on="0"/>
        <pt x="76" y="761" on="0"/>
      </contour>
    </TTGlyph>
    <TTGlyph name="circumflexbreve.case" xMin="-146" yMin="745" xMax="217" yMax="1087">
      <contour>
        <pt x="82" y="902" on="1"/>
        <pt x="186" y="792" on="1"/>
        <pt x="136" y="745" on="1"/>
        <pt x="28" y="830" on="1"/>
        <pt x="-106" y="745" on="1"/>
        <pt x="-146" y="792" on="1"/>
        <pt x="-9" y="902" on="1"/>
      </contour>
      <contour>
        <pt x="39" y="927" on="1"/>
        <pt x="2" y="927" on="0"/>
        <pt x="-49" y="953" on="0"/>
        <pt x="-81" y="993" on="0"/>
        <pt x="-98" y="1041" on="0"/>
        <pt x="-102" y="1064" on="1"/>
        <pt x="-48" y="1087" on="1"/>
        <pt x="-35" y="1062" on="1"/>
        <pt x="-19" y="1031" on="0"/>
        <pt x="15" y="997" on="0"/>
        <pt x="43" y="997" on="1"/>
        <pt x="68" y="997" on="0"/>
        <pt x="116" y="1028" on="0"/>
        <pt x="143" y="1063" on="1"/>
        <pt x="162" y="1087" on="1"/>
        <pt x="217" y="1060" on="1"/>
        <pt x="205" y="1037" on="0"/>
        <pt x="173" y="989" on="0"/>
        <pt x="130" y="951" on="0"/>
        <pt x="75" y="927" on="0"/>
      </contour>
    </TTGlyph>
    <TTGlyph name="circumflexgrave" xMin="-213" yMin="576" xMax="185" yMax="924">
      <contour>
        <pt x="-213" y="883" on="1"/>
        <pt x="-126" y="924" on="1"/>
        <pt x="-60" y="745" on="1"/>
        <pt x="-117" y="716" on="1"/>
      </contour>
      <contour>
        <pt x="88" y="760" on="1"/>
        <pt x="185" y="621" on="1"/>
        <pt x="131" y="576" on="1"/>
        <pt x="35" y="685" on="1"/>
        <pt x="-100" y="576" on="1"/>
        <pt x="-151" y="621" on="1"/>
        <pt x="-4" y="760" on="1"/>
      </contour>
    </TTGlyph>
    <TTGlyph name="circumflexgrave.case" xMin="-220" yMin="743" xMax="183" yMax="1090">
      <contour>
        <pt x="-220" y="1049" on="1"/>
        <pt x="-133" y="1090" on="1"/>
        <pt x="-67" y="909" on="1"/>
        <pt x="-124" y="880" on="1"/>
      </contour>
      <contour>
        <pt x="86" y="927" on="1"/>
        <pt x="183" y="788" on="1"/>
        <pt x="129" y="743" on="1"/>
        <pt x="31" y="852" on="1"/>
        <pt x="-102" y="743" on="1"/>
        <pt x="-153" y="788" on="1"/>
        <pt x="-6" y="927" on="1"/>
      </contour>
    </TTGlyph>
    <TTGlyph name="circumflexhook" xMin="-151" yMin="576" xMax="286" yMax="911">
      <contour>
        <pt x="100" y="911" on="1"/>
        <pt x="219" y="911" on="1"/>
        <pt x="257" y="911" on="0"/>
        <pt x="286" y="879" on="0"/>
        <pt x="286" y="859" on="1"/>
        <pt x="286" y="831" on="0"/>
        <pt x="253" y="780" on="0"/>
        <pt x="230" y="751" on="1"/>
        <pt x="190" y="704" on="1"/>
        <pt x="137" y="732" on="1"/>
        <pt x="201" y="836" on="1"/>
        <pt x="86" y="836" on="1"/>
      </contour>
      <contour>
        <pt x="88" y="760" on="1"/>
        <pt x="185" y="621" on="1"/>
        <pt x="131" y="576" on="1"/>
        <pt x="35" y="685" on="1"/>
        <pt x="-100" y="576" on="1"/>
        <pt x="-151" y="621" on="1"/>
        <pt x="-4" y="760" on="1"/>
      </contour>
    </TTGlyph>
    <TTGlyph name="circumflexhook.case" xMin="-153" yMin="743" xMax="284" yMax="1077">
      <contour>
        <pt x="98" y="1077" on="1"/>
        <pt x="217" y="1077" on="1"/>
        <pt x="255" y="1077" on="0"/>
        <pt x="284" y="1046" on="0"/>
        <pt x="284" y="1026" on="1"/>
        <pt x="284" y="997" on="0"/>
        <pt x="253" y="946" on="0"/>
        <pt x="228" y="917" on="1"/>
        <pt x="188" y="871" on="1"/>
        <pt x="135" y="899" on="1"/>
        <pt x="198" y="1003" on="1"/>
        <pt x="84" y="1003" on="1"/>
      </contour>
      <contour>
        <pt x="86" y="927" on="1"/>
        <pt x="183" y="788" on="1"/>
        <pt x="129" y="743" on="1"/>
        <pt x="31" y="852" on="1"/>
        <pt x="-102" y="743" on="1"/>
        <pt x="-153" y="788" on="1"/>
        <pt x="-6" y="927" on="1"/>
      </contour>
    </TTGlyph>
    <TTGlyph name="circumflextilde" xMin="-155" yMin="576" xMax="218" yMax="907">
      <contour>
        <pt x="-6" y="907" on="1"/>
        <pt x="17" y="907" on="0"/>
        <pt x="48" y="893" on="0"/>
        <pt x="64" y="884" on="1"/>
        <pt x="85" y="872" on="0"/>
        <pt x="115" y="861" on="0"/>
        <pt x="129" y="861" on="1"/>
        <pt x="145" y="861" on="0"/>
        <pt x="172" y="874" on="0"/>
        <pt x="189" y="887" on="1"/>
        <pt x="218" y="840" on="1"/>
        <pt x="199" y="817" on="0"/>
        <pt x="145" y="783" on="0"/>
        <pt x="110" y="783" on="1"/>
        <pt x="87" y="783" on="0"/>
        <pt x="56" y="798" on="0"/>
        <pt x="41" y="807" on="1"/>
        <pt x="20" y="820" on="0"/>
        <pt x="-10" y="830" on="0"/>
        <pt x="-25" y="830" on="1"/>
        <pt x="-40" y="830" on="0"/>
        <pt x="-68" y="816" on="0"/>
        <pt x="-85" y="803" on="1"/>
        <pt x="-114" y="850" on="1"/>
        <pt x="-94" y="873" on="0"/>
        <pt x="-41" y="907" on="0"/>
      </contour>
      <contour>
        <pt x="84" y="755" on="1"/>
        <pt x="181" y="622" on="1"/>
        <pt x="127" y="576" on="1"/>
        <pt x="28" y="685" on="1"/>
        <pt x="-104" y="576" on="1"/>
        <pt x="-155" y="622" on="1"/>
        <pt x="-9" y="755" on="1"/>
      </contour>
    </TTGlyph>
    <TTGlyph name="circumflextilde.case" xMin="-153" yMin="743" xMax="219" yMax="1073">
      <contour>
        <pt x="-5" y="1073" on="1"/>
        <pt x="18" y="1073" on="0"/>
        <pt x="49" y="1059" on="0"/>
        <pt x="65" y="1050" on="1"/>
        <pt x="86" y="1038" on="0"/>
        <pt x="116" y="1027" on="0"/>
        <pt x="130" y="1027" on="1"/>
        <pt x="146" y="1027" on="0"/>
        <pt x="173" y="1040" on="0"/>
        <pt x="190" y="1053" on="1"/>
        <pt x="219" y="1006" on="1"/>
        <pt x="200" y="983" on="0"/>
        <pt x="146" y="949" on="0"/>
        <pt x="111" y="949" on="1"/>
        <pt x="88" y="949" on="0"/>
        <pt x="57" y="964" on="0"/>
        <pt x="42" y="973" on="1"/>
        <pt x="21" y="986" on="0"/>
        <pt x="-9" y="996" on="0"/>
        <pt x="-24" y="996" on="1"/>
        <pt x="-39" y="996" on="0"/>
        <pt x="-67" y="982" on="0"/>
        <pt x="-84" y="969" on="1"/>
        <pt x="-113" y="1016" on="1"/>
        <pt x="-93" y="1039" on="0"/>
        <pt x="-40" y="1073" on="0"/>
      </contour>
      <contour>
        <pt x="85" y="921" on="1"/>
        <pt x="183" y="788" on="1"/>
        <pt x="129" y="743" on="1"/>
        <pt x="30" y="852" on="1"/>
        <pt x="-102" y="743" on="1"/>
        <pt x="-153" y="788" on="1"/>
        <pt x="-7" y="921" on="1"/>
      </contour>
    </TTGlyph>
    <TTGlyph name="colon" xMin="41" yMin="-12" xMax="267" yMax="532">
      <component glyphName="period" x="10" y="0" flags="0x4"/>
      <component glyphName="period" x="90" y="393" flags="0x4"/>
    </TTGlyph>
    <TTGlyph name="comma" xMin="-37" yMin="-138" xMax="177" yMax="139">
      <contour>
        <pt x="115" y="139" on="1"/>
        <pt x="147" y="139" on="0"/>
        <pt x="177" y="110" on="0"/>
        <pt x="177" y="88" on="1"/>
        <pt x="177" y="81" on="0"/>
        <pt x="174" y="60" on="0"/>
        <pt x="172" y="52" on="1"/>
        <pt x="161" y="5" on="0"/>
        <pt x="100" y="-100" on="0"/>
        <pt x="46" y="-138" on="1"/>
        <pt x="-37" y="-138" on="1"/>
        <pt x="2" y="-106" on="0"/>
        <pt x="55" y="-43" on="0"/>
        <pt x="73" y="-7" on="1"/>
        <pt x="32" y="2" on="0"/>
        <pt x="32" y="39" on="1"/>
        <pt x="32" y="46" on="0"/>
        <pt x="35" y="67" on="0"/>
        <pt x="37" y="76" on="1"/>
        <pt x="43" y="103" on="0"/>
        <pt x="78" y="139" on="0"/>
      </contour>
    </TTGlyph>
    <TTGlyph name="copyright" xMin="63" yMin="-12" xMax="748" yMax="708">
      <contour>
        <pt x="354" y="-12" on="1"/>
        <pt x="288" y="-12" on="0"/>
        <pt x="181" y="32" on="0"/>
        <pt x="105" y="113" on="0"/>
        <pt x="63" y="225" on="0"/>
        <pt x="63" y="293" on="1"/>
        <pt x="63" y="382" on="0"/>
        <pt x="123" y="534" on="0"/>
        <pt x="228" y="645" on="0"/>
        <pt x="373" y="708" on="0"/>
        <pt x="457" y="708" on="1"/>
        <pt x="523" y="708" on="0"/>
        <pt x="630" y="664" on="0"/>
        <pt x="706" y="584" on="0"/>
        <pt x="748" y="472" on="0"/>
        <pt x="748" y="405" on="1"/>
        <pt x="748" y="315" on="0"/>
        <pt x="688" y="162" on="0"/>
        <pt x="583" y="51" on="0"/>
        <pt x="438" y="-12" on="0"/>
      </contour>
      <contour>
        <pt x="358" y="48" on="1"/>
        <pt x="415" y="48" on="0"/>
        <pt x="518" y="87" on="0"/>
        <pt x="599" y="154" on="0"/>
        <pt x="655" y="245" on="0"/>
        <pt x="665" y="297" on="1"/>
        <pt x="672" y="329" on="0"/>
        <pt x="680" y="386" on="0"/>
        <pt x="680" y="405" on="1"/>
        <pt x="680" y="460" on="0"/>
        <pt x="646" y="550" on="0"/>
        <pt x="586" y="614" on="0"/>
        <pt x="503" y="648" on="0"/>
        <pt x="453" y="648" on="1"/>
        <pt x="396" y="648" on="0"/>
        <pt x="293" y="609" on="0"/>
        <pt x="212" y="542" on="0"/>
        <pt x="156" y="452" on="0"/>
        <pt x="146" y="401" on="1"/>
        <pt x="139" y="369" on="0"/>
        <pt x="131" y="312" on="0"/>
        <pt x="131" y="293" on="1"/>
        <pt x="131" y="237" on="0"/>
        <pt x="165" y="146" on="0"/>
        <pt x="225" y="82" on="0"/>
        <pt x="308" y="48" on="0"/>
      </contour>
      <contour>
        <pt x="381" y="145" on="1"/>
        <pt x="312" y="145" on="0"/>
        <pt x="231" y="231" on="0"/>
        <pt x="231" y="305" on="1"/>
        <pt x="231" y="355" on="0"/>
        <pt x="261" y="445" on="0"/>
        <pt x="315" y="512" on="0"/>
        <pt x="390" y="552" on="0"/>
        <pt x="435" y="552" on="1"/>
        <pt x="498" y="552" on="0"/>
        <pt x="566" y="491" on="0"/>
        <pt x="579" y="448" on="1"/>
        <pt x="504" y="416" on="1"/>
        <pt x="498" y="443" on="0"/>
        <pt x="462" y="474" on="0"/>
        <pt x="433" y="474" on="1"/>
        <pt x="395" y="474" on="0"/>
        <pt x="350" y="424" on="0"/>
        <pt x="342" y="384" on="1"/>
        <pt x="329" y="318" on="1"/>
        <pt x="326" y="303" on="0"/>
        <pt x="326" y="291" on="1"/>
        <pt x="326" y="261" on="0"/>
        <pt x="360" y="223" on="0"/>
        <pt x="392" y="223" on="1"/>
        <pt x="419" y="223" on="0"/>
        <pt x="464" y="255" on="0"/>
        <pt x="484" y="284" on="1"/>
        <pt x="550" y="243" on="1"/>
        <pt x="524" y="202" on="0"/>
        <pt x="441" y="145" on="0"/>
      </contour>
    </TTGlyph>
    <TTGlyph name="currency" xMin="-10" yMin="54" xMax="658" yMax="644">
      <contour>
        <pt x="286" y="114" on="1"/>
        <pt x="245" y="114" on="0"/>
        <pt x="182" y="134" on="0"/>
        <pt x="159" y="152" on="1"/>
        <pt x="44" y="58" on="1"/>
        <pt x="-10" y="125" on="1"/>
        <pt x="107" y="221" on="1"/>
        <pt x="95" y="254" on="0"/>
        <pt x="95" y="294" on="1"/>
        <pt x="95" y="309" on="0"/>
        <pt x="98" y="342" on="0"/>
        <pt x="101" y="357" on="1"/>
        <pt x="107" y="389" on="0"/>
        <pt x="134" y="460" on="0"/>
        <pt x="156" y="486" on="1"/>
        <pt x="74" y="587" on="1"/>
        <pt x="144" y="644" on="1"/>
        <pt x="223" y="547" on="1"/>
        <pt x="283" y="584" on="0"/>
        <pt x="362" y="584" on="1"/>
        <pt x="403" y="584" on="0"/>
        <pt x="466" y="564" on="0"/>
        <pt x="489" y="546" on="1"/>
        <pt x="604" y="640" on="1"/>
        <pt x="658" y="573" on="1"/>
        <pt x="541" y="477" on="1"/>
        <pt x="553" y="444" on="0"/>
        <pt x="553" y="404" on="1"/>
        <pt x="553" y="389" on="0"/>
        <pt x="550" y="356" on="0"/>
        <pt x="547" y="341" on="1"/>
        <pt x="541" y="309" on="0"/>
        <pt x="514" y="238" on="0"/>
        <pt x="492" y="212" on="1"/>
        <pt x="574" y="111" on="1"/>
        <pt x="504" y="54" on="1"/>
        <pt x="425" y="151" on="1"/>
        <pt x="365" y="114" on="0"/>
      </contour>
      <contour>
        <pt x="293" y="198" on="1"/>
        <pt x="346" y="198" on="0"/>
        <pt x="421" y="259" on="0"/>
        <pt x="433" y="319" on="1"/>
        <pt x="445" y="379" on="1"/>
        <pt x="447" y="389" on="0"/>
        <pt x="449" y="409" on="0"/>
        <pt x="449" y="416" on="1"/>
        <pt x="449" y="458" on="0"/>
        <pt x="399" y="500" on="0"/>
        <pt x="355" y="500" on="1"/>
        <pt x="302" y="500" on="0"/>
        <pt x="227" y="439" on="0"/>
        <pt x="215" y="379" on="1"/>
        <pt x="203" y="319" on="1"/>
        <pt x="201" y="309" on="0"/>
        <pt x="199" y="289" on="0"/>
        <pt x="199" y="282" on="1"/>
        <pt x="199" y="240" on="0"/>
        <pt x="249" y="198" on="0"/>
      </contour>
    </TTGlyph>
    <TTGlyph name="d" xMin="42" yMin="-12" xMax="594" yMax="740">
      <contour>
        <pt x="434" y="0" on="1"/>
        <pt x="399" y="0" on="0"/>
        <pt x="358" y="36" on="0"/>
        <pt x="358" y="68" on="1"/>
        <pt x="358" y="85" on="0"/>
        <pt x="361" y="97" on="1"/>
        <pt x="365" y="116" on="1"/>
        <pt x="361" y="116" on="1"/>
        <pt x="329" y="52" on="0"/>
        <pt x="252" y="-12" on="0"/>
        <pt x="192" y="-12" on="1"/>
        <pt x="120" y="-12" on="0"/>
        <pt x="42" y="92" on="0"/>
        <pt x="42" y="179" on="1"/>
        <pt x="42" y="247" on="0"/>
        <pt x="76" y="375" on="0"/>
        <pt x="141" y="473" on="0"/>
        <pt x="233" y="532" on="0"/>
        <pt x="291" y="532" on="1"/>
        <pt x="342" y="532" on="0"/>
        <pt x="416" y="479" on="0"/>
        <pt x="424" y="433" on="1"/>
        <pt x="429" y="433" on="1"/>
        <pt x="490" y="740" on="1"/>
        <pt x="594" y="740" on="1"/>
        <pt x="463" y="87" on="1"/>
        <pt x="530" y="87" on="1"/>
        <pt x="513" y="0" on="1"/>
      </contour>
      <contour>
        <pt x="234" y="77" on="1"/>
        <pt x="265" y="77" on="0"/>
        <pt x="313" y="106" on="0"/>
        <pt x="333" y="127" on="1"/>
        <pt x="377" y="174" on="0"/>
        <pt x="390" y="242" on="1"/>
        <pt x="409" y="337" on="1"/>
        <pt x="418" y="382" on="0"/>
        <pt x="368" y="443" on="0"/>
        <pt x="309" y="443" on="1"/>
        <pt x="253" y="443" on="0"/>
        <pt x="183" y="372" on="0"/>
        <pt x="169" y="303" on="1"/>
        <pt x="154" y="230" on="1"/>
        <pt x="152" y="218" on="0"/>
        <pt x="149" y="189" on="0"/>
        <pt x="149" y="176" on="1"/>
        <pt x="149" y="132" on="0"/>
        <pt x="191" y="77" on="0"/>
      </contour>
    </TTGlyph>
    <TTGlyph name="dagger" xMin="71" yMin="-200" xMax="534" yMax="740">
      <contour>
        <pt x="123" y="-200" on="1"/>
        <pt x="250" y="435" on="1"/>
        <pt x="71" y="435" on="1"/>
        <pt x="87" y="516" on="1"/>
        <pt x="267" y="516" on="1"/>
        <pt x="312" y="740" on="1"/>
        <pt x="402" y="740" on="1"/>
        <pt x="357" y="516" on="1"/>
        <pt x="534" y="516" on="1"/>
        <pt x="518" y="435" on="1"/>
        <pt x="340" y="435" on="1"/>
        <pt x="213" y="-200" on="1"/>
      </contour>
    </TTGlyph>
    <TTGlyph name="daggerdbl" xMin="-4" yMin="-200" xMax="540" yMax="740">
      <contour>
        <pt x="129" y="-200" on="1"/>
        <pt x="174" y="24" on="1"/>
        <pt x="-4" y="24" on="1"/>
        <pt x="12" y="105" on="1"/>
        <pt x="190" y="105" on="1"/>
        <pt x="256" y="435" on="1"/>
        <pt x="77" y="435" on="1"/>
        <pt x="93" y="516" on="1"/>
        <pt x="273" y="516" on="1"/>
        <pt x="318" y="740" on="1"/>
        <pt x="408" y="740" on="1"/>
        <pt x="363" y="516" on="1"/>
        <pt x="540" y="516" on="1"/>
        <pt x="524" y="435" on="1"/>
        <pt x="346" y="435" on="1"/>
        <pt x="280" y="105" on="1"/>
        <pt x="459" y="105" on="1"/>
        <pt x="442" y="24" on="1"/>
        <pt x="264" y="24" on="1"/>
        <pt x="219" y="-200" on="1"/>
      </contour>
    </TTGlyph>
    <TTGlyph name="dcaron" xMin="42" yMin="-12" xMax="778" yMax="740">
      <component glyphName="d" x="0" y="0" flags="0x4"/>
      <component glyphName="uni02BC" x="360" y="0" flags="0x4"/>
    </TTGlyph>
    <TTGlyph name="dcroat" xMin="42" yMin="-12" xMax="640" yMax="740">
      <contour>
        <pt x="434" y="0" on="1"/>
        <pt x="399" y="0" on="0"/>
        <pt x="358" y="36" on="0"/>
        <pt x="358" y="68" on="1"/>
        <pt x="358" y="85" on="0"/>
        <pt x="361" y="97" on="1"/>
        <pt x="365" y="116" on="1"/>
        <pt x="361" y="116" on="1"/>
        <pt x="329" y="52" on="0"/>
        <pt x="252" y="-12" on="0"/>
        <pt x="192" y="-12" on="1"/>
        <pt x="120" y="-12" on="0"/>
        <pt x="42" y="92" on="0"/>
        <pt x="42" y="179" on="1"/>
        <pt x="42" y="247" on="0"/>
        <pt x="76" y="375" on="0"/>
        <pt x="141" y="473" on="0"/>
        <pt x="233" y="532" on="0"/>
        <pt x="291" y="532" on="1"/>
        <pt x="342" y="532" on="0"/>
        <pt x="416" y="479" on="0"/>
        <pt x="424" y="433" on="1"/>
        <pt x="429" y="433" on="1"/>
        <pt x="462" y="600" on="1"/>
        <pt x="313" y="600" on="1"/>
        <pt x="328" y="675" on="1"/>
        <pt x="477" y="675" on="1"/>
        <pt x="490" y="740" on="1"/>
        <pt x="594" y="740" on="1"/>
        <pt x="581" y="675" on="1"/>
        <pt x="640" y="675" on="1"/>
        <pt x="624" y="600" on="1"/>
        <pt x="566" y="600" on="1"/>
        <pt x="463" y="87" on="1"/>
        <pt x="530" y="87" on="1"/>
        <pt x="513" y="0" on="1"/>
      </contour>
      <contour>
        <pt x="234" y="77" on="1"/>
        <pt x="265" y="77" on="0"/>
        <pt x="313" y="106" on="0"/>
        <pt x="333" y="127" on="1"/>
        <pt x="377" y="174" on="0"/>
        <pt x="390" y="242" on="1"/>
        <pt x="409" y="337" on="1"/>
        <pt x="418" y="382" on="0"/>
        <pt x="368" y="443" on="0"/>
        <pt x="309" y="443" on="1"/>
        <pt x="253" y="443" on="0"/>
        <pt x="183" y="372" on="0"/>
        <pt x="169" y="303" on="1"/>
        <pt x="154" y="230" on="1"/>
        <pt x="152" y="218" on="0"/>
        <pt x="149" y="189" on="0"/>
        <pt x="149" y="176" on="1"/>
        <pt x="149" y="132" on="0"/>
        <pt x="191" y="77" on="0"/>
      </contour>
    </TTGlyph>
    <TTGlyph name="degree" xMin="109" yMin="352" xMax="456" yMax="710">
      <contour>
        <pt x="263" y="352" on="1"/>
        <pt x="230" y="352" on="0"/>
        <pt x="174" y="376" on="0"/>
        <pt x="132" y="418" on="0"/>
        <pt x="109" y="476" on="0"/>
        <pt x="109" y="511" on="1"/>
        <pt x="109" y="554" on="0"/>
        <pt x="138" y="627" on="0"/>
        <pt x="190" y="680" on="0"/>
        <pt x="261" y="710" on="0"/>
        <pt x="302" y="710" on="1"/>
        <pt x="335" y="710" on="0"/>
        <pt x="391" y="686" on="0"/>
        <pt x="433" y="644" on="0"/>
        <pt x="456" y="585" on="0"/>
        <pt x="456" y="551" on="1"/>
        <pt x="456" y="508" on="0"/>
        <pt x="427" y="435" on="0"/>
        <pt x="375" y="382" on="0"/>
        <pt x="304" y="352" on="0"/>
      </contour>
      <contour>
        <pt x="272" y="428" on="1"/>
        <pt x="295" y="428" on="0"/>
        <pt x="333" y="447" on="0"/>
        <pt x="360" y="480" on="0"/>
        <pt x="374" y="524" on="0"/>
        <pt x="374" y="550" on="1"/>
        <pt x="374" y="585" on="0"/>
        <pt x="331" y="634" on="0"/>
        <pt x="293" y="634" on="1"/>
        <pt x="270" y="634" on="0"/>
        <pt x="232" y="615" on="0"/>
        <pt x="205" y="582" on="0"/>
        <pt x="191" y="537" on="0"/>
        <pt x="191" y="512" on="1"/>
        <pt x="191" y="477" on="0"/>
        <pt x="235" y="428" on="0"/>
      </contour>
    </TTGlyph>
    <TTGlyph name="delta" xMin="42" yMin="-12" xMax="561" yMax="740">
      <contour>
        <pt x="360" y="653" on="1"/>
        <pt x="271" y="660" on="1"/>
        <pt x="270" y="656" on="1"/>
        <pt x="365" y="576" on="1"/>
        <pt x="405" y="543" on="0"/>
        <pt x="458" y="482" on="0"/>
        <pt x="491" y="421" on="0"/>
        <pt x="505" y="355" on="0"/>
        <pt x="505" y="316" on="1"/>
        <pt x="505" y="248" on="0"/>
        <pt x="465" y="129" on="0"/>
        <pt x="395" y="40" on="0"/>
        <pt x="296" y="-12" on="0"/>
        <pt x="238" y="-12" on="1"/>
        <pt x="194" y="-12" on="0"/>
        <pt x="122" y="16" on="0"/>
        <pt x="71" y="71" on="0"/>
        <pt x="42" y="151" on="0"/>
        <pt x="42" y="203" on="1"/>
        <pt x="42" y="270" on="0"/>
        <pt x="85" y="381" on="0"/>
        <pt x="155" y="461" on="0"/>
        <pt x="247" y="506" on="0"/>
        <pt x="296" y="506" on="1"/>
        <pt x="297" y="511" on="1"/>
        <pt x="173" y="627" on="1"/>
        <pt x="195" y="740" on="1"/>
        <pt x="561" y="740" on="1"/>
        <pt x="543" y="653" on="1"/>
      </contour>
      <contour>
        <pt x="400" y="334" on="1"/>
        <pt x="400" y="371" on="0"/>
        <pt x="376" y="430" on="0"/>
        <pt x="341" y="468" on="1"/>
        <pt x="271" y="460" on="0"/>
        <pt x="181" y="365" on="0"/>
        <pt x="164" y="292" on="1"/>
        <pt x="155" y="250" on="0"/>
        <pt x="145" y="195" on="0"/>
        <pt x="145" y="181" on="1"/>
        <pt x="145" y="133" on="0"/>
        <pt x="196" y="76" on="0"/>
        <pt x="246" y="76" on="1"/>
        <pt x="295" y="76" on="0"/>
        <pt x="365" y="144" on="0"/>
        <pt x="380" y="207" on="1"/>
        <pt x="391" y="250" on="0"/>
        <pt x="400" y="314" on="0"/>
      </contour>
    </TTGlyph>
    <TTGlyph name="dieresis" xMin="161" yMin="610" xMax="474" yMax="734">
      <contour>
        <pt x="212" y="610" on="1"/>
        <pt x="186" y="610" on="0"/>
        <pt x="161" y="632" on="0"/>
        <pt x="161" y="650" on="1"/>
        <pt x="161" y="658" on="0"/>
        <pt x="165" y="681" on="1"/>
        <pt x="170" y="704" on="0"/>
        <pt x="202" y="734" on="0"/>
        <pt x="234" y="734" on="1"/>
        <pt x="285" y="734" on="0"/>
        <pt x="285" y="694" on="1"/>
        <pt x="285" y="689" on="0"/>
        <pt x="283" y="676" on="0"/>
        <pt x="281" y="664" on="1"/>
        <pt x="276" y="640" on="0"/>
        <pt x="244" y="610" on="0"/>
      </contour>
      <contour>
        <pt x="401" y="610" on="1"/>
        <pt x="375" y="610" on="0"/>
        <pt x="350" y="632" on="0"/>
        <pt x="350" y="650" on="1"/>
        <pt x="350" y="658" on="0"/>
        <pt x="354" y="681" on="1"/>
        <pt x="359" y="704" on="0"/>
        <pt x="391" y="734" on="0"/>
        <pt x="423" y="734" on="1"/>
        <pt x="474" y="734" on="0"/>
        <pt x="474" y="694" on="1"/>
        <pt x="474" y="689" on="0"/>
        <pt x="472" y="676" on="0"/>
        <pt x="470" y="664" on="1"/>
        <pt x="465" y="640" on="0"/>
        <pt x="433" y="610" on="0"/>
      </contour>
    </TTGlyph>
    <TTGlyph name="dieresis.case" xMin="161" yMin="776" xMax="474" yMax="902">
      <contour>
        <pt x="212" y="776" on="1"/>
        <pt x="186" y="776" on="0"/>
        <pt x="161" y="798" on="0"/>
        <pt x="161" y="816" on="1"/>
        <pt x="161" y="826" on="0"/>
        <pt x="165" y="849" on="1"/>
        <pt x="170" y="872" on="0"/>
        <pt x="202" y="902" on="0"/>
        <pt x="234" y="902" on="1"/>
        <pt x="285" y="902" on="0"/>
        <pt x="285" y="862" on="1"/>
        <pt x="285" y="857" on="0"/>
        <pt x="283" y="842" on="0"/>
        <pt x="281" y="830" on="1"/>
        <pt x="276" y="806" on="0"/>
        <pt x="244" y="776" on="0"/>
      </contour>
      <contour>
        <pt x="401" y="776" on="1"/>
        <pt x="375" y="776" on="0"/>
        <pt x="350" y="798" on="0"/>
        <pt x="350" y="816" on="1"/>
        <pt x="350" y="826" on="0"/>
        <pt x="354" y="849" on="1"/>
        <pt x="359" y="872" on="0"/>
        <pt x="391" y="902" on="0"/>
        <pt x="423" y="902" on="1"/>
        <pt x="474" y="902" on="0"/>
        <pt x="474" y="862" on="1"/>
        <pt x="474" y="857" on="0"/>
        <pt x="472" y="842" on="0"/>
        <pt x="470" y="830" on="1"/>
        <pt x="465" y="806" on="0"/>
        <pt x="433" y="776" on="0"/>
      </contour>
    </TTGlyph>
    <TTGlyph name="dieresisacute" xMin="-135" yMin="593" xMax="185" yMax="924">
      <contour>
        <pt x="44" y="713" on="1"/>
        <pt x="-15" y="744" on="1"/>
        <pt x="90" y="924" on="1"/>
        <pt x="173" y="880" on="1"/>
      </contour>
      <contour>
        <pt x="-83" y="593" on="1"/>
        <pt x="-113" y="593" on="0"/>
        <pt x="-135" y="617" on="0"/>
        <pt x="-135" y="634" on="1"/>
        <pt x="-135" y="638" on="0"/>
        <pt x="-133" y="651" on="0"/>
        <pt x="-130" y="667" on="1"/>
        <pt x="-126" y="689" on="0"/>
        <pt x="-95" y="716" on="0"/>
        <pt x="-62" y="716" on="1"/>
        <pt x="-33" y="716" on="0"/>
        <pt x="-10" y="692" on="0"/>
        <pt x="-10" y="675" on="1"/>
        <pt x="-10" y="671" on="0"/>
        <pt x="-12" y="658" on="0"/>
        <pt x="-15" y="642" on="1"/>
        <pt x="-19" y="620" on="0"/>
        <pt x="-51" y="593" on="0"/>
      </contour>
      <contour>
        <pt x="112" y="593" on="1"/>
        <pt x="83" y="593" on="0"/>
        <pt x="60" y="617" on="0"/>
        <pt x="60" y="634" on="1"/>
        <pt x="60" y="638" on="0"/>
        <pt x="62" y="651" on="0"/>
        <pt x="65" y="667" on="1"/>
        <pt x="69" y="689" on="0"/>
        <pt x="100" y="716" on="0"/>
        <pt x="133" y="716" on="1"/>
        <pt x="162" y="716" on="0"/>
        <pt x="185" y="692" on="0"/>
        <pt x="185" y="675" on="1"/>
        <pt x="185" y="671" on="0"/>
        <pt x="183" y="658" on="0"/>
        <pt x="180" y="642" on="1"/>
        <pt x="176" y="620" on="0"/>
        <pt x="145" y="593" on="0"/>
      </contour>
    </TTGlyph>
    <TTGlyph name="dieresisacute.case" xMin="-134" yMin="759" xMax="186" yMax="1091">
      <contour>
        <pt x="45" y="880" on="1"/>
        <pt x="-14" y="911" on="1"/>
        <pt x="91" y="1091" on="1"/>
        <pt x="174" y="1046" on="1"/>
      </contour>
      <contour>
        <pt x="-83" y="759" on="1"/>
        <pt x="-112" y="759" on="0"/>
        <pt x="-134" y="782" on="0"/>
        <pt x="-134" y="799" on="1"/>
        <pt x="-134" y="804" on="0"/>
        <pt x="-132" y="816" on="0"/>
        <pt x="-129" y="833" on="1"/>
        <pt x="-125" y="854" on="0"/>
        <pt x="-94" y="882" on="0"/>
        <pt x="-61" y="882" on="1"/>
        <pt x="-32" y="882" on="0"/>
        <pt x="-9" y="858" on="0"/>
        <pt x="-9" y="841" on="1"/>
        <pt x="-9" y="837" on="0"/>
        <pt x="-11" y="824" on="0"/>
        <pt x="-14" y="808" on="1"/>
        <pt x="-18" y="786" on="0"/>
        <pt x="-50" y="759" on="0"/>
      </contour>
      <contour>
        <pt x="113" y="759" on="1"/>
        <pt x="84" y="759" on="0"/>
        <pt x="61" y="782" on="0"/>
        <pt x="61" y="799" on="1"/>
        <pt x="61" y="804" on="0"/>
        <pt x="63" y="816" on="0"/>
        <pt x="66" y="833" on="1"/>
        <pt x="70" y="854" on="0"/>
        <pt x="101" y="882" on="0"/>
        <pt x="134" y="882" on="1"/>
        <pt x="163" y="882" on="0"/>
        <pt x="186" y="858" on="0"/>
        <pt x="186" y="841" on="1"/>
        <pt x="186" y="837" on="0"/>
        <pt x="184" y="824" on="0"/>
        <pt x="181" y="808" on="1"/>
        <pt x="177" y="786" on="0"/>
        <pt x="146" y="759" on="0"/>
      </contour>
    </TTGlyph>
    <TTGlyph name="dieresiscaron" xMin="-135" yMin="593" xMax="231" yMax="924">
      <contour>
        <pt x="-8" y="739" on="1"/>
        <pt x="-109" y="879" on="1"/>
        <pt x="-52" y="924" on="1"/>
        <pt x="45" y="818" on="1"/>
        <pt x="180" y="924" on="1"/>
        <pt x="231" y="879" on="1"/>
        <pt x="86" y="739" on="1"/>
      </contour>
      <contour>
        <pt x="-83" y="593" on="1"/>
        <pt x="-113" y="593" on="0"/>
        <pt x="-135" y="617" on="0"/>
        <pt x="-135" y="634" on="1"/>
        <pt x="-135" y="638" on="0"/>
        <pt x="-133" y="651" on="0"/>
        <pt x="-130" y="667" on="1"/>
        <pt x="-126" y="689" on="0"/>
        <pt x="-95" y="716" on="0"/>
        <pt x="-62" y="716" on="1"/>
        <pt x="-33" y="716" on="0"/>
        <pt x="-10" y="692" on="0"/>
        <pt x="-10" y="675" on="1"/>
        <pt x="-10" y="671" on="0"/>
        <pt x="-12" y="658" on="0"/>
        <pt x="-15" y="642" on="1"/>
        <pt x="-19" y="620" on="0"/>
        <pt x="-51" y="593" on="0"/>
      </contour>
      <contour>
        <pt x="112" y="593" on="1"/>
        <pt x="83" y="593" on="0"/>
        <pt x="60" y="617" on="0"/>
        <pt x="60" y="634" on="1"/>
        <pt x="60" y="638" on="0"/>
        <pt x="62" y="651" on="0"/>
        <pt x="65" y="667" on="1"/>
        <pt x="69" y="689" on="0"/>
        <pt x="100" y="716" on="0"/>
        <pt x="133" y="716" on="1"/>
        <pt x="162" y="716" on="0"/>
        <pt x="185" y="692" on="0"/>
        <pt x="185" y="675" on="1"/>
        <pt x="185" y="671" on="0"/>
        <pt x="183" y="658" on="0"/>
        <pt x="180" y="642" on="1"/>
        <pt x="176" y="620" on="0"/>
        <pt x="145" y="593" on="0"/>
      </contour>
    </TTGlyph>
    <TTGlyph name="dieresiscaron.case" xMin="-134" yMin="759" xMax="231" yMax="1090">
      <contour>
        <pt x="-8" y="905" on="1"/>
        <pt x="-109" y="1044" on="1"/>
        <pt x="-52" y="1090" on="1"/>
        <pt x="46" y="984" on="1"/>
        <pt x="181" y="1090" on="1"/>
        <pt x="231" y="1044" on="1"/>
        <pt x="86" y="905" on="1"/>
      </contour>
      <contour>
        <pt x="-83" y="759" on="1"/>
        <pt x="-112" y="759" on="0"/>
        <pt x="-134" y="782" on="0"/>
        <pt x="-134" y="799" on="1"/>
        <pt x="-134" y="804" on="0"/>
        <pt x="-132" y="816" on="0"/>
        <pt x="-129" y="833" on="1"/>
        <pt x="-125" y="854" on="0"/>
        <pt x="-94" y="882" on="0"/>
        <pt x="-61" y="882" on="1"/>
        <pt x="-32" y="882" on="0"/>
        <pt x="-9" y="858" on="0"/>
        <pt x="-9" y="841" on="1"/>
        <pt x="-9" y="837" on="0"/>
        <pt x="-11" y="824" on="0"/>
        <pt x="-14" y="808" on="1"/>
        <pt x="-18" y="786" on="0"/>
        <pt x="-50" y="759" on="0"/>
      </contour>
      <contour>
        <pt x="113" y="759" on="1"/>
        <pt x="84" y="759" on="0"/>
        <pt x="61" y="782" on="0"/>
        <pt x="61" y="799" on="1"/>
        <pt x="61" y="804" on="0"/>
        <pt x="63" y="816" on="0"/>
        <pt x="66" y="833" on="1"/>
        <pt x="70" y="854" on="0"/>
        <pt x="101" y="882" on="0"/>
        <pt x="134" y="882" on="1"/>
        <pt x="163" y="882" on="0"/>
        <pt x="186" y="858" on="0"/>
        <pt x="186" y="841" on="1"/>
        <pt x="186" y="837" on="0"/>
        <pt x="184" y="824" on="0"/>
        <pt x="181" y="808" on="1"/>
        <pt x="177" y="786" on="0"/>
        <pt x="146" y="759" on="0"/>
      </contour>
    </TTGlyph>
    <TTGlyph name="dieresisgrave" xMin="-135" yMin="593" xMax="185" yMax="924">
      <contour>
        <pt x="-64" y="882" on="1"/>
        <pt x="26" y="924" on="1"/>
        <pt x="86" y="741" on="1"/>
        <pt x="26" y="713" on="1"/>
      </contour>
      <contour>
        <pt x="-83" y="593" on="1"/>
        <pt x="-113" y="593" on="0"/>
        <pt x="-135" y="617" on="0"/>
        <pt x="-135" y="634" on="1"/>
        <pt x="-135" y="638" on="0"/>
        <pt x="-133" y="651" on="0"/>
        <pt x="-130" y="667" on="1"/>
        <pt x="-126" y="689" on="0"/>
        <pt x="-95" y="716" on="0"/>
        <pt x="-62" y="716" on="1"/>
        <pt x="-33" y="716" on="0"/>
        <pt x="-10" y="692" on="0"/>
        <pt x="-10" y="675" on="1"/>
        <pt x="-10" y="671" on="0"/>
        <pt x="-12" y="658" on="0"/>
        <pt x="-15" y="642" on="1"/>
        <pt x="-19" y="620" on="0"/>
        <pt x="-51" y="593" on="0"/>
      </contour>
      <contour>
        <pt x="112" y="593" on="1"/>
        <pt x="83" y="593" on="0"/>
        <pt x="60" y="617" on="0"/>
        <pt x="60" y="634" on="1"/>
        <pt x="60" y="638" on="0"/>
        <pt x="62" y="651" on="0"/>
        <pt x="65" y="667" on="1"/>
        <pt x="69" y="689" on="0"/>
        <pt x="100" y="716" on="0"/>
        <pt x="133" y="716" on="1"/>
        <pt x="162" y="716" on="0"/>
        <pt x="185" y="692" on="0"/>
        <pt x="185" y="675" on="1"/>
        <pt x="185" y="671" on="0"/>
        <pt x="183" y="658" on="0"/>
        <pt x="180" y="642" on="1"/>
        <pt x="176" y="620" on="0"/>
        <pt x="145" y="593" on="0"/>
      </contour>
    </TTGlyph>
    <TTGlyph name="dieresisgrave.case" xMin="-134" yMin="759" xMax="186" yMax="1090">
      <contour>
        <pt x="-66" y="1048" on="1"/>
        <pt x="24" y="1090" on="1"/>
        <pt x="84" y="907" on="1"/>
        <pt x="24" y="878" on="1"/>
      </contour>
      <contour>
        <pt x="-83" y="759" on="1"/>
        <pt x="-112" y="759" on="0"/>
        <pt x="-134" y="782" on="0"/>
        <pt x="-134" y="799" on="1"/>
        <pt x="-134" y="804" on="0"/>
        <pt x="-132" y="816" on="0"/>
        <pt x="-129" y="833" on="1"/>
        <pt x="-125" y="854" on="0"/>
        <pt x="-94" y="882" on="0"/>
        <pt x="-61" y="882" on="1"/>
        <pt x="-32" y="882" on="0"/>
        <pt x="-9" y="858" on="0"/>
        <pt x="-9" y="841" on="1"/>
        <pt x="-9" y="837" on="0"/>
        <pt x="-11" y="824" on="0"/>
        <pt x="-14" y="808" on="1"/>
        <pt x="-18" y="786" on="0"/>
        <pt x="-50" y="759" on="0"/>
      </contour>
      <contour>
        <pt x="113" y="759" on="1"/>
        <pt x="84" y="759" on="0"/>
        <pt x="61" y="782" on="0"/>
        <pt x="61" y="799" on="1"/>
        <pt x="61" y="804" on="0"/>
        <pt x="63" y="816" on="0"/>
        <pt x="66" y="833" on="1"/>
        <pt x="70" y="854" on="0"/>
        <pt x="101" y="882" on="0"/>
        <pt x="134" y="882" on="1"/>
        <pt x="163" y="882" on="0"/>
        <pt x="186" y="858" on="0"/>
        <pt x="186" y="841" on="1"/>
        <pt x="186" y="837" on="0"/>
        <pt x="184" y="824" on="0"/>
        <pt x="181" y="808" on="1"/>
        <pt x="177" y="786" on="0"/>
        <pt x="146" y="759" on="0"/>
      </contour>
    </TTGlyph>
    <TTGlyph name="dieresismacron" xMin="-135" yMin="593" xMax="199" yMax="848">
      <contour>
        <pt x="-74" y="848" on="1"/>
        <pt x="199" y="848" on="1"/>
        <pt x="183" y="767" on="1"/>
        <pt x="-91" y="767" on="1"/>
      </contour>
      <contour>
        <pt x="-83" y="593" on="1"/>
        <pt x="-113" y="593" on="0"/>
        <pt x="-135" y="617" on="0"/>
        <pt x="-135" y="634" on="1"/>
        <pt x="-135" y="638" on="0"/>
        <pt x="-133" y="651" on="0"/>
        <pt x="-130" y="667" on="1"/>
        <pt x="-126" y="689" on="0"/>
        <pt x="-95" y="716" on="0"/>
        <pt x="-62" y="716" on="1"/>
        <pt x="-33" y="716" on="0"/>
        <pt x="-10" y="692" on="0"/>
        <pt x="-10" y="675" on="1"/>
        <pt x="-10" y="671" on="0"/>
        <pt x="-12" y="658" on="0"/>
        <pt x="-15" y="642" on="1"/>
        <pt x="-19" y="620" on="0"/>
        <pt x="-51" y="593" on="0"/>
      </contour>
      <contour>
        <pt x="112" y="593" on="1"/>
        <pt x="83" y="593" on="0"/>
        <pt x="60" y="617" on="0"/>
        <pt x="60" y="634" on="1"/>
        <pt x="60" y="638" on="0"/>
        <pt x="62" y="651" on="0"/>
        <pt x="65" y="667" on="1"/>
        <pt x="69" y="689" on="0"/>
        <pt x="100" y="716" on="0"/>
        <pt x="133" y="716" on="1"/>
        <pt x="162" y="716" on="0"/>
        <pt x="185" y="692" on="0"/>
        <pt x="185" y="675" on="1"/>
        <pt x="185" y="671" on="0"/>
        <pt x="183" y="658" on="0"/>
        <pt x="180" y="642" on="1"/>
        <pt x="176" y="620" on="0"/>
        <pt x="145" y="593" on="0"/>
      </contour>
    </TTGlyph>
    <TTGlyph name="dieresismacron.case" xMin="-134" yMin="759" xMax="200" yMax="1014">
      <contour>
        <pt x="-74" y="1014" on="1"/>
        <pt x="200" y="1014" on="1"/>
        <pt x="183" y="933" on="1"/>
        <pt x="-91" y="933" on="1"/>
      </contour>
      <contour>
        <pt x="-83" y="759" on="1"/>
        <pt x="-112" y="759" on="0"/>
        <pt x="-134" y="782" on="0"/>
        <pt x="-134" y="799" on="1"/>
        <pt x="-134" y="804" on="0"/>
        <pt x="-132" y="816" on="0"/>
        <pt x="-129" y="833" on="1"/>
        <pt x="-125" y="854" on="0"/>
        <pt x="-94" y="882" on="0"/>
        <pt x="-61" y="882" on="1"/>
        <pt x="-32" y="882" on="0"/>
        <pt x="-9" y="858" on="0"/>
        <pt x="-9" y="841" on="1"/>
        <pt x="-9" y="837" on="0"/>
        <pt x="-11" y="824" on="0"/>
        <pt x="-14" y="808" on="1"/>
        <pt x="-18" y="786" on="0"/>
        <pt x="-50" y="759" on="0"/>
      </contour>
      <contour>
        <pt x="113" y="759" on="1"/>
        <pt x="84" y="759" on="0"/>
        <pt x="61" y="782" on="0"/>
        <pt x="61" y="799" on="1"/>
        <pt x="61" y="804" on="0"/>
        <pt x="63" y="816" on="0"/>
        <pt x="66" y="833" on="1"/>
        <pt x="70" y="854" on="0"/>
        <pt x="101" y="882" on="0"/>
        <pt x="134" y="882" on="1"/>
        <pt x="163" y="882" on="0"/>
        <pt x="186" y="858" on="0"/>
        <pt x="186" y="841" on="1"/>
        <pt x="186" y="837" on="0"/>
        <pt x="184" y="824" on="0"/>
        <pt x="181" y="808" on="1"/>
        <pt x="177" y="786" on="0"/>
        <pt x="146" y="759" on="0"/>
      </contour>
    </TTGlyph>
    <TTGlyph name="dieresistonos" xMin="193" yMin="582" xMax="549" yMax="795">
      <contour>
        <pt x="360" y="582" on="1"/>
        <pt x="310" y="598" on="1"/>
        <pt x="375" y="795" on="1"/>
        <pt x="453" y="774" on="1"/>
      </contour>
      <contour>
        <pt x="237" y="612" on="1"/>
        <pt x="216" y="612" on="0"/>
        <pt x="193" y="634" on="0"/>
        <pt x="193" y="652" on="1"/>
        <pt x="193" y="660" on="0"/>
        <pt x="197" y="679" on="1"/>
        <pt x="202" y="702" on="0"/>
        <pt x="231" y="732" on="0"/>
        <pt x="257" y="732" on="1"/>
        <pt x="277" y="732" on="0"/>
        <pt x="301" y="710" on="0"/>
        <pt x="301" y="692" on="1"/>
        <pt x="301" y="688" on="0"/>
        <pt x="299" y="676" on="0"/>
        <pt x="297" y="665" on="1"/>
        <pt x="292" y="642" on="0"/>
        <pt x="263" y="612" on="0"/>
      </contour>
      <contour>
        <pt x="485" y="612" on="1"/>
        <pt x="464" y="612" on="0"/>
        <pt x="441" y="634" on="0"/>
        <pt x="441" y="652" on="1"/>
        <pt x="441" y="660" on="0"/>
        <pt x="445" y="679" on="1"/>
        <pt x="450" y="702" on="0"/>
        <pt x="479" y="732" on="0"/>
        <pt x="505" y="732" on="1"/>
        <pt x="525" y="732" on="0"/>
        <pt x="549" y="710" on="0"/>
        <pt x="549" y="692" on="1"/>
        <pt x="549" y="684" on="0"/>
        <pt x="545" y="665" on="1"/>
        <pt x="540" y="642" on="0"/>
        <pt x="511" y="612" on="0"/>
      </contour>
    </TTGlyph>
    <TTGlyph name="divide" xMin="72" yMin="42" xMax="546" yMax="568">
      <contour>
        <pt x="72" y="262" on="1"/>
        <pt x="90" y="350" on="1"/>
        <pt x="546" y="350" on="1"/>
        <pt x="528" y="262" on="1"/>
      </contour>
      <contour>
        <pt x="260" y="42" on="1"/>
        <pt x="226" y="42" on="0"/>
        <pt x="199" y="67" on="0"/>
        <pt x="199" y="85" on="1"/>
        <pt x="199" y="92" on="0"/>
        <pt x="201" y="112" on="0"/>
        <pt x="203" y="120" on="1"/>
        <pt x="209" y="148" on="0"/>
        <pt x="245" y="179" on="0"/>
        <pt x="281" y="179" on="1"/>
        <pt x="315" y="179" on="0"/>
        <pt x="342" y="154" on="0"/>
        <pt x="342" y="135" on="1"/>
        <pt x="342" y="128" on="0"/>
        <pt x="340" y="108" on="0"/>
        <pt x="338" y="100" on="1"/>
        <pt x="332" y="73" on="0"/>
        <pt x="296" y="42" on="0"/>
      </contour>
      <contour>
        <pt x="337" y="431" on="1"/>
        <pt x="303" y="431" on="0"/>
        <pt x="276" y="456" on="0"/>
        <pt x="276" y="475" on="1"/>
        <pt x="276" y="482" on="0"/>
        <pt x="278" y="502" on="0"/>
        <pt x="280" y="510" on="1"/>
        <pt x="286" y="537" on="0"/>
        <pt x="322" y="568" on="0"/>
        <pt x="358" y="568" on="1"/>
        <pt x="392" y="568" on="0"/>
        <pt x="419" y="543" on="0"/>
        <pt x="419" y="525" on="1"/>
        <pt x="419" y="518" on="0"/>
        <pt x="417" y="498" on="0"/>
        <pt x="415" y="490" on="1"/>
        <pt x="409" y="462" on="0"/>
        <pt x="373" y="431" on="0"/>
      </contour>
    </TTGlyph>
    <TTGlyph name="dollar" xMin="4" yMin="-82" xMax="565" yMax="780">
      <contour>
        <pt x="187" y="6" on="1"/>
        <pt x="126" y="15" on="0"/>
        <pt x="30" y="71" on="0"/>
        <pt x="4" y="116" on="1"/>
        <pt x="78" y="181" on="1"/>
        <pt x="99" y="143" on="0"/>
        <pt x="167" y="99" on="0"/>
        <pt x="211" y="92" on="1"/>
        <pt x="256" y="320" on="1"/>
        <pt x="171" y="337" on="0"/>
        <pt x="91" y="422" on="0"/>
        <pt x="91" y="490" on="1"/>
        <pt x="91" y="532" on="0"/>
        <pt x="122" y="604" on="0"/>
        <pt x="182" y="659" on="0"/>
        <pt x="270" y="693" on="0"/>
        <pt x="326" y="696" on="1"/>
        <pt x="343" y="780" on="1"/>
        <pt x="425" y="780" on="1"/>
        <pt x="407" y="690" on="1"/>
        <pt x="461" y="681" on="0"/>
        <pt x="542" y="631" on="0"/>
        <pt x="565" y="591" on="1"/>
        <pt x="489" y="528" on="1"/>
        <pt x="475" y="554" on="0"/>
        <pt x="421" y="596" on="0"/>
        <pt x="383" y="604" on="1"/>
        <pt x="342" y="397" on="1"/>
        <pt x="429" y="379" on="0"/>
        <pt x="513" y="295" on="0"/>
        <pt x="513" y="226" on="1"/>
        <pt x="513" y="184" on="0"/>
        <pt x="481" y="106" on="0"/>
        <pt x="420" y="46" on="0"/>
        <pt x="328" y="7" on="0"/>
        <pt x="268" y="3" on="1"/>
        <pt x="252" y="-82" on="1"/>
        <pt x="170" y="-82" on="1"/>
      </contour>
      <contour>
        <pt x="408" y="212" on="1"/>
        <pt x="408" y="246" on="0"/>
        <pt x="370" y="294" on="0"/>
        <pt x="323" y="305" on="1"/>
        <pt x="281" y="91" on="1"/>
        <pt x="347" y="98" on="0"/>
        <pt x="408" y="168" on="0"/>
      </contour>
      <contour>
        <pt x="195" y="502" on="1"/>
        <pt x="195" y="433" on="0"/>
        <pt x="275" y="413" on="1"/>
        <pt x="313" y="608" on="1"/>
        <pt x="256" y="603" on="0"/>
        <pt x="195" y="545" on="0"/>
      </contour>
    </TTGlyph>
    <TTGlyph name="dotaccent" xMin="252" yMin="605" xMax="385" yMax="737">
      <contour>
        <pt x="308" y="605" on="1"/>
        <pt x="279" y="605" on="0"/>
        <pt x="252" y="629" on="0"/>
        <pt x="252" y="650" on="1"/>
        <pt x="252" y="655" on="0"/>
        <pt x="254" y="667" on="0"/>
        <pt x="257" y="681" on="1"/>
        <pt x="262" y="707" on="0"/>
        <pt x="294" y="737" on="0"/>
        <pt x="329" y="737" on="1"/>
        <pt x="358" y="737" on="0"/>
        <pt x="385" y="713" on="0"/>
        <pt x="385" y="692" on="1"/>
        <pt x="385" y="687" on="0"/>
        <pt x="383" y="675" on="0"/>
        <pt x="380" y="661" on="1"/>
        <pt x="375" y="635" on="0"/>
        <pt x="343" y="605" on="0"/>
      </contour>
    </TTGlyph>
    <TTGlyph name="dotaccent.case" xMin="253" yMin="772" xMax="386" yMax="904">
      <contour>
        <pt x="309" y="772" on="1"/>
        <pt x="280" y="772" on="0"/>
        <pt x="253" y="796" on="0"/>
        <pt x="253" y="817" on="1"/>
        <pt x="253" y="822" on="0"/>
        <pt x="255" y="834" on="0"/>
        <pt x="258" y="848" on="1"/>
        <pt x="263" y="874" on="0"/>
        <pt x="295" y="904" on="0"/>
        <pt x="330" y="904" on="1"/>
        <pt x="359" y="904" on="0"/>
        <pt x="386" y="880" on="0"/>
        <pt x="386" y="859" on="1"/>
        <pt x="386" y="854" on="0"/>
        <pt x="384" y="842" on="0"/>
        <pt x="381" y="828" on="1"/>
        <pt x="376" y="802" on="0"/>
        <pt x="344" y="772" on="0"/>
      </contour>
    </TTGlyph>
    <TTGlyph name="dotlessi" xMin="43" yMin="0" xMax="235" yMax="520">
      <contour>
        <pt x="121" y="0" on="1"/>
        <pt x="83" y="0" on="0"/>
        <pt x="43" y="39" on="0"/>
        <pt x="43" y="71" on="1"/>
        <pt x="43" y="76" on="0"/>
        <pt x="44" y="88" on="0"/>
        <pt x="45" y="93" on="1"/>
        <pt x="131" y="520" on="1"/>
        <pt x="235" y="520" on="1"/>
        <pt x="148" y="87" on="1"/>
        <pt x="215" y="87" on="1"/>
        <pt x="198" y="0" on="1"/>
      </contour>
    </TTGlyph>
    <TTGlyph name="e" xMin="42" yMin="-12" xMax="493" yMax="532">
      <contour>
        <pt x="248" y="-12" on="1"/>
        <pt x="147" y="-12" on="0"/>
        <pt x="42" y="103" on="0"/>
        <pt x="42" y="208" on="1"/>
        <pt x="42" y="272" on="0"/>
        <pt x="81" y="389" on="0"/>
        <pt x="153" y="479" on="0"/>
        <pt x="255" y="532" on="0"/>
        <pt x="318" y="532" on="1"/>
        <pt x="349" y="532" on="0"/>
        <pt x="412" y="516" on="0"/>
        <pt x="462" y="482" on="0"/>
        <pt x="493" y="428" on="0"/>
        <pt x="493" y="390" on="1"/>
        <pt x="493" y="307" on="0"/>
        <pt x="326" y="219" on="0"/>
        <pt x="148" y="215" on="1"/>
        <pt x="145" y="195" on="0"/>
        <pt x="145" y="182" on="1"/>
        <pt x="145" y="134" on="0"/>
        <pt x="198" y="76" on="0"/>
        <pt x="255" y="76" on="1"/>
        <pt x="298" y="76" on="0"/>
        <pt x="368" y="114" on="0"/>
        <pt x="400" y="154" on="1"/>
        <pt x="466" y="99" on="1"/>
        <pt x="417" y="38" on="0"/>
        <pt x="309" y="-12" on="0"/>
      </contour>
      <contour>
        <pt x="310" y="449" on="1"/>
        <pt x="256" y="449" on="0"/>
        <pt x="177" y="376" on="0"/>
        <pt x="165" y="314" on="1"/>
        <pt x="160" y="288" on="1"/>
        <pt x="231" y="291" on="0"/>
        <pt x="321" y="305" on="0"/>
        <pt x="372" y="329" on="0"/>
        <pt x="390" y="363" on="0"/>
        <pt x="390" y="385" on="1"/>
        <pt x="390" y="404" on="0"/>
        <pt x="376" y="429" on="0"/>
        <pt x="353" y="444" on="0"/>
        <pt x="325" y="449" on="0"/>
      </contour>
    </TTGlyph>
    <TTGlyph name="eacute" xMin="42" yMin="-12" xMax="493" yMax="795">
      <component glyphName="e" x="0" y="0" flags="0x204"/>
      <component glyphName="acute" x="31" y="0" flags="0x4"/>
    </TTGlyph>
    <TTGlyph name="ebreve" xMin="42" yMin="-12" xMax="525" yMax="768">
      <component glyphName="e" x="0" y="0" flags="0x204"/>
      <component glyphName="breve" x="31" y="0" flags="0x4"/>
    </TTGlyph>
    <TTGlyph name="ecaron" xMin="42" yMin="-12" xMax="534" yMax="786">
      <component glyphName="e" x="0" y="0" flags="0x204"/>
      <component glyphName="caron" x="31" y="0" flags="0x4"/>
    </TTGlyph>
    <TTGlyph name="ecircumflex" xMin="42" yMin="-12" xMax="506" yMax="778">
      <component glyphName="e" x="0" y="0" flags="0x204"/>
      <component glyphName="circumflex" x="31" y="0" flags="0x4"/>
    </TTGlyph>
    <TTGlyph name="edieresis" xMin="42" yMin="-12" xMax="505" yMax="734">
      <component glyphName="e" x="0" y="0" flags="0x204"/>
      <component glyphName="dieresis" x="31" y="0" flags="0x4"/>
    </TTGlyph>
    <TTGlyph name="edotaccent" xMin="42" yMin="-12" xMax="493" yMax="737">
      <component glyphName="e" x="0" y="0" flags="0x204"/>
      <component glyphName="dotaccent" x="31" y="0" flags="0x4"/>
    </TTGlyph>
    <TTGlyph name="egrave" xMin="42" yMin="-12" xMax="493" yMax="794">
      <component glyphName="e" x="0" y="0" flags="0x204"/>
      <component glyphName="grave" x="30" y="0" flags="0x4"/>
    </TTGlyph>
</ttFont>
